<?xml version="1.0" encoding="UTF-8"?>
<!DOCTYPE svg PUBLIC "-//W3C//DTD SVG 1.1//EN" "http://www.w3.org/Graphics/SVG/1.1/DTD/svg11.dtd">
<!-- Creator: CorelDRAW X7 -->
<svg xmlns="http://www.w3.org/2000/svg" xml:space="preserve" width="1024px" height="1024px" version="1.1" style="shape-rendering:geometricPrecision; text-rendering:geometricPrecision; image-rendering:optimizeQuality; fill-rule:evenodd; clip-rule:evenodd"
viewBox="0 0 1024 1024"
 xmlns:xlink="http://www.w3.org/1999/xlink">
 <defs>
  <style type="text/css">
   <![CDATA[
    .fil5 {fill:#00ADEF}
    .fil4 {fill:#231F20}
    .fil3 {fill:#A8A9AD}
    .fil1 {fill:#ED1B24}
    .fil2 {fill:#FEFEFE}
    .fil0 {fill:#FFF300}
   ]]>
  </style>
 </defs>
 <g id="Layer_x0020_1">
  <metadata id="CorelCorpID_0Corel-Layer"/>
  <g id="_2377117819312">
   <path class="fil0" d="M688 788c4,-2 12,-9 14,-11 -3,21 -16,40 -28,55 -23,27 -62,49 -94,59 -22,6 -43,10 -68,10 -88,0 -176,-54 -190,-124l6 6c2,1 5,3 7,5l-8 -20c-8,-23 -11,-47 -11,-72 3,2 6,10 8,13 3,4 5,8 8,12 2,4 5,8 8,12 16,22 39,43 62,57 74,47 161,43 231,-8l22 -18c6,-5 20,-19 24,-26 10,-13 12,-14 21,-30 1,-2 6,-11 7,-12 2,28 -4,56 -14,82 -2,3 -4,7 -5,10zm112 -112l19 -1 6 -17 7 17 19 1c-2,3 -12,8 -15,12l6 18c-6,-3 -11,-8 -16,-11 -6,3 -11,8 -16,11l5 -18c-3,-4 -12,-9 -15,-12zm-611 0l19 -1c1,-3 2,-6 3,-8 1,-3 2,-7 3,-9l7 17 19 1c-2,2 -5,4 -8,6 -2,1 -5,4 -7,6l5 18c-4,-2 -11,-8 -16,-11 -5,3 -10,8 -16,11l6 -18c-4,-4 -13,-9 -15,-12zm619 -192c2,-1 35,-6 39,-6l4 9 -8 8c-1,0 -2,0 -3,1 -1,2 -2,2 -3,3l-14 12c-2,1 -1,1 -2,1l-3 -7c1,-2 5,-5 7,-6 0,-3 -3,-7 -4,-10l-10 2 -3 -7zm-645 -3c1,-2 2,-5 3,-7 7,3 15,7 22,10 6,3 12,9 8,19 -3,8 -10,10 -20,6 -7,-2 -15,-6 -21,-9l3 -7c5,1 11,5 16,7 4,1 13,7 16,-1 3,-9 -20,-12 -27,-18zm635 -15l-4 -7 33 -18c4,3 16,20 3,27 -4,2 -7,1 -11,-1 -1,5 -4,7 -8,11 -2,2 -3,2 -4,4l-4 -7c5,-5 3,-3 7,-7 3,-3 4,-6 1,-9l-13 7zm-671 -14l2 -5 7 10 16 -1 -2 5 -12 1c0,3 1,3 3,4 2,1 3,2 5,2l-2 5 -22 -9 2 -5 9 4c-1,-3 -6,-8 -6,-11zm735 10l-3 -5c3,-2 8,-4 11,-5 4,-2 8,-4 12,-5l2 4 -22 11zm-681 -15l4 -7 33 18 -4 8 -30 -1 3 1c1,1 2,1 3,2l18 9c-1,2 -2,5 -3,6l-34 -17 4 -9 28 1 -5 -2c-2,-1 -4,-2 -6,-3 -2,-2 -8,-5 -11,-6zm-44 -7l4 2 2 -1c0,-1 0,-1 1,-2 0,-2 1,-3 2,-4l4 2 -4 7 5 3 4 -8 4 2 -6 13c-2,-1 -21,-10 -22,-11l6 -13 4 2 -4 8zm722 6l5 -2 -1 -3 3 -2 3 9 -10 5c-7,-6 -11,-18 -1,-23 11,-6 20,2 20,12l-4 1c-3,-17 -23,-9 -15,3zm-669 -13c1,-3 2,-5 4,-7l24 15c3,2 6,4 8,5 -1,3 -3,4 -4,7 -2,-1 -25,-16 -30,-19l-2 -1zm632 0c-3,1 -14,9 -19,12 -9,5 -16,4 -21,-3 -6,-9 -1,-17 6,-21l19 -12 2 3c1,1 1,2 2,3 -7,7 -29,14 -23,23 6,8 21,-8 30,-12 2,2 4,4 4,7zm26 -7l4 -3 -1 -3 4 -2 4 7c-3,2 -8,5 -11,7 -5,-3 -14,-16 -2,-23 10,-6 20,1 21,11l-4 1c-2,-2 -1,-4 -4,-7 -5,-5 -12,0 -13,3 -1,4 1,6 2,9zm-696 -21l22 10 -2 5 -17 -8c3,3 9,9 13,13l-2 4 -17 -5c1,1 2,2 3,3l11 6 -2 5 -21 -14 4 -5 16 4 -6 -6c-1,-1 -3,-5 -6,-6 1,-2 2,-5 4,-6zm59 -3c1,-2 3,-6 5,-7 2,4 20,25 24,31 -1,2 -4,6 -5,8l-38 -13c1,-1 2,-3 2,-4l3 -3 28 10c-3,-4 -18,-19 -19,-22zm542 0c2,-3 5,-4 7,-6 3,-3 5,-4 7,-6 3,-2 5,-4 7,-6 3,-2 5,-4 8,-5 4,2 15,14 13,23 -2,8 -12,16 -21,16 -10,0 -20,-12 -21,-16zm-598 -3c1,-2 7,-11 8,-12l4 2c-1,3 -4,5 -5,8 2,1 3,2 5,3l4 -7c1,0 2,1 4,2 -1,3 -4,5 -5,7l5 3c1,-1 5,-7 6,-7l3 1c-1,3 -6,10 -8,13 -2,0 -12,-7 -16,-10 -1,-1 -3,-2 -5,-3zm669 -3c1,-2 3,-3 5,-4l16 -10 3 5c-1,4 -8,13 -9,17 2,-2 11,-8 14,-10l2 4c-3,3 -7,5 -10,7 -3,2 -7,5 -10,7l-3 -5c1,-4 8,-14 9,-17l-14 9 -3 -3zm-604 -6c1,-1 2,-3 3,-4l11 -12c1,1 4,3 5,4 -2,3 -8,8 -8,11 2,1 3,3 5,4 2,-2 3,-3 4,-5l5 -4c1,0 4,3 5,4 -1,2 -5,5 -6,7l-2 3c1,1 5,5 7,5l7 -8c1,-1 0,-1 2,-2 2,1 4,3 5,4l-7 9c-2,3 -4,5 -7,8 -2,-1 -12,-10 -15,-12l-14 -12zm618 -16c2,1 3,2 3,4 -3,2 -6,4 -10,7 -2,2 -7,5 -10,7 -1,-2 -2,-3 -3,-4l20 -14zm-652 23l-20 -14c1,-1 2,-4 3,-5 7,0 14,2 19,2 -2,-1 -12,-8 -13,-9l2 -4c2,1 19,12 20,14 0,2 -2,3 -3,5l-20 -3 15 10c-1,2 -2,2 -3,4zm54 -30c3,-4 9,-12 15,-13 5,-2 14,2 13,13 4,0 6,1 9,3 3,1 6,3 8,5 -1,2 -3,4 -5,5 -3,-1 -7,-3 -9,-5 -5,-3 -6,0 -9,2 4,5 9,8 10,11 0,1 -4,4 -5,5 -2,-2 -6,-5 -7,-7l-20 -19zm487 9c0,0 0,0 0,0 2,-2 34,-19 34,-19 2,1 7,5 8,7 -1,3 -4,6 -5,9l-12 21c-1,1 -1,1 -1,2l-2 2c-1,-1 -1,0 -2,-1l-4 -5 5 -8c-1,-2 -5,-6 -7,-7l-8 5 -6 -6zm85 4c-1,-2 -2,-2 -2,-5 3,-1 12,-9 15,-11 -1,-3 -2,-2 -3,-5 1,-2 2,-2 3,-3l11 14c-1,2 -2,2 -3,3 -2,-2 -3,-3 -4,-5 -3,2 -6,4 -8,6 -3,2 -6,5 -9,6zm-621 -30l3 2c-1,3 -2,3 -3,6 2,2 12,9 15,12 -1,1 -2,3 -3,4l-12 -9c-2,-2 -2,-2 -4,-3 -1,2 -2,3 -4,5 -2,-1 -2,-2 -3,-3l11 -14zm229 -8l17 26 13 -5 -1 7c6,-1 6,0 10,2 1,-4 4,-6 9,-7 8,-1 6,-1 12,2 2,-3 2,-4 7,-5 4,-1 7,-1 11,0 11,-21 10,-16 15,-44 3,1 6,15 7,19 2,11 1,15 0,25l3 3c1,-1 0,0 1,-1 4,-3 4,-3 10,-2 8,1 6,1 10,5 3,-3 7,-3 13,-1 6,1 5,1 8,6 4,-2 4,-3 9,-2l-1 -7 14 5c4,-6 12,-21 17,-26l-7 30 13 6c-1,2 -4,3 -6,5l1 5c6,-2 7,-1 12,2 4,2 6,3 7,9 7,-1 6,-1 11,3 4,3 6,4 6,10 7,-1 7,1 11,4 3,3 5,4 4,11 7,-1 8,2 11,5 3,3 4,6 3,11 6,0 8,3 10,6 3,5 4,6 3,12 7,1 6,5 10,10 2,-2 3,-5 5,-6l6 13 29 -5c-8,5 -17,9 -25,15l5 14 -12 -2c5,1 8,11 8,15 0,2 -1,4 -2,5 1,2 2,1 4,4 1,1 1,3 2,6 1,5 1,8 -3,11 0,1 0,1 1,1 1,1 2,2 3,3 1,2 1,5 1,7 1,9 -1,7 -4,11 4,3 5,4 4,11 0,5 -1,9 -5,10 3,6 4,2 3,12 -1,6 -2,7 -7,9 3,5 4,5 2,11 -1,6 -2,6 -5,10 0,0 -1,0 -1,0l11 -2 -5 14c9,5 17,11 26,16 -2,1 -25,-5 -30,-6l-7 13c-1,-2 -3,-4 -4,-6 0,1 0,0 -1,1 -3,5 -3,8 -9,9 1,6 0,7 -3,11 -2,4 -3,7 -10,7 2,7 -1,7 -3,11 -3,4 -5,6 -11,5 1,8 -7,16 -15,15 0,6 -3,7 -6,10 -4,3 -5,4 -11,3 -1,6 -3,7 -7,9 -4,3 -7,4 -12,2 0,1 -1,4 -1,5 0,1 5,4 6,4l-13 7 7 30 -17 -26 -14 5 2 -7c-5,1 -7,0 -10,-2 -4,4 -1,5 -9,6 -6,2 -8,2 -12,-1 -3,4 -3,4 -10,5 -7,1 -7,0 -11,-3 -3,4 -5,5 -11,4 -3,0 -7,0 -9,-2l-2 -2c-2,3 -6,4 -11,3 -5,0 -9,-1 -10,-5 -6,3 -5,3 -12,2 -7,-2 -7,-2 -9,-7 -4,2 -4,3 -10,2l1 7 -13 -5c-3,4 -14,21 -17,26l6 -30c-3,-2 -10,-4 -12,-7 1,-1 4,-3 6,-4 0,-2 -1,-3 -1,-5 -6,2 -7,1 -12,-2 -4,-2 -7,-3 -7,-9 -7,0 -4,2 -11,-3 -3,-2 -6,-4 -6,-10 -7,1 -7,-1 -11,-4 -3,-3 -5,-4 -5,-11 -6,0 -7,-2 -10,-5 -3,-3 -5,-5 -4,-11 -5,-1 -7,-2 -9,-6 -3,-4 -4,-5 -3,-12 -8,0 -7,-5 -10,-10l-4 6 -7 -13 -30 7 19 -13c2,-1 5,-3 7,-4l-5 -14 11 2c-5,-3 -4,-3 -6,-9 -1,-4 -2,-7 0,-10 1,-1 1,-1 1,-2 -4,-2 -5,-4 -6,-9 -1,-7 -1,-8 3,-12 -4,-2 -5,-4 -5,-9 -1,-6 0,-9 3,-12 -3,-5 -4,-3 -3,-11 0,-3 0,-4 1,-6 1,-3 2,-3 4,-5 -4,-3 -4,-5 -3,-11 2,-8 2,-6 6,-10 -3,-4 -3,-5 -1,-11 1,-4 2,-9 7,-9l-12 2 5 -14c-2,-1 -5,-3 -7,-4 -2,-1 -4,-3 -6,-4 -4,-2 -10,-5 -13,-8l30 6 6 -13c2,1 2,3 3,4l2 2c1,-2 2,-5 3,-7 2,-2 4,-2 7,-3 -2,-6 0,-8 3,-12 2,-3 3,-5 9,-6 -1,-7 1,-7 4,-11 3,-3 4,-5 10,-5 0,-8 8,-16 16,-15 0,-6 2,-7 6,-10 4,-3 5,-4 11,-3 0,-5 3,-7 7,-9 5,-3 5,-4 12,-2l1 -5 -7 -4 13 -7 -6 -30zm377 0c2,-2 7,-7 9,-8 2,2 3,2 4,5l-7 17c3,-2 4,-4 6,-6 3,-2 4,-3 7,-5l3 3c-1,2 -1,2 -2,2 -1,1 -2,2 -3,3 -3,2 -11,10 -14,11l-3 -4c1,-5 5,-12 7,-18l-13 11c-2,0 -3,-2 -3,-4l9 -7zm-604 5c2,-3 3,-4 5,-6 2,-1 3,-4 5,-5 1,1 2,1 3,3 -1,2 -4,4 -6,7 1,1 3,2 4,3 2,-2 3,-4 6,-6l3 2c0,1 -4,6 -5,7 1,1 2,2 4,3 3,-2 4,-4 7,-6 1,0 1,1 3,2 -1,2 -8,10 -10,11l-7 -5c-3,-3 -9,-7 -12,-10zm90 18c5,-2 14,-7 9,-11 -3,-3 -11,3 -18,1 -13,-4 -6,-23 6,-25l3 7c-4,1 -9,3 -8,8 5,4 8,0 14,0 6,-1 10,3 11,7 4,9 -6,18 -14,19l-3 -6zm-58 -37l0 3 2 1c3,0 3,1 5,2 1,0 1,0 2,1l2 1c0,0 0,0 0,0 -1,2 -2,2 -3,4 -5,-1 -9,-7 -12,-2 1,2 5,5 7,7l-3 4c-3,-2 -7,-6 -10,-8l-9 -9c5,-8 15,-14 19,-4zm469 22c1,-2 2,-3 4,-4l16 -18c1,-2 4,-5 6,-6 2,2 5,4 8,6 -2,7 -10,20 -11,24 6,-5 14,-11 21,-16 2,1 7,5 8,7l-22 30c-1,-1 -5,-3 -6,-4 3,-5 16,-21 17,-23l-23 17c-2,-1 -4,-3 -5,-4 1,-4 10,-23 12,-26l-19 21 -5 -3c-1,-1 0,0 -1,-1zm77 -17c0,-1 20,-12 22,-12l5 4 -13 23 -2 -2c-1,-1 -1,-1 -1,-2l3 -6 -5 -5 -6 3c-1,-1 -2,-1 -3,-3zm-484 -9c1,-1 4,-4 6,-5l23 30c-2,2 -4,3 -6,5l-12 -15c-3,-5 -7,-10 -11,-15zm387 -25c11,-3 21,5 20,16 0,9 -8,19 -16,21 -16,3 -27,-14 -15,-30 3,-3 6,-6 11,-7zm-449 14c3,2 6,6 9,8 2,2 7,7 8,9l-4 4 -17 -18 4 -3zm96 -13c1,2 3,4 4,6l-8 5c4,7 12,18 17,26 0,0 0,0 -1,1 0,0 0,0 0,0 -1,0 -1,1 -2,1 -1,1 -2,2 -4,2l-16 -25c-3,1 -6,4 -8,5l-4 -6 22 -15zm-88 5c1,-1 4,-3 5,-4l22 13c-1,1 -2,2 -4,3l-6 -3 -5 5 3 5c-1,2 -2,3 -4,4 -2,-5 -10,-19 -11,-23zm522 14c2,-2 3,-3 5,-4l12 -14c1,1 2,2 4,4 -2,3 -5,4 -7,8l12 -3c1,0 2,1 3,2 1,0 1,1 2,2l-13 2c0,1 0,1 0,2l-3 14c-3,-1 -2,-2 -5,-4l3 -12c-4,1 -3,1 -5,3 -1,1 -2,2 -4,4 -1,-1 -1,-1 -2,-2 -1,-1 -1,-1 -2,-2zm5 -20c1,-2 2,-3 4,-4 1,0 2,2 4,2l-16 19c-2,-1 -2,-1 -4,-3l12 -14zm-419 -9l21 21c1,1 5,5 6,7l-7 4c-3,-2 -5,-5 -7,-7l-9 4 2 9c-1,2 -4,4 -7,4 -1,-2 -8,-34 -8,-38l9 -4zm388 9c0,-1 13,-18 14,-20 7,3 18,12 10,22 -10,11 -19,1 -24,-2zm-117 -28c11,-2 19,7 19,17 0,10 -6,20 -15,22 -25,5 -26,-34 -4,-39zm-346 38c-2,1 -2,2 -4,3 -1,-2 -13,-16 -15,-19 1,-2 3,-3 5,-4l17 7 -11 -12c2,-2 2,-2 4,-3 1,1 15,17 15,19 -1,1 -2,2 -4,3l-18 -8c2,3 4,5 6,7 1,2 4,4 5,7zm401 -18c-2,2 -13,11 -15,13 -8,6 -5,9 -10,17l-7 -3c1,-5 6,-11 6,-17 -1,-7 -1,-15 -1,-22l8 3 -1 18 13 -12 7 3zm-297 17c7,0 16,-2 12,-8 -3,-3 -12,0 -17,-4 -11,-9 1,-24 14,-22l1 7c-15,1 -12,8 -9,9 7,2 12,-2 17,4 9,11 -4,22 -17,21l-1 -7zm181 -50c11,-3 19,5 20,16 0,10 -5,20 -14,22 -26,5 -26,-34 -6,-38zm169 35c1,-1 12,-18 15,-20l3 3c0,2 -12,18 -13,20l-5 -3zm-8 -33c4,1 10,5 12,7 7,8 -1,22 -12,20 -5,-1 -10,-4 -12,-7l12 -20zm-439 13c2,-2 8,-7 12,-7 3,0 5,1 6,3 2,3 1,4 0,7 4,1 9,5 10,7l-4 3c-4,-3 -3,-3 -5,-4 -3,-2 -4,-1 -6,0l5 8 -4 3 -14 -20zm148 -12l1 7 -8 2c0,4 7,24 7,30l-8 2 -8 -30 -8 2c-1,-1 -2,-4 -2,-7l26 -6zm151 31c8,2 9,2 12,-9 1,-7 2,-13 4,-19l8 2c-1,5 -5,20 -6,25 -3,11 -10,11 -20,8 0,-3 1,-5 2,-7zm-71 -1c-1,-3 1,-32 1,-37 3,0 9,-1 10,1l5 12c2,4 4,9 6,13l1 -25 7 0 -2 38 -8 -1c-3,-3 -9,-22 -12,-27l-1 27 -7 -1zm-72 -31c8,-2 26,-7 26,8 0,5 -3,7 -4,8 4,2 6,7 8,13 2,4 2,3 1,4l-7 1c-5,-6 -3,-15 -13,-13l2 15 -7 1 -6 -37zm-134 -2c2,2 13,19 13,21l-4 2c-2,-2 -12,-18 -13,-20l4 -3zm176 -4c2,13 -2,32 8,31 10,0 4,-18 5,-31l8 -1c0,17 6,39 -13,39 -10,1 -13,-4 -15,-13 0,-3 -1,-21 -1,-24l8 -1zm219 -6l6 2 -1 19 8 -15 4 3 -11 21 -5 -2 0 -20 -8 16 -5 -3 12 -21zm-380 24c2,-1 11,-3 7,-7 -2,-2 -8,1 -12,-1 -7,-5 0,-15 8,-15l1 4c-3,1 -8,2 -6,6 0,0 0,0 1,0 0,1 0,1 1,1 1,0 2,-1 3,-1 16,-1 11,18 -2,17l-1 -4zm49 -24c0,-1 2,-2 5,-2l-1 10 -3 2 -1 -10zm313 -8c2,0 11,4 13,6l-2 4 -8 -4 -2 4 8 4 -2 4 -8 -3 -2 5 8 4 -2 4 -14 -6 11 -22zm-21 -8c7,1 15,4 14,10 0,8 -8,9 -14,6l-3 8 -5 -2 8 -22zm-320 7c1,2 1,3 2,4l-8 4 2 5 8 -4 2 4 -8 4c0,1 1,2 1,2l2 3 8 -4 2 4c-1,1 -12,6 -13,6l-11 -21 13 -7zm259 0c0,-1 11,-20 12,-22 2,0 3,1 4,1l3 1 1 25 -5 -1 -1 -7 -6 -1 -3 5 -5 -1zm-256 -2c5,-1 13,-6 17,-6l1 4 -5 2 7 19 -4 1 -8 -18 -6 3 -2 -5zm144 -32l5 0 0 19 10 1 0 4c-4,0 -12,1 -15,0l0 -24zm145 25l0 0 -5 16 -5 -1 7 -24 6 3c2,6 3,11 4,18l4 -16 5 1 -7 24 -6 -2 -3 -19zm-56 5c0,-3 4,-22 5,-24 10,1 21,4 18,16 -3,14 -20,9 -23,8zm-187 -15l1 5 -6 2 7 19 -5 1 -7 -19 -6 2 -1 -4 17 -6zm79 -14c16,-4 20,20 6,24 -16,4 -20,-21 -6,-24zm-61 10l1 4c-2,1 -6,2 -9,2 1,2 1,4 2,5l8 -2 1 4 -8 2 1 6 10 -2 1 4 -15 4 -6 -23 14 -4zm105 -11c16,-3 18,22 5,24 -17,4 -19,-21 -5,-24zm-92 18c1,-2 2,-5 3,-8 1,-3 0,-4 8,-4l-6 11 11 12 -6 1c-3,-2 -5,-6 -8,-8 -2,4 0,5 0,10l-5 1 -5 -24 5 -1 3 10zm135 -15l6 0 -4 24c0,0 -2,0 -2,0l-2 0c0,-1 0,0 -1,-1l3 -23zm-115 8l3 17 -5 1 -3 -24c2,-1 4,-1 6,-1 1,2 8,10 11,15l-3 -16c2,-1 3,-1 5,-1l4 24c-2,1 -4,1 -6,1l-12 -16zm108 14c-11,3 -21,-1 -20,-13 2,-12 13,-11 21,-9l-1 4c-6,-2 -12,-2 -14,5 -1,6 3,10 9,9l1 -5 -4 0 0 -4 9 0 -1 13zm-495 166c3,26 8,53 12,79 25,139 72,282 136,408 5,10 10,20 15,30 2,3 15,29 16,29 23,4 45,8 67,12 124,17 248,21 372,8 24,-3 48,-5 71,-9 22,-3 46,-6 68,-11 1,-1 14,-25 16,-29 11,-21 34,-69 44,-91 18,-43 36,-86 51,-131 15,-47 29,-93 40,-142 6,-28 26,-124 27,-154l-24 -25c-6,-6 -31,-31 -38,-38 -1,0 -2,-1 -3,-2 -2,-2 -2,-2 -3,-4l-20 -18c-1,-1 -2,-2 -3,-3 -8,-7 -16,-13 -24,-20l-14 -12c-2,-2 -4,-4 -7,-6 -9,-8 -24,-20 -34,-28 -24,-19 -48,-36 -73,-53 -49,-35 -104,-66 -157,-95 -6,-3 -65,-33 -67,-33 -3,0 -61,29 -67,33 -25,13 -72,38 -96,55 -11,7 -21,13 -31,19 -14,10 -32,21 -45,31 -17,13 -34,24 -50,38 -1,0 -3,1 -4,2 -1,1 -2,2 -3,3 -3,2 -5,4 -7,5 -3,3 -5,4 -7,6l-19 16c-1,0 -1,0 -2,1 -9,7 -23,20 -31,26 -4,3 -14,14 -19,18l-11 9c-3,4 -26,25 -29,28 -1,1 -2,2 -3,3 -8,8 -18,17 -25,25 -2,2 -4,5 -6,6l-13 14z"/>
   <path class="fil1" d="M997 389c1,6 -2,20 -3,27 -9,64 -19,111 -35,175 -23,95 -69,218 -114,305 -7,14 -14,27 -21,40 -14,25 -8,21 -22,23 -4,1 -8,2 -12,2 -54,10 -104,16 -159,21 -77,6 -155,6 -232,1 -67,-5 -120,-13 -185,-25 -3,-1 -3,-1 -4,-4l-28 -54c-19,-37 -41,-85 -57,-123 -51,-130 -79,-240 -98,-382 -1,-7 -1,-6 3,-10l37 -38c5,-5 10,-10 15,-14l95 -85c12,-9 23,-18 34,-27 21,-16 47,-35 69,-51l36 -24c12,-8 24,-15 37,-23 45,-28 108,-60 156,-83 3,-2 3,-1 6,0l15 7c20,10 41,20 60,31 13,7 26,14 39,21 76,42 172,109 238,166 2,1 3,2 4,3l12 11c3,2 6,4 8,7l70 65c2,3 4,6 7,8 6,5 9,10 15,15 4,4 11,13 14,15zm-985 -4c0,5 5,39 6,45 1,5 1,10 2,15 4,28 11,67 17,93l3 15c1,2 2,5 2,7l12 47c1,3 1,4 2,7l7 27c2,4 3,8 4,12 12,39 25,78 40,115 1,2 1,3 2,6l5 12c1,2 2,4 3,6l5 12c1,2 1,4 2,6 5,10 11,26 16,36 5,10 10,21 15,32l13 25c8,17 17,34 26,51 1,2 2,3 3,5 1,2 2,4 3,6 1,2 1,4 4,5 4,1 9,1 14,2 32,7 64,11 96,16 4,0 10,1 15,2l31 3c5,0 11,1 15,1 11,2 21,2 32,3 14,1 27,2 41,2 3,0 4,0 8,0 11,0 22,1 34,1 29,0 60,1 90,-2l16 0c4,0 5,-1 8,-1 11,0 21,-1 32,-2 7,0 16,-2 24,-2 5,0 10,-1 15,-2 14,0 61,-7 76,-9l44 -8c5,-1 10,-2 15,-2 2,-1 10,-1 11,-3 2,-3 6,-10 7,-13l15 -28c1,-1 1,-1 2,-2l20 -40c1,-1 1,-2 1,-3 1,-1 1,-1 2,-3 9,-20 20,-41 28,-62l10 -24c5,-10 8,-20 12,-30 6,-15 11,-30 17,-44 3,-9 6,-18 8,-26l13 -39c1,-4 2,-9 4,-13 1,-4 2,-9 3,-14l10 -33c3,-13 12,-52 14,-63l3 -14c1,-5 2,-10 3,-14l4 -22c1,-3 1,-4 1,-7 2,-15 6,-29 8,-44l6 -46c0,-1 -5,-5 -6,-7 -1,-1 -2,-2 -3,-3 0,0 0,0 -1,0 0,0 0,-1 0,-1l-43 -43c-4,-4 -9,-9 -13,-14 -1,-1 -2,-1 -3,-3 -1,0 -1,0 -1,0l-17 -16c-3,-2 -4,-4 -7,-7l-14 -13c-9,-8 -49,-42 -58,-49l-46 -35c-10,-8 -21,-15 -31,-23 -10,-7 -25,-17 -36,-24 -1,-1 -1,-1 -2,-1l-26 -18c-11,-7 -38,-23 -51,-30 -1,-1 -2,-2 -4,-3 -7,-4 -14,-8 -21,-12l-22 -12c-1,0 -1,-1 -2,-1 -7,-4 -14,-7 -20,-11l-11 -5c-1,-1 -1,-1 -2,-1l-14 -7c-2,-1 -2,-1 -4,-2 -5,-3 -40,-20 -42,-20 -3,0 -27,12 -32,14 0,1 -1,1 -2,1l-38 20c-3,1 -6,2 -9,4 -12,6 -23,13 -35,19l-43 25c-14,8 -27,16 -41,26 -3,2 -5,3 -8,5l-24 16c-3,2 -5,4 -8,5l-55 40c-8,6 -15,12 -22,18 -11,8 -35,26 -45,36l-71 64c-2,2 -5,4 -7,6 -2,3 -4,5 -7,7 -2,2 -4,5 -6,7l-34 34c-1,1 -13,13 -13,14z"/>
   <path class="fil2" d="M511 53c2,-1 7,2 10,3 20,10 50,25 68,35 13,7 25,14 38,21 57,32 124,76 175,116l64 52c8,8 19,16 28,24l7 7c7,6 20,18 26,25 10,9 21,21 30,29l21 22c2,2 6,6 6,8 1,5 -6,44 -7,51 -13,79 -32,161 -57,235 -22,66 -38,105 -66,167 -6,13 -12,27 -19,40 -6,13 -13,26 -20,38 -13,24 -7,20 -21,22 -183,34 -366,35 -549,3 -30,-5 -24,-2 -30,-14 -2,-3 -4,-6 -5,-9 -27,-51 -53,-106 -75,-159 -33,-84 -62,-180 -79,-270 -7,-34 -12,-67 -16,-101 -1,-4 -1,-5 4,-10 7,-6 15,-15 22,-22 5,-5 9,-10 15,-15 7,-7 14,-14 22,-21l15 -14c9,-8 21,-20 31,-28 12,-10 27,-23 39,-33 6,-4 11,-9 16,-13l33 -26c17,-12 34,-24 51,-36 11,-8 23,-16 35,-24 23,-14 48,-30 72,-44 7,-3 13,-7 19,-10 19,-11 78,-42 97,-49zm486 336c-3,-2 -10,-11 -14,-15 -6,-5 -9,-10 -15,-15 -3,-2 -5,-5 -7,-8l-70 -65c-2,-3 -5,-5 -8,-7l-12 -11c-1,-1 -2,-2 -4,-3 -66,-57 -162,-124 -238,-166 -13,-7 -26,-14 -39,-21 -19,-11 -40,-21 -60,-31l-15 -7c-3,-1 -3,-2 -6,0 -48,23 -111,55 -156,83 -13,8 -25,15 -37,23l-36 24c-22,16 -48,35 -69,51 -11,9 -22,18 -34,27l-95 85c-5,4 -10,9 -15,14l-37 38c-4,4 -4,3 -3,10 19,142 47,252 98,382 16,38 38,86 57,123l28 54c1,3 1,3 4,4 65,12 118,20 185,25 77,5 155,5 232,-1 55,-5 105,-11 159,-21 4,0 8,-1 12,-2 14,-2 8,2 22,-23 7,-13 14,-26 21,-40 45,-87 91,-210 114,-305 16,-64 26,-111 35,-175 1,-7 4,-21 3,-27z"/>
   <path class="fil3" d="M693 774c8,-22 13,-47 13,-70 -2,2 -6,10 -7,14 -6,11 -17,27 -24,37 -36,46 -94,86 -160,86l-6 0c-49,0 -91,-22 -119,-45 -6,-4 -23,-20 -27,-25 -13,-16 -17,-18 -30,-40l-13 -23c0,-1 -1,-2 -1,-2 -1,-1 0,-1 -1,-2 -1,25 8,58 18,81 1,3 4,7 4,9 -1,-1 -2,-2 -4,-3l-11 -9c2,13 13,33 22,44 13,16 27,28 44,39 74,45 165,46 238,2 9,-5 16,-11 23,-16l10 -9c15,-14 32,-37 37,-60 -2,2 -5,4 -7,6 -3,2 -6,4 -8,5l9 -19z"/>
   <path class="fil4" d="M503 759c3,0 6,1 9,1 3,0 5,-1 9,-1 -1,4 -4,5 -9,4 -2,0 -4,0 -5,0 -4,-1 -3,-1 -4,-4zm21 0c4,0 6,0 10,0 3,-1 5,-2 8,-2 -1,4 -4,5 -8,5 -5,1 -9,1 -10,-3zm-42 -2c3,0 4,1 8,2 4,0 6,0 9,0 -1,6 -16,4 -17,-2zm10 -2c2,-1 7,0 11,0 2,0 11,0 7,3 -1,1 -8,0 -10,0 -3,0 -9,1 -8,-3zm-21 -3c3,-1 16,1 18,2 1,4 0,3 -3,3 -2,0 -4,-1 -6,-1 -6,-1 -10,0 -9,-4zm-10 1c4,0 7,3 13,3 5,0 3,0 4,1 -3,3 -4,3 -10,2 -4,-1 -7,-2 -7,-6zm84 4c3,-1 6,-1 10,-2 2,-1 6,-2 8,-2 -1,4 -3,5 -8,6 -4,1 -7,1 -10,-2zm-17 -3c0,0 1,0 1,0 0,1 0,0 1,0 1,1 0,0 1,1 1,1 1,-1 1,1 0,3 -3,2 -9,2 -3,1 -8,1 -10,0 0,-1 -1,-1 1,-2 0,-1 0,-1 1,-1 0,0 0,0 0,0 0,0 0,0 0,0l-12 0c1,-4 4,-4 9,-4 5,0 7,0 9,3l3 1c0,-2 0,-1 0,-2 1,-3 4,-3 9,-3 5,-1 6,-1 8,2l0 1c4,0 8,-2 11,-1l1 2c-2,2 -16,3 -17,3 -3,0 -3,-4 4,-4l-1 0 -11 1zm-28 0l-18 -2c2,-3 5,-3 9,-2 5,0 7,0 9,4zm-52 -5l9 3c0,1 -1,2 -3,2 -2,0 -2,0 -3,0 -3,-1 -2,-2 -3,-5zm127 4c-3,1 -7,2 -9,-1l10 -3 -1 4zm-20 -1c1,-2 10,-4 14,-5 2,-1 3,-2 4,0 -1,3 -4,3 -9,5 -6,2 -9,4 -9,0zm-105 -3c-1,-5 7,-2 9,-1 2,1 9,2 10,3 1,5 -18,-2 -19,-2zm95 3c1,-4 3,-5 7,-6 3,0 8,-2 10,2l-17 4zm-66 0c-1,0 -15,-3 -17,-4 2,-3 5,-3 9,-2 4,1 7,2 8,6zm-31 -7c1,1 1,1 0,2 0,0 -1,1 -1,-1 0,-1 0,-1 1,-1zm128 3c-1,-2 -1,-2 0,-3 1,1 1,-2 0,1 0,1 0,1 0,2zm-11 -1c0,-2 2,-4 4,-5 1,-1 5,-2 7,-2l1 3 -12 4zm-117 -7c2,0 4,1 6,2 3,1 4,2 5,5 -5,0 -8,-3 -12,-4l1 -3zm151 -1l4 -2 -1 4c-2,0 -2,0 -3,-2zm-178 -2c1,1 3,1 4,2 -1,1 -2,2 -3,2 -1,-1 -1,-2 -1,-4zm172 -1c-2,-6 4,-5 8,-3 -1,1 -2,1 -4,2 -1,0 -3,1 -4,1zm-170 -3c3,-2 6,-2 8,0 0,2 1,4 -5,1 -2,0 -2,0 -3,-1zm186 0c-4,1 -7,5 -11,6l-3 -2c2,-2 5,-3 8,-4 2,-1 9,-6 9,-2 0,2 -1,1 -3,2zm-190 -2l10 6 -3 2c-3,-1 -5,-3 -8,-4 -3,-1 -7,-3 -6,-6 1,0 0,0 2,0 1,0 3,2 5,2zm-14 -3c2,3 9,6 13,7 -3,4 -7,1 -10,0 -3,-2 -6,-4 -6,-9 2,1 2,1 3,2zm204 5c3,0 10,-4 11,-6l2 0c-1,5 -2,5 -6,8 -5,2 -5,3 -10,1 2,-3 1,0 3,-3zm-162 26l-11 -4c-3,4 -8,13 -11,16l4 -19 -11 -5c2,-2 14,-9 15,-10 2,-4 2,-16 5,-20l4 14 13 -7 -9 15c-3,5 0,9 1,20zm122 -35l13 7c0,0 0,1 0,-1 1,-3 3,-11 4,-13 6,22 1,17 12,25 2,1 5,4 8,5l-11 5 4 19c-1,0 -2,-2 -3,-4l-8 -11c-3,0 -8,2 -12,3 1,-3 2,-7 2,-11 1,-5 2,-5 0,-9 -2,-3 -3,-5 -5,-8 -1,-2 -3,-5 -4,-7zm49 -1c-4,2 -12,8 -15,8 1,-4 3,-5 6,-7 2,-1 6,-4 9,-2 1,1 0,0 0,1zm-199 8l-1 0c0,0 0,0 0,-1 -3,-2 -7,-4 -11,-6 0,0 0,0 0,0l-2 -2c5,-1 6,0 10,2 3,2 5,3 6,7l-2 0zm-12 -7c3,3 3,1 3,4 -2,2 -2,1 -5,0l-1 -1c-5,-4 -11,-6 -9,-9 3,-1 8,5 12,6zm-18 -8c1,4 9,6 11,9 -4,2 -7,-1 -10,-2 -3,-3 -5,-4 -5,-9l4 2zm116 7l0 -245 2 0c1,6 0,198 0,221 0,6 -1,26 2,30 -1,-2 -1,-2 -1,-5 17,-1 14,4 15,-36l43 7 13 31c-3,-1 -6,-3 -9,-5 -2,-1 -6,-3 -8,-4 2,3 4,6 6,10 2,3 5,8 6,11 -2,1 -5,2 -7,3 -1,0 -2,1 -2,2 -1,1 -1,0 -1,1l-1 2c-4,-3 -6,-3 -11,-2 -8,2 -6,3 -9,6 -5,-4 -16,-4 -20,2 0,0 0,0 0,0l-1 0c-3,-3 -4,-3 -10,-3 -7,0 -7,0 -10,3 0,0 0,0 -1,0 -3,-3 -3,-3 -9,-4 -8,-1 -7,0 -11,2 -2,-4 -4,-4 -9,-5 -7,-2 -6,-2 -11,1 -3,-8 -7,-5 -12,-8l13 -21c-6,2 -11,7 -17,9 1,-2 12,-30 13,-31l43 -7c3,14 -3,32 4,35zm-116 -13c5,-2 5,0 9,2 3,2 5,4 5,8 -4,0 -5,-4 -11,-7 -3,-2 -3,-2 -3,-3zm254 -1c-1,1 -6,4 -7,6l3 -1c0,5 -3,6 -5,9 -1,0 -3,2 -4,2 -2,1 -4,1 -6,0 0,0 0,-1 1,-1l2 -2 -6 4c-1,1 0,0 -1,1 -2,1 -4,2 -4,3 -2,0 -4,-2 -1,-4l3 -2c1,-1 0,0 0,-1l6 -4 -3 2c0,-7 8,-12 12,-12 2,0 2,0 2,2 2,-1 1,0 3,-2 0,-1 0,-1 1,-1 1,-1 0,0 1,-1 2,-1 3,-4 5,-2 0,0 1,0 0,2 0,1 -1,0 -2,2zm-259 -2c0,0 0,0 0,0 0,2 8,5 9,9 -2,2 -2,1 -4,0 0,0 0,0 0,0 -1,0 -1,-1 -1,-1 0,0 0,0 -1,0l-7 -7c-2,-1 -3,-1 -2,-3 2,-1 4,1 6,2zm259 2c5,-2 9,-9 11,-10 1,5 -1,7 -3,9 -2,2 -5,6 -10,4 1,-1 0,-1 1,-2l1 -1zm-3 -2l-2 1c-1,-5 1,-6 3,-8 1,-1 6,-6 9,-4l1 1c1,-2 3,-4 4,-5 2,-2 3,-4 6,-1 -1,2 -5,5 -6,7 -2,1 -5,6 -8,5 -2,-3 0,-2 1,-4 -3,1 -2,1 -4,3 -1,1 -2,1 -2,2l-2 3zm27 -24l1 0c2,5 -1,7 -3,10 -2,3 -3,5 -9,4 2,-2 4,-4 6,-6 1,-1 5,-6 5,-8zm-15 10c-1,-4 2,-7 4,-9 2,-2 3,-4 8,-4 0,1 -1,2 -2,3 -8,7 -7,11 -10,10zm-284 -2c0,-2 -2,-4 -4,-6 -2,-2 -4,-2 -4,-5 5,-1 6,1 8,4 3,4 4,3 3,9 -2,-1 -1,-1 -3,-2zm-23 -24c0,2 2,4 3,6 1,2 2,3 4,5 -1,-3 -2,-3 -1,-5 1,-2 2,0 4,2 1,1 2,3 3,4 1,2 5,6 5,9 -3,1 -3,0 -5,-2 1,3 6,8 9,9 -2,-2 -4,-3 -4,-5 1,-1 2,-1 3,-1 1,1 0,0 1,1 1,1 0,1 1,1l6 7c0,-1 0,0 0,-1 0,0 -1,-1 -1,-2 6,0 6,2 9,4 2,2 5,4 4,9 -1,0 -1,0 -2,-1l-1 -1c-2,-4 -5,-6 -9,-8 2,2 3,2 3,5l-2 1c0,0 0,0 0,0l6 6c2,1 1,1 1,2 -4,2 -6,-2 -8,-4 -3,-2 -5,-3 -5,-8 3,0 1,1 5,3l-6 -7c0,0 -1,0 -1,0 0,0 0,1 0,1 -4,2 -7,-2 -8,-4 -2,-2 -5,-4 -4,-9 1,0 1,0 2,0l-4 -4c0,2 1,0 0,1 -3,1 -13,-8 -10,-15 1,0 1,0 1,0 0,0 0,1 0,1l1 0zm4 -1l-1 -3c5,0 6,2 7,5 3,4 4,4 3,10 -4,-2 -3,-6 -8,-11l-1 -1zm330 1c0,0 0,0 0,0l1 -1c3,3 0,7 -1,9 -2,3 -3,6 -8,6l-1 -1c-1,0 0,0 -1,0 0,0 -1,1 -1,1 0,1 0,2 -1,2 -2,3 -3,7 -6,5 0,-1 -2,0 1,-4l7 -10c-2,2 -1,2 -3,3 -2,-4 0,-5 2,-9 2,-3 3,-5 7,-5l1 1c3,-3 3,-9 8,-9 1,2 -1,4 -2,6 -1,2 -3,4 -3,6zm-330 -1l1 3c0,1 0,5 -4,0 0,-1 0,-1 0,-1 -1,-1 -1,0 -1,-1l-3 -5c-1,-3 -4,-4 -3,-7 3,-1 3,0 4,1l6 10zm-13 -15c0,3 3,7 5,10l1 1c0,2 0,0 -1,1 -3,0 -4,-1 -6,-4 -1,-1 -2,-4 -3,-6l2 -3 2 1zm352 -1c1,0 1,0 1,-1l3 4c-3,6 -5,10 -10,10 1,-4 6,-7 6,-13zm-2 -4c0,0 0,0 1,0 1,2 1,1 1,4l-1 3c-6,0 -2,-4 -1,-7zm-350 5l-1 -2c0,-1 0,-1 1,-2l1 -1c1,2 5,6 1,7l-2 -2c0,0 0,0 0,0zm350 -5c0,0 -1,0 -1,0 0,1 0,1 0,1l-1 2c-2,3 -3,5 -4,8l-3 2c-2,-3 0,-5 2,-8 1,-4 2,-5 6,-6 1,0 1,0 1,1zm-348 -1c4,0 5,2 7,6 2,3 4,7 1,9 -3,-2 -4,-8 -6,-11 -3,-3 -1,-3 -2,-4zm318 -9c3,2 15,4 20,5l6 2c0,0 0,0 0,0 -1,2 -2,2 -3,4 -6,9 -4,10 -4,14 -5,0 -6,3 -8,6 -4,4 -4,4 -3,11 -7,0 -7,2 -10,5 -2,3 -4,5 -4,10 -6,0 -7,2 -10,5 -3,2 -5,3 -5,10 -6,-1 -7,0 -10,3 -3,2 -6,3 -6,9 -6,-1 -6,-1 -11,2 -4,2 -6,3 -7,9 -5,-2 -4,-1 -9,-1l-6 -23 -5 19c-2,-5 -5,-11 -7,-16 -1,-3 -6,-12 -6,-16l32 -44 38 -27c2,-2 4,-3 6,-4l31 12c-2,2 -15,5 -19,5zm-308 -5l26 -10c5,-2 5,-3 8,0l29 20c17,12 11,6 24,25 4,4 7,9 10,14l11 14c-1,4 -7,18 -9,23 -1,2 -1,3 -2,4 -1,3 -1,3 -2,4l-5 -18 -6 24c-5,-1 -4,-2 -10,0 0,-5 -2,-7 -6,-9 -4,-2 -5,-3 -11,-2 0,-7 -9,-14 -17,-12 0,-6 -2,-8 -4,-10 -4,-3 -4,-5 -11,-5 1,-6 -1,-6 -3,-10 -3,-3 -5,-5 -10,-5 1,-6 0,-7 -3,-11 -2,-3 -3,-6 -9,-6 2,-6 2,-6 -1,-10 -2,-4 -2,-5 -5,-8 3,-2 20,-4 25,-6 -3,-1 -6,-2 -9,-3l-8 -2c-2,-1 -1,0 -2,-1zm345 -3l-2 -1c0,-1 -1,0 1,-1 0,0 1,0 2,0l-1 2zm-20 -8c26,13 9,12 36,7l-4 11 16 11c0,0 0,0 0,0l-19 -4 -5 11c-3,-2 -8,-13 -11,-14 -4,-2 -15,-3 -20,-6 4,0 12,-2 15,-3l-8 -13zm-330 13l14 3c-4,3 -14,3 -19,6 -2,0 -9,12 -11,14l-6 -10c-3,0 -6,1 -9,1 -2,1 -3,1 -4,1 -3,1 -4,2 -5,1 3,-1 12,-8 16,-10l-4 -12c8,1 15,5 19,2 3,-2 5,-3 8,-5 3,-1 6,-3 8,-4l-7 13zm351 -5c1,-3 4,-15 7,-11 0,2 -1,4 -2,7 -1,3 -1,3 -5,4zm10 -19l1 -2c3,3 2,5 1,10 -1,4 -2,6 -6,7 0,-3 1,-4 2,-7 1,-3 1,-5 2,-8zm-385 -2c0,1 0,-1 1,4 1,3 2,10 4,12 0,-3 -2,-4 -1,-7 3,0 3,1 4,4 1,2 1,4 2,6 2,-1 2,-1 4,1l-2 1c-2,-1 0,0 -1,-2l0 1c-1,0 0,0 -1,0 0,0 -3,0 -3,0l-1 -3c-4,1 -6,-3 -7,-6 -1,-5 -2,-7 1,-11zm5 -1c4,1 5,3 6,7 1,5 2,6 -1,10 -2,-2 -2,-5 -2,-9 -2,-4 -3,-4 -3,-8zm380 3c-1,2 -1,3 -2,5 -3,0 -3,-2 -3,-4 -3,2 -2,9 -4,13 -4,-3 -2,-6 -1,-10 1,-4 1,-6 6,-7l0 2c2,-7 0,-13 5,-12 1,3 -1,9 -1,13zm1 -5c0,-4 1,-5 2,-9 1,-3 1,-6 1,-9 4,2 4,5 3,10 -1,5 -2,7 -6,8zm-386 -1l-1 1c-4,-2 -4,-4 -5,-8 -1,-5 -1,-8 3,-10 0,5 1,13 3,17zm381 0c-3,-3 -3,-5 -2,-10 1,-4 1,-7 5,-8 0,4 -1,5 -1,9 -1,3 -1,7 -2,9zm-381 0c0,-3 -1,-5 -1,-7 5,-2 3,2 5,5 -1,-3 -1,-5 -1,-8 -1,-5 -1,-1 -2,-8 4,1 5,3 6,8 0,4 1,7 -2,9l-1 -1c0,0 0,0 0,0 0,4 2,9 1,12l-2 1c-3,-3 -2,-8 -3,-11zm387 -10l-2 0c-1,-3 0,-16 1,-18 5,-2 3,5 3,7 -1,4 -1,8 -2,11zm2 -10c0,-4 1,-5 1,-8 1,-4 0,-7 0,-10 4,1 4,4 4,9 0,5 0,7 -5,9zm-3 -29c5,-2 3,5 4,12l0 5c-1,2 -1,0 -1,1l-2 0c-1,-2 -1,-15 -1,-18zm-390 26l1 0c-1,-4 -2,-6 2,-5 1,2 2,13 2,16 0,5 -5,3 -4,-9 -1,1 0,0 -1,1 -4,-3 -4,-3 -4,-9 -1,-5 -1,-8 3,-9 0,2 0,5 0,7 0,2 1,6 1,8zm389 2c-4,-2 -4,-4 -4,-9 1,-4 1,-7 5,-8l-1 17zm0 -38l1 17c-4,-1 -4,-3 -5,-8 0,-4 0,-8 4,-9zm-384 17l-1 1c0,3 0,2 1,3 3,1 3,4 3,8 1,5 0,8 -3,9l-1 -13c0,0 0,0 0,0 0,1 0,1 0,1 -2,2 0,0 -1,1 0,1 0,0 -1,1 -3,0 -2,-4 -2,-8 0,-3 0,-7 0,-10 2,-1 2,-1 3,0 0,0 0,0 0,1 0,0 1,0 1,1 1,1 0,0 1,1l0 -13c6,2 4,14 0,17zm-6 0c-3,-1 -4,-4 -3,-8 0,-5 0,-8 4,-9 0,3 0,5 -1,9 0,3 1,5 0,8zm394 -18c4,2 5,5 5,9 0,2 1,4 0,6 -1,2 -2,3 -4,3 0,-5 0,-3 1,-5 0,-3 -2,-9 -2,-13zm-4 -10c3,-1 3,2 3,8 1,3 2,7 1,10l-2 0c-2,-2 -3,-15 -2,-18zm-388 18c-1,-3 1,-16 2,-18 4,-1 3,4 1,16 0,2 -1,3 -3,2zm385 -28l2 18c-4,-2 -4,-4 -5,-8 -1,-5 -1,-7 3,-10zm-381 18c0,-5 2,-8 3,-13 0,-1 -1,-1 0,-3 0,0 0,0 0,0 1,-2 0,-1 1,-2 3,3 2,5 2,10 -1,4 -2,7 -6,8zm385 -19c5,2 5,3 6,9 1,4 1,8 -3,9 -1,-3 0,-6 -1,-9 -1,-3 -2,-5 -2,-9zm-389 18c-4,0 -4,-5 -3,-9 1,-4 1,-8 6,-8 -2,6 -3,10 -3,17zm267 90c-16,0 -19,-6 -29,-12 -10,-6 -21,-6 -31,0l0 -117c6,-3 9,-6 20,-5 19,3 27,19 58,19 1,3 -16,102 -18,115zm-161 -115c19,-1 26,-4 40,-12 9,-5 20,-9 31,-6 3,1 7,3 9,5l0 116c-6,-3 -9,-5 -16,-4 -21,0 -25,17 -45,16l-19 -115zm282 2c0,4 3,10 1,13l-2 1c-1,-2 -4,-16 -3,-19 3,-1 2,3 4,5zm-386 13c0,-3 2,-11 3,-15 1,-3 0,-3 3,-3 1,3 -1,13 -2,16 -1,3 -1,3 -4,2zm6 -10c0,-5 3,-7 3,-13 1,-2 1,-2 2,-4 3,4 2,6 1,10 -1,5 -2,6 -6,7zm380 -3c-1,-7 -3,-10 -4,-15 4,1 5,3 6,7 1,5 2,7 -1,10l-1 -2zm-385 2c-3,-2 -3,-5 -1,-10 1,-3 2,-7 6,-7 -1,2 -2,5 -3,8 -1,3 -1,6 -2,9zm375 -20l4 0c1,4 4,7 3,11l-2 0c-2,-2 -1,-2 -3,-4 0,6 3,10 4,14 -4,-1 -5,-3 -6,-7 -1,-2 -3,-6 0,-9 1,-1 0,0 1,-1l-1 -4zm-3 0c2,-2 2,-1 3,1l-3 -1zm-361 1c0,-1 0,-2 1,-2 1,0 2,1 2,1 -3,3 -3,1 -3,1zm-7 10c-1,-3 2,-8 3,-11l4 0c-1,2 -2,4 -3,6 -1,3 -1,6 -4,5zm343 3c3,-1 8,-4 11,-6 4,-2 8,-5 11,-7l5 2c-3,6 -3,5 -1,12 3,8 4,6 6,9 -3,3 -3,5 -2,10 2,9 3,7 5,10 -3,3 -3,4 -3,10 1,2 1,4 1,6l3 3c0,1 0,1 0,1 0,0 1,0 1,0 -4,4 -5,5 -5,14 0,3 2,5 4,6 -1,1 0,0 -1,1 -4,4 -4,3 -5,9 -1,6 0,7 2,11 -4,3 -4,2 -6,8 -1,4 -2,8 1,11 -1,1 -3,2 -5,3l-22 -13c1,2 9,14 10,17l-31 -13c-1,-9 -3,-18 -5,-27 -1,-6 -4,-21 -4,-27 0,-3 9,-52 9,-53 2,-2 31,-13 31,-13l-10 16zm-319 -16l32 12c1,4 5,32 7,40 0,4 2,11 2,14 0,4 -4,21 -4,26 -2,10 -4,19 -5,28l-31 13c0,-2 3,-7 4,-9 2,-3 4,-6 6,-8 -8,3 -15,9 -22,13l-5 -3c3,-4 2,-6 1,-11 -2,-5 -2,-6 -6,-8 2,-5 3,-3 1,-12 -1,-6 -1,-6 -5,-8 3,-4 4,-4 3,-11 0,-6 -1,-8 -4,-10 3,-4 4,-3 4,-10 1,-6 1,-6 -3,-10 0,-1 1,-1 1,-1 0,1 -1,0 1,-1 3,-2 3,-3 3,-8 2,-5 1,-8 -1,-11 4,-2 4,-3 6,-8 1,-6 1,-7 -1,-12l5 -2 21 13 -10 -16zm358 -10l4 12 -17 -3 -18 10c1,-4 5,-8 7,-13l-15 -3c6,-2 15,-3 20,-6 3,-1 7,-10 10,-13 1,-1 1,-1 1,-1l5 11 20 -4c-1,0 -6,4 -8,5 -3,1 -6,4 -9,5zm-403 -10l19 4 4 -8c0,-1 1,-2 1,-2 1,-1 0,0 1,-1 1,1 9,14 10,14 3,2 16,4 21,6l-15 3 7 13c-6,-3 -12,-7 -18,-10l-17 3 4 -12 -17 -10zm36 3c-2,0 -1,1 -2,-1 -1,-1 -1,-2 0,-5 1,-1 1,-2 4,-1 0,3 -2,5 -2,7zm347 -1c0,-3 -1,-3 -1,-5 3,-3 5,3 5,4l-2 2 -2 -1zm0 0l1 2c-5,0 -5,-2 -7,-6 -2,-3 -4,-5 -2,-9 4,2 3,7 8,13zm-347 1l1 -2c3,-4 4,-6 5,-10 0,0 0,-1 1,-1l1 -1c2,4 1,6 -1,9 -2,4 -2,6 -7,6l0 -1zm344 -17c7,0 10,10 10,10 0,0 -2,3 -3,4 -1,-4 -2,-5 -3,-8 -2,-2 -3,-4 -4,-6zm-340 0c0,1 0,1 0,1 0,0 0,0 0,0 -1,0 -1,0 -1,0 -2,3 -4,7 -6,11l0 0c0,1 0,1 -1,1l-2 -3c1,-3 5,-12 10,-10zm332 -8c2,-2 6,5 6,7 2,2 5,6 4,9 -2,1 -3,-1 -4,-3 -2,-3 -8,-11 -6,-13zm-6 -5c2,6 6,8 8,13 -5,0 -6,-2 -8,-5 -2,-4 -3,-4 -2,-10 1,1 1,1 2,2l0 0zm5 -1c-1,-2 -1,-1 -3,-4 5,0 7,3 9,6 1,2 5,6 1,9 -2,-2 -4,-9 -7,-11zm0 0c1,2 1,2 0,4 -1,0 -2,0 -3,-1l-2 -2 -6 -8c-1,-1 -1,-1 -1,-2 -1,-2 0,-1 0,-2 3,-2 8,9 12,11zm-316 0c0,0 0,0 0,0 0,0 1,0 1,0 0,0 0,0 0,0 3,2 -3,14 -10,14l1 -2 -3 3c-1,2 -1,2 -2,4l0 0c-2,3 -1,4 -5,3 -1,-3 2,-4 3,-8l1 0c0,0 0,0 0,0l2 -4 -2 1c-2,-6 -1,-5 2,-10 2,-2 3,-5 8,-5 0,2 0,1 -1,3l7 -8c1,-2 1,-2 3,-2 3,3 -2,5 -5,11zm165 179l0 -4c6,-3 9,-5 17,-5 15,1 17,9 28,13 6,3 12,4 19,3l19 -121c-35,0 -40,-15 -61,-19 -10,-1 -13,1 -21,4l0 -27 7 -1 0 -6 21 0c-1,-1 -17,-16 -19,-27l35 -5c1,2 2,4 4,6 3,5 25,36 27,39l45 31c-1,10 -5,28 -7,40 -3,18 -3,10 0,28l7 40 -45 32 -8 11c-3,4 -5,7 -8,11 -2,4 -5,7 -8,11 -2,3 -6,8 -8,11l-43 -7 -1 -58zm-163 -182c1,-1 2,-3 3,-4 7,-5 5,-8 9,-10 2,7 -5,15 -12,14zm233 -51c4,1 5,2 9,0 1,5 3,7 7,9 5,2 4,3 11,2 0,6 3,7 6,9 4,3 4,4 10,3 0,7 2,7 5,10 4,3 4,5 10,5 0,7 1,6 4,10 3,3 4,5 10,5 -2,6 0,7 3,11 2,3 3,5 8,6 -1,5 -1,6 1,10 6,9 3,5 7,8l-27 7 19 5 -31 12 -22 -15c-4,-3 -8,-5 -11,-8l-11 -8 -24 -33c-3,-4 -6,-8 -8,-12l13 -30c0,0 0,0 1,2l1 7c1,3 2,6 3,9l6 -24zm-187 11c5,1 7,0 11,-2 7,-4 4,-3 7,-9 5,2 4,2 9,0l1 3c0,1 0,2 0,3 1,2 1,4 2,6 1,4 1,8 3,11 0,0 0,0 1,-1 1,-2 3,-13 4,-16 1,1 12,28 13,30l-32 45 -39 28c-2,1 -4,3 -6,3 -1,0 -22,-9 -27,-11l-4 -2 19 -5 -26 -6c5,-3 10,-11 8,-17 2,-2 2,-1 5,-3 4,-4 8,-8 6,-15 7,0 6,-2 9,-5 3,-3 5,-5 4,-10 8,0 16,-7 15,-15 6,1 8,0 11,-3 4,-3 5,-3 6,-9zm251 24l1 -1c2,0 4,0 5,1 5,4 8,7 6,13 -2,-2 -2,-3 -4,-5 -2,-3 -2,-4 -4,-5 2,4 -2,5 -3,2 -2,0 -1,0 -1,1 3,5 6,6 8,10 -5,0 -6,-2 -8,-4 -2,-3 -4,-3 -4,-8 1,-3 0,-1 1,-3 -2,-1 -1,-1 -2,-2 -1,0 -1,-1 -1,-1 -2,-1 -1,0 -2,-1 -1,-2 -1,-2 -1,-2 -1,-2 0,-2 0,-3 4,0 5,4 8,7 1,1 1,0 1,1zm-8 -3c2,2 2,1 3,3 -5,1 -7,0 -9,-3 -3,-3 -5,-4 -4,-9 3,1 2,3 5,5 1,1 3,4 5,4zm-265 -7c2,-1 2,-2 3,-2 1,5 -1,7 -4,9 -2,2 -4,5 -9,3 3,-3 9,-6 10,-10zm253 -9c1,1 5,5 7,5l-2 -2c7,-1 6,1 9,4 3,2 6,4 4,8 -1,0 0,0 -1,0l-6 -7c0,0 0,0 -1,0 0,0 0,1 0,1l-1 2c-4,-1 -9,-7 -13,-9 0,0 -4,-3 0,-4 1,0 3,1 4,2zm-4 2c0,0 0,0 1,1 1,1 1,0 2,2 -5,2 -6,0 -9,-2 -3,-2 -5,-3 -5,-9 4,2 7,7 11,8zm-243 2l-6 5c-2,1 -3,2 -5,1 0,-2 -1,-1 0,-2l1 -2c-1,1 -3,3 -4,4l-4 5c2,-2 4,-5 6,-3 0,3 -4,6 -6,8 -3,3 -6,8 -8,4l0 -2c0,1 -6,8 -7,10 -1,-1 -1,-1 -1,-2 -1,-5 6,-11 8,-12 0,0 2,0 2,0 2,0 2,1 2,1 0,0 1,0 1,0l2 -3 0 -1c-2,-3 1,-6 3,-8 2,-2 5,-5 9,-4l0 1c3,-1 7,-7 10,-6 2,2 1,2 -1,4 2,0 5,-2 6,-4 3,-1 2,-3 6,-4 0,6 -2,7 -6,9 -1,1 -3,2 -4,3 -2,0 -5,0 -4,-2zm247 -4c-1,-1 0,-1 -1,-2 -2,-2 -6,-4 -8,-6 -2,-1 -2,0 -3,-2 5,-1 7,0 10,3 3,2 5,3 5,8l-3 -1zm-251 1c0,-6 2,-6 5,-8 3,-3 5,-5 9,-3 0,1 -6,5 -7,6 -4,3 -4,4 -7,5zm228 -15c2,-1 8,3 10,4 5,4 7,4 6,7 0,0 0,0 0,0 -2,0 -1,1 -3,0 -1,-1 -1,-1 -2,-2 -3,-2 -13,-7 -11,-9zm-208 6c-2,1 -5,4 -8,5 -2,1 -2,-1 -2,-1 -2,-2 5,-5 9,-8 0,0 1,0 1,-1l1 0c2,-1 2,-2 4,-1 1,4 -2,3 -5,6zm203 -6c2,3 8,4 10,7 -3,2 -14,-2 -15,-9 3,0 3,0 5,2zm-203 6c2,-1 6,-3 8,-4 5,-3 4,-4 8,-5 -1,6 -3,6 -6,8 -3,2 -6,4 -10,2l0 -1zm189 -13c2,1 5,2 6,3 -3,2 -4,2 -7,0 0,-1 0,-1 1,-3zm-171 3c1,-1 2,-1 3,-2 2,0 3,-1 5,-1l0 4c-3,0 -5,1 -8,-1zm191 2c-2,-2 -6,-3 -8,-5 3,-3 8,0 10,2 4,2 6,2 6,7 -4,0 -2,-1 -8,-4zm-208 3l-4 1c0,-4 2,-6 5,-7 4,-2 5,-4 11,-2 -1,1 1,0 -4,2 -2,1 -7,4 -8,6zm192 -11c2,1 6,3 8,4 3,2 7,2 5,6 -2,0 -15,-6 -16,-8l3 -2zm-170 2c-1,2 -14,9 -16,7 -2,-2 5,-4 6,-5 5,-3 7,-5 9,-3 0,0 0,0 1,0l0 1zm33 -9c4,3 6,3 12,1 5,-1 6,-1 8,-5 5,4 9,3 16,2 1,12 4,19 -2,30 -2,4 -4,6 -6,12 -2,6 -1,10 0,16l-31 -5 -13 -31 17 9 -13 -21c7,-2 9,-2 12,-8zm142 9c-1,0 -1,-1 -2,-1 -2,-1 -1,0 -2,-2l3 -1 1 4zm-181 -4c2,0 1,0 2,1 -1,2 -2,2 -3,3l1 -4zm154 -7c0,1 0,1 1,2 0,3 0,1 -1,2 -1,-2 -1,-2 0,-4zm-117 1c-1,5 -6,6 -11,7l-1 -3 12 -4zm-12 1c0,-1 1,-1 1,-1 1,1 1,1 0,2 -1,0 -1,2 -1,-1zm83 57c-1,-7 -3,-10 -3,-18 0,-7 2,-11 2,-18 0,-11 -8,-17 -9,-25 1,-1 1,-1 2,-2 3,2 1,3 9,4 8,1 7,1 12,-2 2,3 1,4 8,5 7,2 7,2 12,-1 2,3 1,4 4,6 3,1 6,1 8,2l-13 21c2,0 7,-3 9,-5 3,-1 5,-3 8,-4l-13 30c-2,2 -31,6 -36,7zm15 -63c0,0 15,3 17,4 -4,4 -6,3 -10,2 -4,-1 -7,-2 -7,-6zm-83 4c3,-1 5,-1 9,-2 3,-1 5,-2 8,-2 -1,4 -3,5 -8,6 -4,1 -7,1 -9,-2zm20 -4c1,0 0,-1 4,-1 1,0 2,0 4,0 2,0 5,-1 7,-1l0 3c-2,1 -6,2 -8,2 -4,0 -5,-1 -7,-3zm-29 2c5,-1 11,-4 15,-4 1,3 1,3 -2,4 -4,1 -13,4 -15,3l0 -2 2 -1zm114 2c-3,0 -10,-1 -12,-3 0,-5 8,0 16,0l-4 -1c0,-1 0,-1 2,-2 6,-2 6,3 7,5l-5 -1c0,0 1,0 1,0l0 0c1,1 1,0 1,1 1,1 0,2 0,2 -2,1 -3,0 -6,0l5 2c2,1 4,1 5,2l-1 3c-6,-1 -10,-2 -11,-7l2 -1zm-114 -2l-5 1c0,-3 0,-4 3,-5 3,0 5,0 6,2l-4 2zm75 -4c4,1 9,1 13,1 -1,4 -4,4 -9,3 -4,0 -6,0 -8,-3l-4 -1 0 1c-2,-1 -1,1 -1,-1 0,0 0,-1 0,-2l0 -2 0 -3c1,-1 0,0 1,0l1 2 1 1c3,-1 8,-1 9,0 1,2 1,1 0,3 -1,1 -2,0 -3,1zm22 -5c2,-1 4,0 6,0 4,1 7,2 7,6 -4,0 -4,-1 -8,-2l-9 -2c1,-1 0,-1 2,-2 1,0 1,0 2,0zm-89 6c1,-4 3,-5 8,-6 4,-1 7,-1 9,2 0,0 0,0 0,0l-3 1c9,0 15,-4 15,1 -3,1 -16,4 -19,3 0,-4 1,-2 4,-4 -6,0 -9,2 -14,3zm81 -5c1,1 0,0 0,2 3,0 5,0 7,0 4,1 4,1 3,4 -1,0 -17,-1 -18,-3 -1,-3 2,-2 5,-2l1 0c-1,0 -4,-1 -7,-2 -3,0 -6,0 -9,0 2,-4 5,-4 9,-3 5,0 8,0 9,4zm-45 0l0 3c-3,1 -5,1 -5,-2l2 -1c-1,-1 1,-1 -2,-1l-10 2c2,-7 13,-6 15,-5 0,2 1,2 0,3l0 1zm-79 11l11 -6 -4 -18 11 16 11 -4c-1,10 -4,15 -1,20l9 15c-4,-1 -10,-6 -13,-7l-4 14c-2,-3 -3,-15 -5,-20 -1,-2 -14,-9 -14,-10 0,0 -1,0 -1,0zm170 -8c1,-2 9,-15 11,-16l-4 19 10 5c-2,2 -13,8 -14,10 -1,2 -5,18 -5,20 0,0 0,0 -1,-1l-3 -13c-4,1 -9,6 -13,7l11 -18 -4 -17 12 4zm-90 101l2 0 3 0c1,0 0,3 0,5 0,0 0,0 -1,0 -1,1 0,1 0,1l0 21c-8,-3 -13,-5 -23,-4 -21,3 -20,17 -61,19l20 121c13,2 23,-5 31,-10 10,-7 22,-9 32,-1l1 4 -1 58 -43 7c-6,-6 -30,-42 -32,-44 -2,-2 -4,-3 -6,-4 -2,-2 -4,-3 -5,-4l-34 -23c0,-9 9,-50 9,-55 0,-8 -9,-46 -9,-54 4,-4 27,-19 34,-24 15,-11 8,-3 19,-19l24 -33 31 5c1,7 1,13 -2,18 -2,3 -6,9 -10,9 5,1 10,0 15,1 1,-2 2,-4 3,-7 2,-9 0,-17 0,-26 0,-13 6,-17 7,-29 1,-12 -2,-24 0,-35 2,-5 4,-9 6,-13 2,-5 2,-10 4,-14 0,10 -6,19 -7,30 -1,12 2,24 0,36 -1,6 -3,10 -4,15 -3,17 5,35 -6,48 -2,0 -6,1 -7,0 0,0 0,-1 0,-1 0,0 0,0 0,0 -1,1 -1,1 -2,2l12 0zm-154 -23c-3,4 -5,6 -3,12 -3,1 -5,1 -7,3 -1,2 -2,5 -3,7l-2 -2c-1,-1 -1,-3 -3,-4l-6 13 -30 -6c3,3 9,6 13,8 2,1 4,3 6,4 2,1 5,3 7,4l-5 14 12 -2c-5,0 -6,5 -7,9 -2,6 -2,7 1,11 -4,4 -4,2 -6,10 -1,6 -1,8 3,11 -2,2 -3,2 -4,5 -1,2 -1,3 -1,6 -1,8 0,6 3,11 -3,3 -4,6 -3,12 0,5 1,7 5,9 -4,4 -4,5 -3,12 1,5 2,7 6,9 0,1 0,1 -1,2 -2,3 -1,6 0,10 2,6 1,6 6,9l-11 -2 5 14c-2,1 -5,3 -7,4l-19 13 30 -7 7 13 4 -6c3,5 2,10 10,10 -1,7 0,8 3,12 2,4 4,5 9,6 -1,6 1,8 4,11 3,3 4,5 10,5 0,7 2,8 5,11 4,3 4,5 11,4 0,6 3,8 6,10 7,5 4,3 11,3 0,6 3,7 7,9 5,3 6,4 12,2 0,2 1,3 1,5 -2,1 -5,3 -6,4 2,3 9,5 12,7l-6 30c3,-5 14,-22 17,-26l13 5 -1 -7c6,1 6,0 10,-2 2,5 2,5 9,7 7,1 6,1 12,-2 1,4 5,5 10,5 5,1 9,0 11,-3l2 2c2,2 6,2 9,2 6,1 8,0 11,-4 4,3 4,4 11,3 7,-1 7,-1 10,-5 4,3 6,3 12,1 8,-1 5,-2 9,-6 3,2 5,3 10,2l-2 7 14 -5 17 26 -7 -30 13 -7c-1,0 -6,-3 -6,-4 0,-1 1,-4 1,-5 5,2 8,1 12,-2 4,-2 6,-3 7,-9 6,1 7,0 11,-3 3,-3 6,-4 6,-10 8,1 16,-7 15,-15 6,1 8,-1 11,-5 2,-4 5,-4 3,-11 7,0 8,-3 10,-7 3,-4 4,-5 3,-11 6,-1 6,-4 9,-9 1,-1 1,0 1,-1 1,2 3,4 4,6l7 -13c5,1 28,7 30,6 -9,-5 -17,-11 -26,-16l5 -14 -11 2c0,0 1,0 1,0 3,-4 4,-4 5,-10 2,-6 1,-6 -2,-11 5,-2 6,-3 7,-9 1,-10 0,-6 -3,-12 4,-1 5,-5 5,-10 1,-7 0,-8 -4,-11 3,-4 5,-2 4,-11 0,-2 0,-5 -1,-7 -1,-1 -2,-2 -3,-3 -1,0 -1,0 -1,-1 4,-3 4,-6 3,-11 -1,-3 -1,-5 -2,-6 -2,-3 -3,-2 -4,-4 1,-1 2,-3 2,-5 0,-4 -3,-14 -8,-15l12 2 -5 -14c8,-6 17,-10 25,-15l-29 5 -6 -13c-2,1 -3,4 -5,6 -4,-5 -3,-9 -10,-10 1,-6 0,-7 -3,-12 -2,-3 -4,-6 -10,-6 1,-5 0,-8 -3,-11 -3,-3 -4,-6 -11,-5 1,-7 -1,-8 -4,-11 -4,-3 -4,-5 -11,-4 0,-6 -2,-7 -6,-10 -5,-4 -4,-4 -11,-3 -1,-6 -3,-7 -7,-9 -5,-3 -6,-4 -12,-2l-1 -5c2,-2 5,-3 6,-5l-13 -6 7 -30c-5,5 -13,20 -17,26l-14 -5 1 7c-5,-1 -5,0 -9,2 -3,-5 -2,-5 -8,-6 -6,-2 -10,-2 -13,1 -4,-4 -2,-4 -10,-5 -6,-1 -6,-1 -10,2 -1,1 0,0 -1,1l-3 -3c1,-10 2,-14 0,-25 -1,-4 -4,-18 -7,-19 -5,28 -4,23 -15,44 -4,-1 -7,-1 -11,0 -5,1 -5,2 -7,5 -6,-3 -4,-3 -12,-2 -5,1 -8,3 -9,7 -4,-2 -4,-3 -10,-2l1 -7 -13 5 -17 -26 6 30 -13 7 7 4 -1 5c-7,-2 -7,-1 -12,2 -4,2 -7,4 -7,9 -6,-1 -7,0 -11,3 -4,3 -6,4 -6,10 -8,-1 -16,7 -16,15 -6,0 -7,2 -10,5 -3,4 -5,4 -4,11 -6,1 -7,3 -9,6z"/>
   <path class="fil2" d="M491 469c-1,-2 -2,2 0,-3 2,2 0,-2 1,1 0,2 -1,0 -1,2zm11 159c-6,-2 -7,-5 -16,-4 -20,0 -21,17 -43,17 -2,-4 1,-4 -4,-5 -1,-1 0,0 -1,-1l-20 -121c41,-2 40,-16 61,-19 10,-1 15,1 23,4l0 -21 -4 0c-1,-3 0,-3 0,-6l-12 0c1,-1 1,-1 2,-2 0,0 0,0 0,0 0,0 0,1 0,1 1,1 5,0 7,0 11,-13 3,-31 6,-48 1,-5 3,-9 4,-15 2,-12 -1,-24 0,-36 1,-11 7,-20 7,-30 -2,4 -2,9 -4,14 -2,4 -4,8 -6,13 -2,11 1,23 0,35 -1,12 -7,16 -7,29 0,9 2,17 0,26 -1,3 -2,5 -3,7 -5,-1 -10,0 -15,-1 4,0 8,-6 10,-9 3,-5 3,-11 2,-18l-31 -5 -24 33c-11,16 -4,8 -19,19 -7,5 -30,20 -34,24 0,8 9,46 9,54 0,5 -9,46 -9,55l34 23c1,1 3,2 5,4 2,1 4,2 6,4 2,2 26,38 32,44l43 -7 1 -58z"/>
   <path class="fil4" d="M57 382c2,-1 4,-4 6,-6 7,-8 17,-17 25,-25 1,-1 2,-2 3,-3 3,-3 26,-24 29,-28l11 -9c5,-4 15,-15 19,-18 8,-6 22,-19 31,-26 1,-1 1,-1 2,-1l19 -16c2,-2 4,-3 7,-6 2,-1 4,-3 7,-5 1,-1 2,-2 3,-3 1,-1 3,-2 4,-2 16,-14 33,-25 50,-38 13,-10 31,-21 45,-31 10,-6 20,-12 31,-19 24,-17 71,-42 96,-55 6,-4 64,-33 67,-33 2,0 61,30 67,33 53,29 108,60 157,95 25,17 49,34 73,53 10,8 25,20 34,28 3,2 5,4 7,6l14 12c8,7 16,13 24,20 1,1 2,2 3,3l20 18c1,2 1,2 3,4 1,1 2,2 3,2 7,7 32,32 38,38l24 25c-1,30 -21,126 -27,154 -11,49 -25,95 -40,142 -15,45 -33,88 -51,131 -10,22 -33,70 -44,91 -2,4 -15,28 -16,29 -22,5 -46,8 -68,11 -23,4 -47,6 -71,9 -124,13 -248,9 -372,-8 -22,-4 -44,-8 -67,-12 -1,0 -14,-26 -16,-29 -5,-10 -10,-20 -15,-30 -64,-126 -111,-269 -136,-408 -4,-26 -9,-53 -12,-79l13 -14zm454 -329c-19,7 -78,38 -97,49 -6,3 -12,7 -19,10 -24,14 -49,30 -72,44 -12,8 -24,16 -35,24 -17,12 -34,24 -51,36l-33 26c-5,4 -10,9 -16,13 -12,10 -27,23 -39,33 -10,8 -22,20 -31,28l-15 14c-8,7 -15,14 -22,21 -6,5 -10,10 -15,15 -7,7 -15,16 -22,22 -5,5 -5,6 -4,10 4,34 9,67 16,101 17,90 46,186 79,270 22,53 48,108 75,159 1,3 3,6 5,9 6,12 0,9 30,14 183,32 366,31 549,-3 14,-2 8,2 21,-22 7,-12 14,-25 20,-38 7,-13 13,-27 19,-40 28,-62 44,-101 66,-167 25,-74 44,-156 57,-235 1,-7 8,-46 7,-51 0,-2 -4,-6 -6,-8l-21 -22c-9,-8 -20,-20 -30,-29 -6,-7 -19,-19 -26,-25l-7 -7c-9,-8 -20,-16 -28,-24l-64 -52c-51,-40 -118,-84 -175,-116 -13,-7 -25,-14 -38,-21 -18,-10 -48,-25 -68,-35 -3,-1 -8,-4 -10,-3z"/>
   <path class="fil2" d="M586 635c-1,0 -1,0 -1,0 0,1 -2,-1 -4,6 -15,-1 -19,-7 -28,-12 -10,-7 -21,-7 -31,-1l1 58 43 7c2,-3 6,-8 8,-11 3,-4 6,-7 8,-11 3,-4 5,-7 8,-11l8 -11 45 -32 -7 -40c-3,-18 -3,-10 0,-28 2,-12 6,-30 7,-40l-45 -31c-2,-3 -24,-34 -27,-39 -2,-2 -3,-4 -4,-6l-35 5c2,11 18,26 19,27l-21 0 0 6 -7 1 0 27c8,-3 11,-5 21,-4 21,4 26,19 61,19l-19 121z"/>
   <path class="fil2" d="M441 630c20,1 24,-16 45,-16 7,-1 10,1 16,4l0 -116c-2,-2 -6,-4 -9,-5 -11,-3 -22,1 -31,6 -14,8 -21,11 -40,12l19 115z"/>
   <path class="fil2" d="M583 630c2,-13 19,-112 18,-115 -31,0 -39,-16 -58,-19 -11,-1 -14,2 -20,5l0 117c10,-6 21,-6 31,0 10,6 13,12 29,12z"/>
   <path class="fil5" d="M357 513l-21 -13 -5 2c2,5 2,6 1,12 -2,5 -2,6 -6,8 2,3 3,6 1,11 0,5 0,6 -3,8 -2,1 -1,2 -1,1 0,0 -1,0 -1,1 4,4 4,4 3,10 0,7 -1,6 -4,10 3,2 4,4 4,10 1,7 0,7 -3,11 4,2 4,2 5,8 2,9 1,7 -1,12 4,2 4,3 6,8 1,5 2,7 -1,11l5 3c7,-4 14,-10 22,-13 -2,2 -4,5 -6,8 -1,2 -4,7 -4,9l31 -13c1,-9 3,-18 5,-28 0,-5 4,-22 4,-26 0,-3 -2,-10 -2,-14 -2,-8 -6,-36 -7,-40l-32 -12 10 16z"/>
   <path class="fil5" d="M676 497c0,0 -29,11 -31,13 0,1 -9,50 -9,53 0,6 3,21 4,27 2,9 4,18 5,27l31 13c-1,-3 -9,-15 -10,-17l22 13c2,-1 4,-2 5,-3 -3,-3 -2,-7 -1,-11 2,-6 2,-5 6,-8 -2,-4 -3,-5 -2,-11 1,-6 1,-5 5,-9 1,-1 0,0 1,-1 -2,-1 -4,-3 -4,-6 0,-9 1,-10 5,-14 0,0 -1,0 -1,0 0,0 0,0 0,-1l-3 -3c0,-2 0,-4 -1,-6 0,-6 0,-7 3,-10 -2,-3 -3,-1 -5,-10 -1,-5 -1,-7 2,-10 -2,-3 -3,-1 -6,-9 -2,-7 -2,-6 1,-12l-5 -2c-3,2 -7,5 -11,7 -3,2 -8,5 -11,6l10 -16z"/>
   <path class="fil5" d="M348 631c1,1 0,0 2,1l8 2c3,1 6,2 9,3 -5,2 -22,4 -25,6 3,3 3,4 5,8 3,4 3,4 1,10 6,0 7,3 9,6 3,4 4,5 3,11 5,0 7,2 10,5 2,4 4,4 3,10 7,0 7,2 11,5 2,2 4,4 4,10 8,-2 17,5 17,12 6,-1 7,0 11,2 4,2 6,4 6,9 6,-2 5,-1 10,0l6 -24 5 18c1,-1 1,-1 2,-4 1,-1 1,-2 2,-4 2,-5 8,-19 9,-23l-11 -14c-3,-5 -6,-10 -10,-14 -13,-19 -7,-13 -24,-25l-29 -20c-3,-3 -3,-2 -8,0l-26 10z"/>
   <path class="fil5" d="M405 406c-1,6 -2,6 -6,9 -3,3 -5,4 -11,3 1,8 -7,15 -15,15 1,5 -1,7 -4,10 -3,3 -2,5 -9,5 2,7 -2,11 -6,15 -3,2 -3,1 -5,3 2,6 -3,14 -8,17l26 6 -19 5 4 2c5,2 26,11 27,11 2,0 4,-2 6,-3l39 -28 32 -45c-1,-2 -12,-29 -13,-30 -1,3 -3,14 -4,16 -1,1 -1,1 -1,1 -2,-3 -2,-7 -3,-11 -1,-2 -1,-4 -2,-6 0,-1 0,-2 0,-3l-1 -3c-5,2 -4,2 -9,0 -3,6 0,5 -7,9 -4,2 -6,3 -11,2z"/>
   <path class="fil5" d="M592 395l-6 24c-1,-3 -2,-6 -3,-9l-1 -7c-1,-2 -1,-2 -1,-2l-13 30c2,4 5,8 8,12l24 33 11 8c3,3 7,5 11,8l22 15 31 -12 -19 -5 27 -7c-4,-3 -1,1 -7,-8 -2,-4 -2,-5 -1,-10 -5,-1 -6,-3 -8,-6 -3,-4 -5,-5 -3,-11 -6,0 -7,-2 -10,-5 -3,-4 -4,-3 -4,-10 -6,0 -6,-2 -10,-5 -3,-3 -5,-3 -5,-10 -6,1 -6,0 -10,-3 -3,-2 -6,-3 -6,-9 -7,1 -6,0 -11,-2 -4,-2 -6,-4 -7,-9 -4,2 -5,1 -9,0z"/>
   <path class="fil5" d="M656 636c4,0 17,-3 19,-5l-31 -12c-2,1 -4,2 -6,4l-38 27 -32 44c0,4 5,13 6,16 2,5 5,11 7,16l5 -19 6 23c5,0 4,-1 9,1 1,-6 3,-7 7,-9 5,-3 5,-3 11,-2 0,-6 3,-7 6,-9 3,-3 4,-4 10,-3 0,-7 2,-8 5,-10 3,-3 4,-5 10,-5 0,-5 2,-7 4,-10 3,-3 3,-5 10,-5 -1,-7 -1,-7 3,-11 2,-3 3,-6 8,-6 0,-4 -2,-5 4,-14 1,-2 2,-2 3,-4 0,0 0,0 0,0l-6 -2c-5,-1 -17,-3 -20,-5z"/>
   <path class="fil5" d="M509 729l-2 0c-1,0 -2,-1 -1,-2l-1 -4c-7,-3 -1,-21 -4,-35l-43 7c-1,1 -12,29 -13,31 6,-2 11,-7 17,-9l-13 21c5,3 9,0 12,8 5,-3 4,-3 11,-1 5,1 7,1 9,5 4,-2 3,-3 11,-2 6,1 6,1 9,4 1,0 1,0 1,0 3,-3 3,-3 10,-3 6,0 7,0 10,3l1 0c0,0 0,0 0,0 4,-6 15,-6 20,-2 3,-3 1,-4 9,-6 5,-1 7,-1 11,2l1 -2c0,-1 0,0 1,-1 0,-1 1,-2 2,-2 2,-1 5,-2 7,-3 -1,-3 -4,-8 -6,-11 -2,-4 -4,-7 -6,-10 2,1 6,3 8,4 3,2 6,4 9,5l-13 -31 -43 -7c-1,40 2,35 -15,36 0,3 0,3 1,5z"/>
   <path class="fil2" d="M330 722c-2,-3 -4,-7 -7,-11 3,11 24,40 31,48 12,16 24,27 40,40 50,38 119,54 184,29 21,-9 48,-24 64,-40 6,-6 12,-11 18,-17 10,-12 36,-46 40,-58 -1,0 -16,23 -24,33 -8,8 -13,12 -18,19 -3,3 -7,6 -10,9 -7,5 -14,11 -22,16 -72,47 -160,47 -230,-1 -12,-8 -22,-16 -32,-26 -11,-11 -25,-28 -34,-41z"/>
   <path class="fil4" d="M684 793c2,-1 5,-3 8,-5 2,-2 5,-4 7,-6 -5,23 -22,46 -37,60l-10 9c-7,5 -14,11 -23,16 -73,44 -164,43 -238,-2 -17,-11 -31,-23 -44,-39 -9,-11 -20,-31 -22,-44l11 9c2,1 3,2 4,3 0,-2 -3,-6 -4,-9 -10,-23 -19,-56 -18,-81 1,1 0,1 1,2 0,0 1,1 1,2l13 23c13,22 17,24 30,40 4,5 21,21 27,25 28,23 70,45 119,45l6 0c66,0 124,-40 160,-86 7,-10 18,-26 24,-37 1,-4 5,-12 7,-14 0,23 -5,48 -13,70l-9 19zm-361 -82c3,4 5,8 7,11 9,13 23,30 34,41 10,10 20,18 32,26 70,48 158,48 230,1 8,-5 15,-11 22,-16 3,-3 7,-6 10,-9 5,-7 10,-11 18,-19 8,-10 23,-33 24,-33 -4,12 -30,46 -40,58 -6,6 -12,11 -18,17 -16,16 -43,31 -64,40 -65,25 -134,9 -184,-29 -16,-13 -28,-24 -40,-40 -7,-8 -28,-37 -31,-48zm365 77c1,-3 3,-7 5,-10 10,-26 16,-54 14,-82 -1,1 -6,10 -7,12 -9,16 -11,17 -21,30 -4,7 -18,21 -24,26l-22 18c-70,51 -157,55 -231,8 -23,-14 -46,-35 -62,-57 -3,-4 -6,-8 -8,-12 -3,-4 -5,-8 -8,-12 -2,-3 -5,-11 -8,-13 0,25 3,49 11,72l8 20c-2,-2 -5,-4 -7,-5l-6 -6c14,70 102,124 190,124 25,0 46,-4 68,-10 32,-10 71,-32 94,-59 12,-15 25,-34 28,-55 -2,2 -10,9 -14,11z"/>
   <path class="fil5" d="M520 376c1,8 9,14 9,25 0,7 -2,11 -2,18 0,8 2,11 3,18 5,-1 34,-5 36,-7l13 -30c-3,1 -5,3 -8,4 -2,2 -7,5 -9,5l13 -21c-2,-1 -5,-1 -8,-2 -3,-2 -2,-3 -4,-6 -5,3 -5,3 -12,1 -7,-1 -6,-2 -8,-5 -5,3 -4,3 -12,2 -8,-1 -6,-2 -9,-4 -1,1 -1,1 -2,2z"/>
   <path class="fil5" d="M461 380c-3,6 -5,6 -12,8l13 21 -17 -9 13 31 31 5c-1,-6 -2,-10 0,-16 2,-6 4,-8 6,-12 6,-11 3,-18 2,-30 -7,1 -11,2 -16,-2 -2,4 -3,4 -8,5 -6,2 -8,2 -12,-1z"/>
   <path class="fil4" d="M694 350c1,1 0,0 1,1l5 3 19 -21c-2,3 -11,22 -12,26 1,1 3,3 5,4l23 -17c-1,2 -14,18 -17,23 1,1 5,3 6,4l22 -30c-1,-2 -6,-6 -8,-7 -7,5 -15,11 -21,16 1,-4 9,-17 11,-24 -3,-2 -6,-4 -8,-6 -2,1 -5,4 -6,6l-16 18c-2,1 -3,2 -4,4z"/>
   <path class="fil4" d="M189 676c2,3 11,8 15,12l-6 18c6,-3 11,-8 16,-11 5,3 12,9 16,11l-5 -18c2,-2 5,-5 7,-6 3,-2 6,-4 8,-6l-19 -1 -7 -17c-1,2 -2,6 -3,9 -1,2 -2,5 -3,8l-19 1z"/>
   <path class="fil4" d="M800 676c3,3 12,8 15,12l-5 18c5,-3 10,-8 16,-11 5,3 10,8 16,11l-6 -18c3,-4 13,-9 15,-12l-19 -1 -7 -17 -6 17 -19 1z"/>
   <path class="fil4" d="M501 291l7 1 1 -27c3,5 9,24 12,27l8 1 2 -38 -7 0 -1 25c-2,-4 -4,-9 -6,-13l-5 -12c-1,-2 -7,-1 -10,-1 0,5 -2,34 -1,37z"/>
   <path class="fil4" d="M203 458l-28 -1 -4 9 34 17c1,-1 2,-4 3,-6l-18 -9c-1,-1 -2,-1 -3,-2l-3 -1 30 1 4 -8 -33 -18 -4 7c3,1 9,4 11,6 2,1 4,2 6,3l5 2z"/>
   <path class="fil4" d="M772 396c3,-2 6,-5 10,-7 2,1 5,5 5,9 0,10 -19,18 -24,6l9 -8zm-19 6c1,4 11,16 21,16 9,0 19,-8 21,-16 2,-9 -9,-21 -13,-23 -3,1 -5,3 -8,5 -2,2 -4,4 -7,6 -2,2 -4,3 -7,6 -2,2 -5,3 -7,6z"/>
   <path class="fil4" d="M622 292c-4,17 -21,13 -17,-3 5,-17 21,-13 17,3zm-10 -21c-22,5 -21,44 4,39 9,-2 15,-12 15,-22 0,-10 -8,-19 -19,-17z"/>
   <path class="fil4" d="M552 265c13,-5 13,21 3,24 -12,4 -13,-20 -3,-24zm-1 -7c-20,4 -20,43 6,38 9,-2 14,-12 14,-22 -1,-11 -9,-19 -20,-16z"/>
   <path class="fil4" d="M677 306c14,-4 9,20 -2,23 -13,3 -10,-20 2,-23zm-3 -7c-5,1 -8,4 -11,7 -12,16 -1,33 15,30 8,-2 16,-12 16,-21 1,-11 -9,-19 -20,-16z"/>
   <path class="fil4" d="M817 456c1,-1 7,-5 9,-5 2,4 5,8 0,10 -5,2 -8,-2 -9,-5zm-6 3c3,3 2,6 -1,9 -4,4 -2,2 -7,7l4 7c1,-2 2,-2 4,-4 4,-4 7,-6 8,-11 4,2 7,3 11,1 13,-7 1,-24 -3,-27l-33 18 4 7 13 -7z"/>
   <path class="fil4" d="M250 365c3,-2 5,-7 10,-2 4,4 -1,8 -3,10 -4,-3 -7,-8 -7,-8zm-10 2l20 19c1,2 5,5 7,7 1,-1 5,-4 5,-5 -1,-3 -6,-6 -10,-11 3,-2 4,-5 9,-2 2,2 6,4 9,5 2,-1 4,-3 5,-5 -2,-2 -5,-4 -8,-5 -3,-2 -5,-3 -9,-3 1,-11 -8,-15 -13,-13 -6,1 -12,9 -15,13z"/>
   <path class="fil4" d="M438 264c4,0 9,-1 9,4 1,5 -3,6 -7,7 -2,-2 -2,-8 -2,-11zm-9 -4l6 37 7 -1 -2 -15c10,-2 8,7 13,13l7 -1c1,-1 1,0 -1,-4 -2,-6 -4,-11 -8,-13 1,-1 4,-3 4,-8 0,-15 -18,-10 -26,-8z"/>
   <path class="fil2" d="M505 723l1 4c0,1 1,2 1,2l2 0c-3,-4 -2,-24 -2,-30 0,-23 1,-215 0,-221l-2 0 0 245z"/>
   <path class="fil4" d="M174 500c-5,-2 -11,-6 -16,-7l-3 7c6,3 14,7 21,9 10,4 17,2 20,-6 4,-10 -2,-16 -8,-19 -7,-3 -15,-7 -22,-10 -1,2 -2,5 -3,7 7,6 30,9 27,18 -3,8 -12,2 -16,1z"/>
   <path class="fil4" d="M471 254l-8 1c0,3 1,21 1,24 2,9 5,14 15,13 19,0 13,-22 13,-39l-8 1c-1,13 5,31 -5,31 -10,1 -6,-18 -8,-31z"/>
   <path class="fil4" d="M822 433c0,-3 -2,-5 -4,-7 -9,4 -24,20 -30,12 -6,-9 16,-16 23,-23 -1,-1 -1,-2 -2,-3l-2 -3 -19 12c-7,4 -12,12 -6,21 5,7 12,8 21,3 5,-3 16,-11 19,-12z"/>
   <path class="fil4" d="M343 313l-4 -15 6 6c1,2 3,4 4,5l-6 4zm-11 -19c0,4 7,36 8,38 3,0 6,-2 7,-4l-2 -9 9 -4c2,2 4,5 7,7l7 -4c-1,-2 -5,-6 -6,-7l-21 -21 -9 4z"/>
   <path class="fil4" d="M831 494l-3 -6 14 -3c-1,2 -4,3 -5,5 -2,1 -4,3 -6,4zm-20 -3l10 -2c1,3 4,7 4,10 -2,1 -6,4 -7,6l3 7c1,0 0,0 2,-1l14 -12c1,-1 2,-1 3,-3 1,-1 2,-1 3,-1l8 -8 -4 -9c-4,0 -37,5 -39,6l3 7z"/>
   <path class="fil4" d="M752 378c-2,-1 -4,-4 -5,-5 1,-1 11,-7 12,-7 -1,4 -5,7 -7,12zm-25 -2l6 6 8 -5c2,1 6,5 7,7l-5 8 4 5c1,1 1,0 2,1l2 -2c0,-1 0,-1 1,-2l12 -21c1,-3 4,-6 5,-9 -1,-2 -6,-6 -8,-7 0,0 -32,17 -34,19 0,0 0,0 0,0z"/>
   <path class="fil2" d="M319 487l-4 12 17 -3c6,3 12,7 18,10l-7 -13 15 -3c-5,-2 -18,-4 -21,-6 -1,0 -9,-13 -10,-14 -1,1 0,0 -1,1 0,0 -1,1 -1,2l-4 8 -19 -4 17 10z"/>
   <path class="fil2" d="M673 620l8 13c-3,1 -11,3 -15,3 5,3 16,4 20,6 3,1 8,12 11,14l5 -11 19 4c0,0 0,0 0,0l-16 -11 4 -11c-27,5 -10,6 -36,-7z"/>
   <path class="fil2" d="M350 620c-2,1 -5,3 -8,4 -3,2 -5,3 -8,5 -4,3 -11,-1 -19,-2l4 12c-4,2 -13,9 -16,10 1,1 2,0 5,-1 1,0 2,0 4,-1 3,0 6,-1 9,-1l6 10c2,-2 9,-14 11,-14 5,-3 15,-3 19,-6l-14 -3 7 -13z"/>
   <path class="fil2" d="M705 487c3,-1 6,-4 9,-5 2,-1 7,-5 8,-5l-20 4 -5 -11c0,0 0,0 -1,1 -3,3 -7,12 -10,13 -5,3 -14,4 -20,6l15 3c-2,5 -6,9 -7,13l18 -10 17 3 -4 -12z"/>
   <path class="fil2" d="M429 373l-11 6c0,0 1,0 1,0 0,1 13,8 14,10 2,5 3,17 5,20l4 -14c3,1 9,6 13,7l-9 -15c-3,-5 0,-10 1,-20l-11 4 -11 -16 4 18z"/>
   <path class="fil2" d="M569 724c1,2 3,5 4,7 2,3 3,5 5,8 2,4 1,4 0,9 0,4 -1,8 -2,11 4,-1 9,-3 12,-3l8 11c1,2 2,4 3,4l-4 -19 11 -5c-3,-1 -6,-4 -8,-5 -11,-8 -6,-3 -12,-25 -1,2 -3,10 -4,13 0,2 0,1 0,1l-13 -7z"/>
   <path class="fil2" d="M588 371l-12 -4 4 17 -11 18c4,-1 9,-6 13,-7l3 13c1,1 1,1 1,1 0,-2 4,-18 5,-20 1,-2 12,-8 14,-10l-10 -5 4 -19c-2,1 -10,14 -11,16z"/>
   <path class="fil2" d="M447 759c-1,-11 -4,-15 -1,-20l9 -15 -13 7 -4 -14c-3,4 -3,16 -5,20 -1,1 -13,8 -15,10l11 5 -4 19c3,-3 8,-12 11,-16l11 4z"/>
   <path class="fil4" d="M220 390l14 12c3,2 13,11 15,12 3,-3 5,-5 7,-8l7 -9c-1,-1 -3,-3 -5,-4 -2,1 -1,1 -2,2l-7 8c-2,0 -6,-4 -7,-5l2 -3c1,-2 5,-5 6,-7 -1,-1 -4,-4 -5,-4l-5 4c-1,2 -2,3 -4,5 -2,-1 -3,-3 -5,-4 0,-3 6,-8 8,-11 -1,-1 -4,-3 -5,-4l-11 12c-1,1 -2,3 -3,4z"/>
   <path class="fil4" d="M211 402c1,3 16,18 19,22l-28 -10 -3 3c0,1 -1,3 -2,4l38 13c1,-2 4,-6 5,-8 -4,-6 -22,-27 -24,-31 -2,1 -4,5 -5,7z"/>
   <path class="fil4" d="M370 308l1 7c13,1 26,-10 17,-21 -5,-6 -10,-2 -17,-4 -3,-1 -6,-8 9,-9l-1 -7c-13,-2 -25,13 -14,22 5,4 14,1 17,4 4,6 -5,8 -12,8z"/>
   <path class="fil4" d="M283 365l3 6c8,-1 18,-10 14,-19 -1,-4 -5,-8 -11,-7 -6,0 -9,4 -14,0 -1,-5 4,-7 8,-8l-3 -7c-12,2 -19,21 -6,25 7,2 15,-4 18,-1 5,4 -4,9 -9,11z"/>
   <path class="fil4" d="M635 318l7 3c5,-8 2,-11 10,-17 2,-2 13,-11 15,-13l-7 -3 -13 12 1 -18 -8 -3c0,7 0,15 1,22 0,6 -5,12 -6,17z"/>
   <path class="fil4" d="M395 267c0,3 1,6 2,7l8 -2 8 30 8 -2c0,-6 -7,-26 -7,-30l8 -2 -1 -7 -26 6z"/>
   <path class="fil4" d="M299 315l4 6c2,-1 5,-4 8,-5l16 25c2,0 3,-1 4,-2 1,0 1,-1 2,-1 0,0 0,0 0,0 1,-1 1,-1 1,-1 -5,-8 -13,-19 -17,-26l8 -5c-1,-2 -3,-4 -4,-6l-22 15z"/>
   <path class="fil4" d="M140 424l21 14 2 -5 -11 -6c-1,-1 -2,-2 -3,-3l17 5 2 -4c-4,-4 -10,-10 -13,-13l17 8 2 -5 -22 -10c-2,1 -3,4 -4,6 3,1 5,5 6,6l6 6 -16 -4 -4 5z"/>
   <path class="fil4" d="M572 292c-1,2 -2,4 -2,7 10,3 17,3 20,-8 1,-5 5,-20 6,-25l-8 -2c-2,6 -3,12 -4,19 -3,11 -4,11 -12,9z"/>
   <path class="fil0" d="M677 306c-12,3 -15,26 -2,23 11,-3 16,-27 2,-23z"/>
   <path class="fil0" d="M552 265c-10,4 -9,28 3,24 10,-3 10,-29 -3,-24z"/>
   <path class="fil0" d="M622 292c4,-16 -12,-20 -17,-3 -4,16 13,20 17,3z"/>
   <path class="fil4" d="M788 349c0,2 1,4 3,4l13 -11c-2,6 -6,13 -7,18l3 4c3,-1 11,-9 14,-11 1,-1 2,-2 3,-3 1,0 1,0 2,-2l-3 -3c-3,2 -4,3 -7,5 -2,2 -3,4 -6,6l7 -17c-1,-3 -2,-3 -4,-5 -2,1 -7,6 -9,8l-9 7z"/>
   <polygon class="fil4" points="678,269 683,272 691,256 691,276 696,278 707,257 703,254 695,269 696,250 690,248 "/>
   <path class="fil4" d="M258 284l11 12 -17 -7c-2,1 -4,2 -5,4 2,3 14,17 15,19 2,-1 2,-2 4,-3 -1,-3 -4,-5 -5,-7 -2,-2 -4,-4 -6,-7l18 8c2,-1 3,-2 4,-3 0,-2 -14,-18 -15,-19 -2,1 -2,1 -4,3z"/>
   <path class="fil4" d="M623 230l0 0 0 0 3 19 6 2 7 -24 -5 -1 -4 16c-1,-7 -2,-12 -4,-18l-6 -3 -7 24 5 1 5 -16z"/>
   <path class="fil4" d="M824 396l3 3 14 -9c-1,3 -8,13 -9,17l3 5c3,-2 7,-5 10,-7 3,-2 7,-4 10,-7l-2 -4c-3,2 -12,8 -14,10 1,-4 8,-13 9,-17l-3 -5 -16 10c-2,1 -4,2 -5,4z"/>
   <path class="fil4" d="M175 371c1,1 11,8 13,9 -5,0 -12,-2 -19,-2 -1,1 -2,4 -3,5l20 14c1,-2 2,-2 3,-4l-15 -10 20 3c1,-2 3,-3 3,-5 -1,-2 -18,-13 -20,-14l-2 4z"/>
   <path class="fil4" d="M440 208l3 16c-3,-5 -10,-13 -11,-15 -2,0 -4,0 -6,1l3 24 5 -1 -3 -17 12 16c2,0 4,0 6,-1l-4 -24c-2,0 -3,0 -5,1z"/>
   <path class="fil4" d="M576 216c6,0 10,4 8,10 -1,6 -4,7 -11,6l3 -16zm-9 19c3,1 20,6 23,-8 3,-12 -8,-15 -18,-16 -1,2 -5,21 -5,24z"/>
   <path class="fil4" d="M706 280l9 -14c12,3 3,22 -9,14zm-6 0c2,3 7,6 12,7 11,2 19,-12 12,-20 -2,-2 -8,-6 -12,-7l-12 20z"/>
   <path class="fil4" d="M735 299c1,-4 8,-10 10,-13 5,1 7,7 3,12 -4,5 -7,3 -13,1zm-6 0c5,3 14,13 24,2 8,-10 -3,-19 -10,-22 -1,2 -14,19 -14,20z"/>
   <path class="fil4" d="M460 210c8,-3 11,13 4,16 -8,3 -11,-13 -4,-16zm-1 -4c-14,3 -10,28 6,24 14,-4 10,-28 -6,-24z"/>
   <path class="fil0" d="M763 404c5,12 24,4 24,-6 0,-4 -3,-8 -5,-9 -4,2 -7,5 -10,7l-9 8z"/>
   <path class="fil4" d="M510 221c-2,9 -13,4 -10,-7 2,-10 14,-5 10,7zm-7 -16c-14,3 -12,28 5,24 13,-2 11,-27 -5,-24z"/>
   <path class="fil4" d="M192 434c5,3 28,18 30,19 1,-3 3,-4 4,-7 -2,-1 -5,-3 -8,-5l-24 -15c-2,2 -3,4 -4,7l2 1z"/>
   <path class="fil4" d="M848 426c-1,-3 -3,-5 -2,-9 1,-3 8,-8 13,-3 3,3 2,5 4,7l4 -1c-1,-10 -11,-17 -21,-11 -12,7 -3,20 2,23 3,-2 8,-5 11,-7l-4 -7 -4 2 1 3 -4 3z"/>
   <path class="fil4" d="M213 331c1,-2 2,-3 5,-3 5,2 2,5 0,8l-5 -5zm14 1l-2 -1 0 -3c-4,-10 -14,-4 -19,4l9 9c3,2 7,6 10,8l3 -4c-2,-2 -6,-5 -7,-7 3,-5 7,1 12,2 1,-2 2,-2 3,-4 0,0 0,0 0,0l-2 -1c-1,-1 -1,-1 -2,-1 -2,-1 -2,-2 -5,-2z"/>
   <path class="fil4" d="M539 230l1 -13 -9 0 0 4 4 0 -1 5c-6,1 -10,-3 -9,-9 2,-7 8,-7 14,-5l1 -4c-8,-2 -19,-3 -21,9 -1,12 9,16 20,13z"/>
   <path class="fil4" d="M280 273c6,-6 11,2 3,6l-3 -6zm-7 0l14 20 4 -3 -5 -8c2,-1 3,-2 6,0 2,1 1,1 5,4l4 -3c-1,-2 -6,-6 -10,-7 1,-3 2,-4 0,-7 -1,-2 -3,-3 -6,-3 -4,0 -10,5 -12,7z"/>
   <path class="fil4" d="M287 324c4,5 8,10 11,15l12 15c2,-2 4,-3 6,-5l-23 -30c-2,1 -5,4 -6,5z"/>
   <path class="fil3" d="M522 628c10,-6 21,-6 31,1 9,5 13,11 28,12 2,-7 4,-5 4,-6 0,0 0,0 1,0 -7,1 -13,0 -19,-3 -11,-4 -13,-12 -28,-13 -8,0 -11,2 -17,5l0 4z"/>
   <path class="fil3" d="M438 635c1,1 0,0 1,1 5,1 2,1 4,5 22,0 23,-17 43,-17 9,-1 10,2 16,4l-1 -4c-10,-8 -22,-6 -32,1 -8,5 -18,12 -31,10z"/>
   <path class="fil4" d="M859 446c-8,-12 12,-20 15,-3l4 -1c0,-10 -9,-18 -20,-12 -10,5 -6,17 1,23l10 -5 -3 -9 -3 2 1 3 -5 2z"/>
   <path class="fil4" d="M755 319c1,1 1,1 2,2 1,1 1,1 2,2 2,-2 3,-3 4,-4 2,-2 1,-2 5,-3l-3 12c3,2 2,3 5,4l3 -14c0,-1 0,-1 0,-2l13 -2c-1,-1 -1,-2 -2,-2 -1,-1 -2,-2 -3,-2l-12 3c2,-4 5,-5 7,-8 -2,-2 -3,-3 -4,-4l-12 14c-2,1 -3,2 -5,4z"/>
   <path class="fil4" d="M411 223l-3 -10 -5 1 5 24 5 -1c0,-5 -2,-6 0,-10 3,2 5,6 8,8l6 -1 -11 -12 6 -11c-8,0 -7,1 -8,4 -1,3 -2,6 -3,8z"/>
   <path class="fil4" d="M122 464l22 9 2 -5c-2,0 -3,-1 -5,-2 -2,-1 -3,-1 -3,-4l12 -1 2 -5 -16 1 -7 -10 -2 5c0,3 5,8 6,11l-9 -4 -2 5z"/>
   <path class="fil4" d="M604 222l1 10 -5 -1 4 -9zm-14 17l5 1 3 -5 6 1 1 7 5 1 -1 -25 -3 -1c-1,0 -2,-1 -4,-1 -1,2 -12,21 -12,22z"/>
   <path class="fil4" d="M787 334l-3 -3 8 -5 -5 8zm-16 -1c1,2 2,2 3,3l6 -3 5 5 -3 6c0,1 0,1 1,2l2 2 13 -23 -5 -4c-2,0 -22,11 -22,12z"/>
   <path class="fil4" d="M243 315l-5 -8c3,1 6,3 8,5 -1,2 -2,2 -3,3zm-10 -10c1,4 9,18 11,23 2,-1 3,-2 4,-4l-3 -5 5 -5 6 3c2,-1 3,-2 4,-3l-22 -13c-1,1 -4,3 -5,4z"/>
   <path class="fil4" d="M155 399c2,1 4,2 5,3 4,3 14,10 16,10 2,-3 7,-10 8,-13l-3 -1c-1,0 -5,6 -6,7l-5 -3c1,-2 4,-4 5,-7 -2,-1 -3,-2 -4,-2l-4 7c-2,-1 -3,-2 -5,-3 1,-3 4,-5 5,-8l-4 -2c-1,1 -7,10 -8,12z"/>
   <path class="fil4" d="M661 262l14 6 2 -4 -8 -4 2 -5 8 3 2 -4 -8 -4 2 -4 8 4 2 -4c-2,-2 -11,-6 -13,-6l-11 22z"/>
   <path class="fil4" d="M141 432l-4 -2 -6 13c1,1 20,10 22,11l6 -13 -4 -2 -4 8 -5 -3 4 -7 -4 -2c-1,1 -2,2 -2,4 -1,1 -1,1 -1,2l-2 1 -4 -2 4 -8z"/>
   <path class="fil4" d="M193 347c3,3 9,7 12,10l7 5c2,-1 9,-9 10,-11 -2,-1 -2,-2 -3,-2 -3,2 -4,4 -7,6 -2,-1 -3,-2 -4,-3 1,-1 5,-6 5,-7l-3 -2c-3,2 -4,4 -6,6 -1,-1 -3,-2 -4,-3 2,-3 5,-5 6,-7 -1,-2 -2,-2 -3,-3 -2,1 -3,4 -5,5 -2,2 -3,3 -5,6z"/>
   <path class="fil4" d="M318 246l11 21c1,0 12,-5 13,-6l-2 -4 -8 4 -2 -3c0,0 -1,-1 -1,-2l8 -4 -2 -4 -8 4 -2 -5 8 -4c-1,-1 -1,-2 -2,-4l-13 7z"/>
   <path class="fil4" d="M653 244l2 -6c8,1 6,9 -2,6zm-10 10l5 2 3 -8c6,3 14,2 14,-6 1,-6 -7,-9 -14,-10l-8 22z"/>
   <path class="fil4" d="M384 220l6 23 15 -4 -1 -4 -10 2 -1 -6 8 -2 -1 -4 -8 2c-1,-1 -1,-3 -2,-5 3,0 7,-1 9,-2l-1 -4 -14 4z"/>
   <path class="fil2" d="M384 707c1,1 1,1 2,1 1,-5 -2,-7 -4,-9 -3,-2 -3,-4 -9,-4 0,1 1,2 1,2 0,1 0,0 0,1l-6 -7c-1,0 0,0 -1,-1 -1,-1 0,0 -1,-1 -1,0 -2,0 -3,1 0,2 2,3 4,5 -3,-1 -8,-6 -9,-9 0,0 0,0 -1,-1 -1,-1 0,0 0,-1 -1,0 -1,0 -2,0 -1,5 2,7 4,9 1,2 4,6 8,4 0,0 0,-1 0,-1 0,0 1,0 1,0l6 7c-4,-2 -2,-3 -5,-3 0,5 2,6 5,8 2,2 4,6 8,4 0,-1 1,-1 -1,-2l-6 -6c0,0 0,0 0,0l2 -1c0,-3 -1,-3 -3,-5 4,2 7,4 9,8l1 1z"/>
   <path class="fil4" d="M310 272l1 4c13,1 18,-18 2,-17 -1,0 -2,1 -3,1 -1,0 -1,0 -1,-1 -1,0 -1,0 -1,0 -2,-4 3,-5 6,-6l-1 -4c-8,0 -15,10 -8,15 4,2 10,-1 12,1 4,4 -5,6 -7,7z"/>
   <path class="fil4" d="M334 237l2 5 6 -3 8 18 4 -1 -7 -19 5 -2 -1 -4c-4,0 -12,5 -17,6z"/>
   <path class="fil4" d="M180 364c1,1 1,2 3,3 2,-2 3,-3 4,-5 2,1 2,1 4,3l12 9c1,-1 2,-3 3,-4 -3,-3 -13,-10 -15,-12 1,-3 2,-3 3,-6l-3 -2 -11 14z"/>
   <path class="fil4" d="M822 359c1,3 2,2 3,5 -3,2 -12,10 -15,11 0,3 1,3 2,5 3,-1 6,-4 9,-6 2,-2 5,-4 8,-6 1,2 2,3 4,5 1,-1 2,-1 3,-3l-11 -14c-1,1 -2,1 -3,3z"/>
   <polygon class="fil4" points="363,226 364,230 370,228 377,247 382,246 375,227 381,225 380,220 "/>
   <path class="fil2" d="M379 417c1,0 1,0 1,-1 0,0 1,0 1,0 0,0 1,-1 1,-1l0 -1c-4,-1 -7,2 -9,4 -2,2 -5,5 -3,8l0 1 -2 3c0,0 -1,0 -1,0 0,0 0,-1 -2,-1 0,0 -2,0 -2,0 -2,1 -9,7 -8,12 0,1 0,1 1,2 1,-2 7,-9 7,-10l0 2c2,4 5,-1 8,-4 2,-2 6,-5 6,-8 -2,-2 -4,1 -6,3l4 -5c1,-1 3,-3 4,-4z"/>
   <path class="fil4" d="M478 229c3,1 11,0 15,0l0 -4 -10 -1 0 -19 -5 0 0 24z"/>
   <path class="fil0" d="M510 221c4,-12 -8,-17 -10,-7 -3,11 8,16 10,7z"/>
   <path class="fil0" d="M460 210c-7,3 -4,19 4,16 7,-3 4,-19 -4,-16z"/>
   <path class="fil0" d="M735 299c6,2 9,4 13,-1 4,-5 2,-11 -3,-12 -2,3 -9,9 -10,13z"/>
   <path class="fil2" d="M567 374l4 1c-8,0 -16,-5 -16,0 2,2 9,3 12,3l-2 1c1,5 5,6 11,7l1 -3c-1,-1 -3,-1 -5,-2l-5 -2c3,0 4,1 6,0 0,0 1,-1 0,-2 0,-1 0,0 -1,-1l0 0c0,0 -1,0 -1,0l5 1c-1,-2 -1,-7 -7,-5 -2,1 -2,1 -2,2z"/>
   <path class="fil0" d="M573 232c7,1 10,0 11,-6 2,-6 -2,-10 -8,-10l-3 16z"/>
   <path class="fil0" d="M706 280c12,8 21,-11 9,-14l-9 14z"/>
   <path class="fil4" d="M720 293l5 3c1,-2 13,-18 13,-20l-3 -3c-3,2 -14,19 -15,20z"/>
   <path class="fil4" d="M291 261c1,2 11,18 13,20l4 -2c0,-2 -11,-19 -13,-21l-4 3z"/>
   <path class="fil4" d="M884 451l-2 -4c-4,1 -8,3 -12,5 -3,1 -8,3 -11,5l3 5 22 -11z"/>
   <path class="fil4" d="M221 316l17 18 4 -4c-1,-2 -6,-7 -8,-9 -3,-2 -6,-6 -9,-8l-4 3z"/>
   <path class="fil4" d="M543 231c1,1 1,0 1,1l2 0c0,0 2,0 2,0l4 -24 -6 0 -3 23z"/>
   <path class="fil4" d="M818 388c1,1 2,2 3,4 3,-2 8,-5 10,-7 4,-3 7,-5 10,-7 0,-2 -1,-3 -3,-4l-20 14z"/>
   <path class="fil2" d="M461 373c5,-1 8,-3 14,-3 -3,2 -4,0 -4,4 3,1 16,-2 19,-3 0,-5 -6,-1 -15,-1l3 -1c0,0 0,0 0,0 -2,-3 -5,-3 -9,-2 -5,1 -7,2 -8,6z"/>
   <path class="fil2" d="M531 755c-3,-1 -4,1 -7,0l-3 -1c-2,-3 -4,-3 -9,-3 -5,0 -8,0 -9,4l12 0c0,0 0,0 0,0 0,0 0,0 0,0 -1,0 -1,0 -1,1 -2,1 -1,1 -1,2 2,1 7,1 10,0 6,0 9,1 9,-2 0,-2 0,0 -1,-1z"/>
   <path class="fil2" d="M319 603c1,3 0,8 3,11l2 -1c1,-3 -1,-8 -1,-12 0,0 0,0 0,0l1 1c3,-2 2,-5 2,-9 -1,-5 -2,-7 -6,-8 1,7 1,3 2,8 0,3 0,5 1,8 -2,-3 0,-7 -5,-5 0,2 1,4 1,7z"/>
   <path class="fil2" d="M640 707l2 -3c0,-1 1,-1 2,-2 2,-2 1,-2 4,-3 -1,2 -3,1 -1,4 3,1 6,-4 8,-5 1,-2 5,-5 6,-7 -3,-3 -4,-1 -6,1 -1,1 -3,3 -4,5l-1 -1c-3,-2 -8,3 -9,4 -2,2 -4,3 -3,8l2 -1z"/>
   <path class="fil4" d="M748 313c2,2 2,2 4,3l16 -19c-2,0 -3,-2 -4,-2 -2,1 -3,2 -4,4l-12 14z"/>
   <path class="fil2" d="M643 416c0,1 1,1 1,1 0,0 1,0 1,0 1,1 0,1 1,2l-2 -2c-1,0 -1,0 -1,-1zm-11 -3c4,2 9,8 13,9l1 -2c0,0 0,-1 0,-1 1,0 1,0 1,0l6 7c1,0 0,0 1,0 2,-4 -1,-6 -4,-8 -3,-3 -2,-5 -9,-4l2 2c-2,0 -6,-4 -7,-5 -1,-1 -3,-2 -4,-2 -4,1 0,4 0,4z"/>
   <path class="fil2" d="M704 609c0,-4 2,-10 1,-13 -5,-1 -3,5 -5,12l0 -2c-5,1 -5,3 -6,7 -1,4 -3,7 1,10 2,-4 1,-11 4,-13 0,2 0,4 3,4 1,-2 1,-3 2,-5z"/>
   <path class="fil2" d="M656 430l2 1c-3,-1 -1,0 -2,-1zm-8 -3c1,1 0,0 2,1 0,0 0,1 1,1 1,1 0,1 2,2l4 4c1,3 5,2 3,-2 2,1 2,2 4,5 2,2 2,3 4,5 2,-6 -1,-9 -6,-13 -1,-1 -3,-1 -5,-1l-1 1c0,-1 0,0 -1,-1 -3,-3 -4,-7 -8,-7 0,1 -1,1 0,3 0,0 0,0 1,2z"/>
   <path class="fil2" d="M329 626c-1,-2 -1,-4 -2,-6 -1,-3 -1,-4 -4,-4 -1,3 1,4 1,7 -2,-2 -3,-9 -4,-12 -1,-5 -1,-3 -1,-4 -3,4 -2,6 -1,11 1,3 3,7 7,6l1 3c0,0 3,0 3,0 1,0 0,0 1,0l0 -1c1,2 -1,1 1,2l2 -1c-2,-2 -2,-2 -4,-1z"/>
   <path class="fil2" d="M698 499l-4 0 1 4c-1,1 0,0 -1,1 -3,3 -1,7 0,9 1,4 2,6 6,7 -1,-4 -4,-8 -4,-14 2,2 1,2 3,4l2 0c1,-4 -2,-7 -3,-11z"/>
   <path class="fil0" d="M438 264c0,3 0,9 2,11 4,-1 8,-2 7,-7 0,-5 -5,-4 -9,-4z"/>
   <path class="fil0" d="M250 365c0,0 3,5 7,8 2,-2 7,-6 3,-10 -5,-5 -7,0 -10,2z"/>
   <path class="fil0" d="M817 456c1,3 4,7 9,5 5,-2 2,-6 0,-10 -2,0 -8,4 -9,5z"/>
   <path class="fil2" d="M342 662l3 5c0,1 0,0 1,1 0,0 0,0 0,1 4,5 4,1 4,0l-1 -3 -6 -10c-1,-1 -1,-2 -4,-1 -1,3 2,4 3,7z"/>
   <path class="fil2" d="M316 551c2,1 3,0 3,-2 2,-12 3,-17 -1,-16 -1,2 -3,15 -2,18z"/>
   <path class="fil2" d="M382 415c0,1 0,0 -1,1 0,1 -1,1 -2,1l-1 2c-1,1 0,0 0,2 2,1 3,0 5,-1l6 -5c0,-1 -1,0 1,-1 0,-1 1,-1 1,-1 2,-2 3,-2 1,-4 -3,-1 -7,5 -10,6z"/>
   <path class="fil2" d="M624 719l-6 4c0,1 1,0 0,1l-3 2c-3,2 -1,4 1,4 0,-1 2,-2 4,-3 1,-1 0,0 1,-1l6 -4c0,0 0,0 0,0l2 -2c1,-1 0,-3 -2,-2 -1,0 -1,0 -3,1z"/>
   <path class="fil2" d="M669 674l-7 10c-3,4 -1,3 -1,4 3,2 4,-2 6,-5 1,0 1,-1 1,-2 0,0 1,-1 1,-1 1,0 0,0 1,0 1,-3 3,-4 3,-7 0,0 -1,-1 -2,0 -1,0 -1,1 -2,1z"/>
   <path class="fil2" d="M345 459l-2 4c0,0 0,0 0,0l-1 0c-1,4 -4,5 -3,8 4,1 3,0 5,-3l0 0c1,-2 1,-2 2,-4l3 -3c0,-3 2,-3 1,-6 -4,-1 -2,1 -5,4z"/>
   <path class="fil2" d="M668 450l2 2c1,1 2,1 3,1 1,-2 1,-2 0,-4 -4,-2 -9,-13 -12,-11 0,1 -1,0 0,2 0,1 0,1 1,2l6 8z"/>
   <path class="fil2" d="M316 580c0,0 0,0 0,1 1,1 0,0 0,1 -1,12 4,14 4,9 0,-3 -1,-14 -2,-16 -4,-1 -3,1 -2,5z"/>
   <path class="fil2" d="M352 678c0,0 0,-1 1,1 1,1 0,-1 0,1l4 4c0,0 0,0 1,1 0,0 0,0 0,1 2,2 2,3 5,2 0,-3 -4,-7 -5,-9 -1,-1 -2,-3 -3,-4 -2,-2 -3,-4 -4,-2 -1,2 0,2 1,5z"/>
   <path class="fil2" d="M555 752c0,4 3,2 9,0 5,-2 8,-2 9,-5 -1,-2 -2,-1 -4,0 -4,1 -13,3 -14,5z"/>
   <path class="fil2" d="M706 593c1,-3 1,-7 2,-11 0,-2 2,-9 -3,-7 -1,2 -2,15 -1,18l2 0z"/>
   <path class="fil2" d="M453 376l-2 1 0 2c2,1 11,-2 15,-3 3,-1 3,-1 2,-4 -4,0 -10,3 -15,4z"/>
   <path class="fil2" d="M318 530c3,1 3,1 4,-2 1,-3 3,-13 2,-16 -3,0 -2,0 -3,3 -1,4 -3,12 -3,15z"/>
   <path class="fil2" d="M503 755c-4,0 -9,-1 -11,0 -1,4 5,3 8,3 2,0 9,1 10,0 4,-3 -5,-3 -7,-3z"/>
   <path class="fil2" d="M704 517c-2,-2 -1,-6 -4,-5 -1,3 2,17 3,19l2 -1c2,-3 -1,-9 -1,-13z"/>
   <path class="fil2" d="M489 754c-2,-1 -15,-3 -18,-2 -1,4 3,3 9,4 2,0 4,1 6,1 3,0 4,1 3,-3z"/>
   <path class="fil2" d="M352 448c0,0 -4,6 0,5 1,0 3,-3 4,-3 0,-1 0,-1 1,-1 3,-6 8,-8 5,-11 -2,0 -2,0 -3,2l-7 8z"/>
   <path class="fil2" d="M629 408c1,-3 -1,-3 -6,-7 -2,-1 -8,-5 -10,-4 -2,2 8,7 11,9 1,1 1,1 2,2 2,1 1,0 3,0 0,0 0,0 0,0z"/>
   <path class="fil2" d="M640 707c-1,1 0,0 -1,1 -1,0 -1,0 -1,1 -2,2 -1,1 -3,2l-3 2c-3,3 -1,3 -1,4 2,2 3,-1 5,-2 1,-2 6,-5 7,-6 1,-2 2,-1 2,-2 1,-2 0,-2 0,-2 -2,-2 -3,1 -5,2z"/>
   <path class="fil2" d="M406 398l-1 0c0,1 -1,1 -1,1 -4,3 -11,6 -9,8 0,0 0,2 2,1 3,-1 6,-4 8,-5 3,-3 6,-2 5,-6 -2,-1 -2,0 -4,1z"/>
   <path class="fil2" d="M405 728c3,1 3,2 5,0 0,-3 0,-1 -3,-4 -4,-1 -9,-7 -12,-6 -2,3 4,5 9,9l1 1z"/>
   <path class="fil2" d="M704 533c-1,3 0,16 2,18l2 0c1,-3 0,-7 -1,-10 0,-6 0,-9 -3,-8z"/>
   <path class="fil2" d="M684 471c1,-3 -2,-7 -4,-9 0,-2 -4,-9 -6,-7 -2,2 4,10 6,13 1,2 2,4 4,3z"/>
   <path class="fil2" d="M676 664c-1,1 -5,8 -1,7 1,0 1,0 2,-1l2 -3c0,-2 2,-4 3,-6 1,-2 3,-4 2,-6 -5,0 -5,6 -8,9z"/>
   <path class="fil2" d="M469 751c-1,-1 -8,-2 -10,-3 -2,-1 -10,-4 -9,1 1,0 20,7 19,2z"/>
   <path class="fil2" d="M389 716c2,1 2,2 4,0 -1,-4 -9,-7 -9,-9 0,0 0,0 0,0 -2,-1 -4,-3 -6,-2 -1,2 0,2 2,3l7 7c1,0 1,0 1,0 0,0 0,1 1,1 0,0 0,0 0,0z"/>
   <path class="fil2" d="M705 554c0,3 0,16 1,18l2 0c0,-1 0,1 1,-1l0 -5c-1,-7 1,-14 -4,-12z"/>
   <path class="fil2" d="M541 753l-1 0c-7,0 -7,4 -4,4 1,0 15,-1 17,-3l-1 -2c-3,-1 -7,1 -11,1z"/>
   <path class="fil2" d="M542 370c-1,0 0,0 -2,0 -2,-1 -1,-1 -1,-1 -3,0 -6,-1 -5,2 1,2 17,3 18,3 1,-3 1,-3 -3,-4 -2,0 -4,0 -7,0z"/>
   <path class="fil2" d="M624 719l11 -8c0,-2 0,-2 -2,-2 -4,0 -12,5 -12,12l3 -2z"/>
   <path class="fil2" d="M419 731c-2,0 -4,-2 -5,-2 -2,0 -1,0 -2,0 -1,3 3,5 6,6 3,1 5,3 8,4l3 -2 -10 -6z"/>
   <path class="fil2" d="M606 390c2,2 6,3 8,5 6,3 4,4 8,4 0,-5 -2,-5 -6,-7 -2,-2 -7,-5 -10,-2z"/>
   <path class="fil2" d="M679 667c-1,4 -2,4 -4,7l-5 6 1 1c5,0 6,-3 8,-6 1,-2 4,-6 1,-9l-1 1c0,0 0,0 0,0z"/>
   <path class="fil2" d="M428 389l0 -1c-1,0 -1,0 -1,0 -2,-2 -4,0 -9,3 -1,1 -8,3 -6,5 2,2 15,-5 16,-7z"/>
   <path class="fil2" d="M711 531c-1,-6 -1,-7 -6,-9 0,4 1,6 2,9 1,3 0,6 1,9 4,-1 4,-5 3,-9z"/>
   <path class="fil2" d="M503 759c1,3 0,3 4,4 1,0 3,0 5,0 5,1 8,0 9,-4 -4,0 -6,1 -9,1 -3,0 -6,-1 -9,-1z"/>
   <path class="fil2" d="M609 733c2,-1 3,0 3,-2 0,-4 -7,1 -9,2 -3,1 -6,2 -8,4l3 2c4,-1 7,-5 11,-6z"/>
   <path class="fil2" d="M705 604c4,-1 5,-3 6,-8 1,-5 1,-8 -3,-10 0,3 0,6 -1,9 -1,4 -2,5 -2,9z"/>
   <path class="fil2" d="M713 558c1,-2 0,-4 0,-6 0,-4 -1,-7 -5,-9 0,4 2,10 2,13 -1,2 -1,0 -1,5 2,0 3,-1 4,-3z"/>
   <path class="fil2" d="M708 583c5,-2 5,-4 5,-9 0,-5 0,-8 -4,-9 0,3 1,6 0,10 0,3 -1,4 -1,8z"/>
   <path class="fil2" d="M595 389c1,2 14,8 16,8 2,-4 -2,-4 -5,-6 -2,-1 -6,-3 -8,-4l-3 2z"/>
   <path class="fil2" d="M474 756c-6,0 -9,-3 -13,-3 0,4 3,5 7,6 6,1 7,1 10,-2 -1,-1 1,-1 -4,-1z"/>
   <path class="fil2" d="M524 759c1,4 5,4 10,3 4,0 7,-1 8,-5 -3,0 -5,1 -8,2 -4,0 -6,0 -10,0z"/>
   <path class="fil2" d="M643 709l-1 1c-1,1 0,1 -1,2 5,2 8,-2 10,-4 2,-2 4,-4 3,-9 -2,1 -6,8 -11,10z"/>
   <path class="fil2" d="M405 728c-1,-1 -1,-1 -3,-2 0,5 3,7 6,9 3,1 7,4 10,0 -4,-1 -11,-4 -13,-7z"/>
   <path class="fil2" d="M391 413l-2 2c-1,2 2,2 4,2 1,-1 3,-2 4,-3 4,-2 6,-3 6,-9 -4,1 -3,3 -6,4 -1,2 -4,4 -6,4z"/>
   <path class="fil2" d="M609 733c-2,3 -1,0 -3,3 5,2 5,1 10,-1 4,-3 5,-3 6,-8l-2 0c-1,2 -8,6 -11,6z"/>
   <path class="fil2" d="M667 683c0,2 -4,7 -5,8 -2,2 -4,4 -6,6 6,1 7,-1 9,-4 2,-3 5,-5 3,-10l-1 0z"/>
   <path class="fil2" d="M704 609c-1,3 -1,5 -2,8 -1,3 -2,4 -2,7 4,-1 5,-3 6,-7 1,-5 2,-7 -1,-10l-1 2z"/>
   <path class="fil2" d="M345 459c1,-3 4,-9 7,-11 1,-2 1,-1 1,-3 -5,0 -6,3 -8,5 -3,5 -4,4 -2,10l2 -1z"/>
   <path class="fil2" d="M329 623c3,-4 2,-5 1,-10 -1,-4 -2,-6 -6,-7 0,4 1,4 3,8 0,4 0,7 2,9z"/>
   <path class="fil2" d="M314 561c1,-3 0,-5 0,-8 1,-4 1,-6 1,-9 -4,1 -4,4 -4,9 -1,4 0,7 3,8z"/>
   <path class="fil2" d="M704 517l1 2c3,-3 2,-5 1,-10 -1,-4 -2,-6 -6,-7 1,5 3,8 4,15z"/>
   <path class="fil2" d="M316 540c0,-7 1,-11 3,-17 -5,0 -5,4 -6,8 -1,4 -1,9 3,9z"/>
   <path class="fil2" d="M318 571l0 -17c-1,-1 -1,-1 -3,0 0,3 0,7 0,10 0,4 -1,8 2,8 1,-1 1,0 1,-1z"/>
   <path class="fil2" d="M546 369l9 2c4,1 4,2 8,2 0,-4 -3,-5 -7,-6 -2,0 -4,-1 -6,0 -1,0 -1,0 -2,0 -2,1 -1,1 -2,2z"/>
   <path class="fil2" d="M545 757c3,3 6,3 10,2 5,-1 7,-2 8,-6 -2,0 -6,1 -8,2 -4,1 -7,1 -10,2z"/>
   <path class="fil2" d="M383 420c-1,4 -7,7 -10,10 5,2 7,-1 9,-3 3,-2 5,-4 4,-9 -1,0 -1,1 -3,2z"/>
   <path class="fil2" d="M324 520c4,-1 5,-2 6,-7 1,-4 2,-6 -1,-10 -1,2 -1,2 -2,4 0,6 -3,8 -3,13z"/>
   <path class="fil2" d="M368 691c2,1 1,1 3,2 1,-6 0,-5 -3,-9 -2,-3 -3,-5 -8,-4 0,3 2,3 4,5 2,2 4,4 4,6z"/>
   <path class="fil2" d="M349 666l1 1c5,5 4,9 8,11 1,-6 0,-6 -3,-10 -1,-3 -2,-5 -7,-5l1 3z"/>
   <path class="fil2" d="M636 715l0 1c-2,2 -6,6 -9,6l-2 2c-1,0 -1,1 -1,1 2,1 4,1 6,0 1,0 3,-2 4,-2 2,-3 5,-4 5,-9l-3 1z"/>
   <path class="fil2" d="M482 757c1,6 16,8 17,2 -3,0 -5,0 -9,0 -4,-1 -5,-2 -8,-2z"/>
   <path class="fil2" d="M405 403l0 1c4,2 7,0 10,-2 3,-2 5,-2 6,-8 -4,1 -3,2 -8,5 -2,1 -6,3 -8,4z"/>
   <path class="fil2" d="M319 603c-2,-4 -3,-12 -3,-17 -4,2 -4,5 -3,10 1,4 1,6 5,8l1 -1z"/>
   <path class="fil2" d="M648 427c-2,0 -4,-3 -5,-4 -3,-2 -2,-4 -5,-5 -1,5 1,6 4,9 2,3 4,4 9,3 -1,-2 -1,-1 -3,-3z"/>
   <path class="fil2" d="M389 716l-4 -2c0,5 2,6 5,9 3,1 6,4 10,2 -2,-3 -10,-5 -11,-9z"/>
   <path class="fil2" d="M636 411l3 1c0,-5 -2,-6 -5,-8 -3,-3 -5,-4 -10,-3 1,2 1,1 3,2 2,2 6,4 8,6 1,1 0,1 1,2z"/>
   <path class="fil2" d="M673 449c3,2 5,9 7,11 4,-3 0,-7 -1,-9 -2,-3 -4,-6 -9,-6 2,3 2,2 3,4z"/>
   <path class="fil2" d="M685 479c-5,-6 -4,-11 -8,-13 -2,4 0,6 2,9 2,4 2,6 7,6l-1 -2z"/>
   <path class="fil2" d="M315 583l0 -3c0,-2 -1,-6 -1,-8 0,-2 0,-5 0,-7 -4,1 -4,4 -3,9 0,6 0,6 4,9z"/>
   <path class="fil2" d="M652 693c3,1 2,-3 10,-10 1,-1 2,-2 2,-3 -5,0 -6,2 -8,4 -2,2 -5,5 -4,9z"/>
   <path class="fil2" d="M540 369l2 -1c-1,-4 -4,-4 -9,-4 -4,-1 -7,-1 -9,3 3,0 6,0 9,0 3,1 6,2 7,2z"/>
   <path class="fil2" d="M462 378c2,3 5,3 9,2 5,-1 7,-2 8,-6 -3,0 -5,1 -8,2 -4,1 -6,1 -9,2z"/>
   <path class="fil2" d="M319 519c1,-3 1,-6 2,-9 1,-3 2,-6 3,-8 -4,0 -5,4 -6,7 -2,5 -2,8 1,10z"/>
   <path class="fil2" d="M562 378c-2,-1 -17,-4 -17,-4 0,4 3,5 7,6 4,1 6,2 10,-2z"/>
   <path class="fil2" d="M353 680c0,-1 0,0 -1,-1 -1,-1 0,0 0,-1 -2,-2 -3,-3 -4,-5 -1,-2 -3,-4 -3,-6l-1 0c0,0 0,-1 0,-1 0,0 0,0 -1,0 -3,7 7,16 10,15 1,-1 0,1 0,-1z"/>
   <path class="fil2" d="M385 412c3,-1 3,-2 7,-5 1,-1 7,-5 7,-6 -4,-2 -6,0 -9,3 -3,2 -5,2 -5,8z"/>
   <path class="fil2" d="M359 446c7,1 14,-7 12,-14 -4,2 -2,5 -9,10 -1,1 -2,3 -3,4z"/>
   <path class="fil2" d="M338 645c1,1 -1,1 2,4 2,3 3,9 6,11 3,-2 1,-6 -1,-9 -2,-4 -3,-6 -7,-6z"/>
   <path class="fil2" d="M704 544c-4,1 -4,5 -4,9 1,5 1,7 5,8l-1 -17z"/>
   <path class="fil2" d="M406 398c1,-2 6,-5 8,-6 5,-2 3,-1 4,-2 -6,-2 -7,0 -11,2 -3,1 -5,3 -5,7l4 -1z"/>
   <path class="fil2" d="M320 541c4,-1 5,-4 6,-8 0,-5 1,-7 -2,-10 -1,1 0,0 -1,2 0,0 0,0 0,0 -1,2 0,2 0,3 -1,5 -3,8 -3,13z"/>
   <path class="fil2" d="M618 723c0,-1 1,0 0,-1 -3,-2 -7,1 -9,2 -3,2 -5,3 -6,7 3,0 11,-6 15,-8z"/>
   <path class="fil2" d="M701 523c-4,3 -4,5 -3,10 1,4 1,6 5,8l-2 -18z"/>
   <path class="fil2" d="M479 752c-1,-4 -4,-5 -8,-6 -4,-1 -7,-1 -9,2 2,1 16,4 17,4z"/>
   <path class="fil2" d="M632 413c-4,-1 -7,-6 -11,-8 0,6 2,7 5,9 3,2 4,4 9,2 -1,-2 -1,-1 -2,-2 -1,-1 -1,-1 -1,-1z"/>
   <path class="fil2" d="M668 450l0 0c-1,-1 -1,-1 -2,-2 -1,6 0,6 2,10 2,3 3,5 8,5 -2,-5 -6,-7 -8,-13z"/>
   <path class="fil2" d="M357 449c-2,4 -3,6 -6,9 0,1 -1,1 -1,1 0,0 -1,1 -1,1 0,1 0,0 0,1l-1 2c7,0 13,-12 10,-14 0,0 0,0 0,0 0,0 -1,0 -1,0 0,0 0,0 0,0z"/>
   <path class="fil2" d="M344 468c-1,4 -2,6 -5,10l-1 2 0 1c5,0 5,-2 7,-6 2,-3 3,-5 1,-9l-1 1c-1,0 -1,1 -1,1z"/>
   <path class="fil2" d="M398 712c-4,-2 -4,-4 -9,-2 0,1 0,1 3,3 6,3 7,7 11,7 0,-4 -2,-6 -5,-8z"/>
   <path class="fil0" d="M752 378c2,-5 6,-8 7,-12 -1,0 -11,6 -12,7 1,1 3,4 5,5z"/>
   <path class="fil2" d="M669 674c0,-2 4,-7 6,-9l1 -1 -1 -1c-4,0 -5,2 -7,5 -2,4 -4,5 -2,9 2,-1 1,-1 3,-3z"/>
   <path class="fil2" d="M407 724c4,2 8,4 11,6 0,1 0,1 0,1l1 0 2 0c-1,-4 -3,-5 -6,-7 -4,-2 -5,-3 -10,-2l2 2c0,0 0,0 0,0z"/>
   <path class="fil2" d="M618 404c-2,-3 -8,-4 -10,-7 -2,-2 -2,-2 -5,-2 1,7 12,11 15,9z"/>
   <path class="fil2" d="M562 748c-2,-4 -7,-2 -10,-2 -4,1 -6,2 -7,6l17 -4z"/>
   <path class="fil2" d="M700 603c1,-2 1,-6 2,-9 0,-4 1,-5 1,-9 -4,1 -4,4 -5,8 -1,5 -1,7 2,10z"/>
   <path class="fil2" d="M319 569l1 13c3,-1 4,-4 3,-9 0,-4 0,-7 -3,-8l-1 4z"/>
   <path class="fil2" d="M705 565c-4,1 -4,4 -5,8 0,5 0,7 4,9l1 -17z"/>
   <path class="fil2" d="M524 753c1,1 3,1 4,1l11 -1c0,0 0,-1 1,0 0,0 0,-1 0,-1 0,0 1,0 1,0 -2,-3 -3,-3 -8,-2 -5,0 -8,0 -9,3z"/>
   <path class="fil2" d="M652 434c0,5 2,5 4,8 2,2 3,4 8,4 -2,-4 -5,-5 -8,-10 -1,0 -2,-1 -2,-1 -1,-1 -1,-1 -1,-2l-1 1z"/>
   <path class="fil2" d="M500 754c-2,-4 -4,-4 -9,-4 -4,-1 -7,-1 -9,2l18 2z"/>
   <path class="fil0" d="M831 494c2,-1 4,-3 6,-4 1,-2 4,-3 5,-5l-14 3 3 6z"/>
   <path class="fil2" d="M528 372l-4 1c2,3 4,3 8,3 5,1 8,1 9,-3 -4,0 -9,0 -13,-1z"/>
   <path class="fil2" d="M320 557c0,1 0,1 0,2 0,1 -1,-1 0,1 0,1 0,0 0,1 4,-3 6,-15 0,-17l0 13z"/>
   <path class="fil0" d="M343 313l6 -4c-1,-1 -3,-3 -4,-5l-6 -6 4 15z"/>
   <path class="fil2" d="M688 650c0,6 -5,9 -6,13 5,0 7,-4 10,-10l-3 -4c0,1 0,1 -1,1z"/>
   <path class="fil2" d="M686 646c0,-1 0,-1 -1,-1 -4,1 -5,2 -6,6 -2,3 -4,5 -2,8l3 -2c1,-3 2,-5 4,-8l1 -2c0,0 0,0 0,-1 0,0 1,0 1,0z"/>
   <path class="fil2" d="M492 367c1,-1 3,0 5,0 1,-1 0,-1 0,-3 -2,-1 -13,-2 -15,5l10 -2z"/>
   <path class="fil2" d="M482 374c2,2 3,3 7,3 2,0 6,-1 8,-2l0 -3c-2,0 -5,1 -7,1 -2,0 -3,0 -4,0 -4,0 -3,1 -4,1z"/>
   <path class="fil2" d="M342 463c-5,-2 -9,7 -10,10l2 3c1,0 1,0 1,-1l0 0c2,-4 4,-8 6,-11 0,0 0,0 1,0 0,0 0,0 0,0 0,0 0,0 0,-1z"/>
   <path class="fil2" d="M682 463c1,2 2,4 4,6 1,3 2,4 3,8 1,-1 3,-4 3,-4 0,0 -3,-10 -10,-10z"/>
   <path class="fil2" d="M342 662l-1 -1c-2,-3 -5,-7 -5,-10l-2 -1 -2 3c1,2 2,5 3,6 2,3 3,4 6,4 1,-1 1,1 1,-1z"/>
   <path class="fil4" d="M359 248l1 10 3 -2 1 -10c-3,0 -5,1 -5,2z"/>
   <path class="fil2" d="M459 747c-1,-3 -2,-4 -5,-5 -2,-1 -4,-2 -6,-2l-1 3c4,1 7,4 12,4z"/>
   <path class="fil2" d="M577 743l-1 -3c-2,0 -6,1 -7,2 -2,1 -4,3 -4,5l12 -4z"/>
   <path class="fil2" d="M694 628c4,-1 4,-1 5,-4 1,-3 2,-5 2,-7 -3,-4 -6,8 -7,11z"/>
   <path class="fil2" d="M447 383l1 3c5,-1 10,-2 11,-7l-12 4z"/>
   <path class="fil2" d="M323 510c3,1 3,-2 4,-5 1,-2 2,-4 3,-6l-4 0c-1,3 -4,8 -3,11z"/>
   <path class="fil0" d="M653 244c8,3 10,-5 2,-6l-2 6z"/>
   <path class="fil2" d="M519 370c4,0 9,1 12,1 1,-2 1,-1 0,-3 -1,-1 -6,-1 -9,0l-3 0 0 2z"/>
   <path class="fil0" d="M280 273l3 6c8,-4 3,-12 -3,-6z"/>
   <path class="fil0" d="M218 336c2,-3 5,-6 0,-8 -3,0 -4,1 -5,3l5 5z"/>
   <path class="fil4" d="M345 459c3,-3 1,-5 5,-4 1,3 -1,3 -1,6 0,-1 0,0 0,-1 0,0 1,-1 1,-1 0,0 1,0 1,-1 3,-3 4,-5 6,-9 -1,0 -1,0 -1,1 -1,0 -3,3 -4,3 -4,1 0,-5 0,-5 -3,2 -6,8 -7,11z"/>
   <path class="fil4" d="M669 674c1,0 1,-1 2,-1 1,-1 2,0 2,0 0,3 -2,4 -3,7l5 -6c2,-3 3,-3 4,-7l-2 3c-1,1 -1,1 -2,1 -4,1 0,-6 1,-7l-1 1c-2,2 -6,7 -6,9z"/>
   <path class="fil2" d="M453 376l4 -2c-1,-2 -3,-2 -6,-2 -3,1 -3,2 -3,5l5 -1z"/>
   <path class="fil2" d="M576 749l-10 3c2,3 6,2 9,1l1 -4z"/>
   <path class="fil2" d="M454 754c2,0 3,-1 3,-2l-9 -3c1,3 0,4 3,5 1,0 1,0 3,0z"/>
   <path class="fil4" d="M624 719c2,-1 2,-1 3,-1 2,-1 3,1 2,2l-2 2c0,0 0,0 0,0 3,0 7,-4 9,-6l0 -1c-2,1 -3,4 -5,2 0,-1 -2,-1 1,-4l3 -2 -11 8z"/>
   <path class="fil0" d="M243 315c1,-1 2,-1 3,-3 -2,-2 -5,-4 -8,-5l5 8z"/>
   <polygon class="fil0" points="600,231 605,232 604,222 "/>
   <path class="fil2" d="M593 736c1,0 3,-1 4,-1 2,-1 3,-1 4,-2 -4,-2 -10,-3 -8,3z"/>
   <path class="fil2" d="M431 733c-2,-2 -5,-2 -8,0 1,1 1,1 3,1 6,3 5,1 5,-1z"/>
   <path class="fil2" d="M423 393c3,2 5,1 8,1l0 -4c-2,0 -3,1 -5,1 -1,1 -2,1 -3,2z"/>
   <path class="fil2" d="M686 646c-1,3 -5,7 1,7l1 -3c0,-3 0,-2 -1,-4 -1,0 -1,0 -1,0z"/>
   <polygon class="fil0" points="792,326 784,331 787,334 "/>
   <path class="fil2" d="M593 393c3,2 4,2 7,0 -1,-1 -4,-2 -6,-3 -1,2 -1,2 -1,3z"/>
   <path class="fil2" d="M338 480c0,-2 2,-4 2,-7 -3,-1 -3,0 -4,1 -1,3 -1,4 0,5 1,2 0,1 2,1z"/>
   <path class="fil2" d="M685 479l2 1 2 -2c0,-1 -2,-7 -5,-4 0,2 1,2 1,5z"/>
   <path class="fil2" d="M336 651c0,0 0,0 0,0l2 2c4,-1 0,-5 -1,-7l-1 1c-1,1 -1,1 -1,2l1 2z"/>
   <path class="fil3" d="M318 571c1,-1 -1,1 1,-1 0,0 0,0 0,-1 0,0 0,0 0,0l1 -4c-1,-1 -1,0 -1,-3l1 -1c0,-1 0,0 0,-1 -1,-2 0,0 0,-1 0,-1 0,-1 0,-2 -1,-1 0,0 -1,-1 0,-1 -1,-1 -1,-1 0,-1 0,-1 0,-1l0 17z"/>
   <path class="fil3" d="M520 373l-1 -1 1 0 4 1 4 -1c1,-1 2,0 3,-1 -3,0 -8,-1 -12,-1 0,1 0,2 0,2 0,2 -1,0 1,1z"/>
   <path class="fil3" d="M502 478c0,0 -1,0 0,-1 1,0 1,0 1,0 0,-2 1,-5 0,-5l0 5 -4 0 0 -1 1 -4 -2 0c0,3 -1,3 0,6l4 0z"/>
   <polygon class="fil2" points="503,472 500,472 499,476 499,477 503,477 "/>
   <path class="fil2" d="M497 368l-3 0 -2 1c0,3 2,3 5,2l0 -3z"/>
   <path class="fil2" d="M425 739c-1,-1 -3,-1 -4,-2 0,2 0,3 1,4 1,0 2,-1 3,-2z"/>
   <path class="fil2" d="M599 386c1,2 0,1 2,2 1,0 1,1 2,1l-1 -4 -3 1z"/>
   <path class="fil3" d="M524 755c3,1 4,-1 7,0 -1,-1 0,0 -1,-1 -1,0 -1,1 -1,0 0,0 -1,0 -1,0 -1,0 -3,0 -4,-1 0,1 0,0 0,2z"/>
   <path class="fil2" d="M599 739c1,2 1,2 3,2l1 -4 -4 2z"/>
   <path class="fil3" d="M652 434l1 -1c0,1 0,1 1,2 0,0 1,1 2,1 0,-1 -1,-1 1,-1l-4 -4c-1,2 0,0 -1,3z"/>
   <path class="fil2" d="M421 389c1,-1 2,-1 3,-3 -1,-1 0,-1 -2,-1l-1 4z"/>
   <path class="fil3" d="M494 368l3 0 0 -1c-2,0 -4,-1 -5,0 3,0 1,0 2,1z"/>
   <path class="fil3" d="M540 369l-1 0c0,0 -1,0 1,1 2,0 1,0 2,0 0,-2 1,-1 0,-2l-2 1z"/>
   <path class="fil2" d="M694 626c-1,0 -2,0 -2,0 -2,1 -1,0 -1,1l2 1 1 -2z"/>
   <path class="fil2" d="M330 500c0,0 0,2 3,-1 0,0 -1,-1 -2,-1 -1,0 -1,1 -1,2z"/>
   <path class="fil3" d="M519 368l3 0 -1 -1 -2 -1 1 -1c-1,0 0,-1 -1,0l0 3z"/>
   <path class="fil3" d="M491 469c0,-2 1,0 1,-2 -1,-3 1,1 -1,-1 -2,5 -1,1 0,3z"/>
   <path class="fil2" d="M694 500c-1,-2 -1,-3 -3,-1l3 1z"/>
   <path class="fil3" d="M315 583c1,-1 0,0 1,-1 0,-1 1,0 0,-1 0,-1 0,-1 0,-1l-1 0 0 3z"/>
   <path class="fil2" d="M576 382c1,-1 1,1 1,-2 -1,-1 -1,-1 -1,-2 -1,2 -1,2 0,4z"/>
   <path class="fil2" d="M576 748c0,-1 0,-1 0,-2 1,-3 1,0 0,-1 -1,1 -1,1 0,3z"/>
   <path class="fil2" d="M448 381c1,-1 1,-1 0,-2 0,0 -1,0 -1,1 0,3 0,1 1,1z"/>
   <path class="fil2" d="M448 747c1,-1 1,-1 0,-2 -1,0 -1,0 -1,1 0,2 1,1 1,1z"/>
   <path class="fil3" d="M540 753l1 0 0 -1c0,0 -1,0 -1,0 0,0 0,1 0,1 -1,-1 -1,0 -1,0l1 0z"/>
   <path class="fil4" d="M379 417c1,0 2,0 2,-1 1,-1 1,0 1,-1 0,0 -1,1 -1,1 0,0 -1,0 -1,0 0,1 0,1 -1,1z"/>
   <path class="fil4" d="M643 416c0,1 0,1 1,1l2 2c-1,-1 0,-1 -1,-2 0,0 -1,0 -1,0 0,0 -1,0 -1,-1z"/>
   <path class="fil4" d="M353 680c0,-2 1,0 0,-1 -1,-2 -1,-1 -1,-1 0,1 -1,0 0,1 1,1 1,0 1,1z"/>
   <polygon class="fil2" points="521,367 520,365 519,366 "/>
   <path class="fil4" d="M358 686c0,-1 0,-1 0,-1 -1,-1 -1,-1 -1,-1 0,1 -1,0 0,1 1,1 1,1 1,1z"/>
   <path class="fil4" d="M507 729c0,0 -1,-1 -1,-2 -1,1 0,2 1,2z"/>
   <path class="fil4" d="M389 415l2 -2c0,0 -1,0 -1,1 -2,1 -1,0 -1,1z"/>
   <polygon class="fil2" points="520,373 520,372 519,372 "/>
   <path class="fil4" d="M656 430c1,1 -1,0 2,1l-2 -1z"/>
   <polygon class="fil3" points="623,230 623,230 623,230 "/>
   <polygon class="fil3" points="227,332 225,331 225,328 225,331 "/>
  </g>
 </g>
</svg>
