<?xml version="1.0" encoding="UTF-8"?>
<!DOCTYPE svg PUBLIC "-//W3C//DTD SVG 1.1//EN" "http://www.w3.org/Graphics/SVG/1.1/DTD/svg11.dtd">
<!-- Creator: CorelDRAW X7 -->
<svg xmlns="http://www.w3.org/2000/svg" xml:space="preserve" width="1024px" height="1024px" version="1.1" style="shape-rendering:geometricPrecision; text-rendering:geometricPrecision; image-rendering:optimizeQuality; fill-rule:evenodd; clip-rule:evenodd"
viewBox="0 0 1024 1024"
 xmlns:xlink="http://www.w3.org/1999/xlink">
 <defs>
  <style type="text/css">
   <![CDATA[
    .fil0 {fill:black}
   ]]>
  </style>
 </defs>
 <g id="Layer_x0020_1">
  <metadata id="CorelCorpID_0Corel-Layer"/>
  <g id="_2377127338512">
   <path class="fil0" d="M997 389c1,6 -2,20 -3,27 -9,64 -19,111 -35,175 -23,95 -69,218 -114,305 -7,14 -14,27 -21,40 -14,25 -8,21 -22,23 -4,1 -8,2 -12,2 -54,10 -104,16 -159,21 -77,6 -155,6 -232,1 -67,-5 -120,-13 -185,-25 -3,-1 -3,-1 -4,-4l-28 -54c-19,-37 -41,-85 -57,-123 -51,-130 -79,-240 -98,-382 -1,-7 -1,-6 3,-10l37 -38c5,-5 10,-10 15,-14l95 -85c12,-9 23,-18 34,-27 21,-16 47,-35 69,-51l36 -24c12,-8 24,-15 37,-23 45,-28 108,-60 156,-83 3,-2 3,-1 6,0l15 7c20,10 41,20 60,31 13,7 26,14 39,21 76,42 172,109 238,166 2,1 3,2 4,3l12 11c3,2 6,4 8,7l70 65c2,3 4,6 7,8 6,5 9,10 15,15 4,4 11,13 14,15zm-985 -4c0,5 5,39 6,45 1,5 1,10 2,15 4,28 11,67 17,93l3 15c1,2 2,5 2,7l12 47c1,3 1,4 2,7l7 27c2,4 3,8 4,12 12,39 25,78 40,115 1,2 1,3 2,6l5 12c1,2 2,4 3,6l5 12c1,2 1,4 2,6 5,10 11,26 16,36 5,10 10,21 15,32l13 25c8,17 17,34 26,51 1,2 2,3 3,5 1,2 2,4 3,6 1,2 1,4 4,5 4,1 9,1 14,2 32,7 64,11 96,16 4,0 10,1 15,2l31 3c5,0 11,1 15,1 11,2 21,2 32,3 14,1 27,2 41,2 3,0 4,0 8,0 11,0 22,1 34,1 29,0 60,1 90,-2l16 0c4,0 5,-1 8,-1 11,0 21,-1 32,-2 7,0 16,-2 24,-2 5,0 10,-1 15,-2 14,0 61,-7 76,-9l44 -8c5,-1 10,-2 15,-2 2,-1 10,-1 11,-3 2,-3 6,-10 7,-13l15 -28c1,-1 1,-1 2,-2l20 -40c1,-1 1,-2 1,-3 1,-1 1,-1 2,-3 9,-20 20,-41 28,-62l10 -24c5,-10 8,-20 12,-30 6,-15 11,-30 17,-44 3,-9 6,-18 8,-26l13 -39c1,-4 2,-9 4,-13 1,-4 2,-9 3,-14l10 -33c3,-13 12,-52 14,-63l3 -14c1,-5 2,-10 3,-14l4 -22c1,-3 1,-4 1,-7 2,-15 6,-29 8,-44l6 -46c0,-1 -5,-5 -6,-7 -1,-1 -2,-2 -3,-3 0,0 0,0 -1,0 0,0 0,-1 0,-1l-43 -43c-4,-4 -9,-9 -13,-14 -1,-1 -2,-1 -3,-3 -1,0 -1,0 -1,0l-17 -16c-3,-2 -4,-4 -7,-7l-14 -13c-9,-8 -49,-42 -58,-49l-46 -35c-10,-8 -21,-15 -31,-23 -10,-7 -25,-17 -36,-24 -1,-1 -1,-1 -2,-1l-26 -18c-11,-7 -38,-23 -51,-30 -1,-1 -2,-2 -4,-3 -7,-4 -14,-8 -21,-12l-22 -12c-1,0 -1,-1 -2,-1 -7,-4 -14,-7 -20,-11l-11 -5c-1,-1 -1,-1 -2,-1l-14 -7c-2,-1 -2,-1 -4,-2 -5,-3 -40,-20 -42,-20 -3,0 -27,12 -32,14 0,1 -1,1 -2,1l-38 20c-3,1 -6,2 -9,4 -12,6 -23,13 -35,19l-43 25c-14,8 -27,16 -41,26 -3,2 -5,3 -8,5l-24 16c-3,2 -5,4 -8,5l-55 40c-8,6 -15,12 -22,18 -11,8 -35,26 -45,36l-71 64c-2,2 -5,4 -7,6 -2,3 -4,5 -7,7 -2,2 -4,5 -6,7l-34 34c-1,1 -13,13 -13,14z"/>
   <path class="fil0" d="M694 350c1,1 0,0 1,1l5 3 19 -21c-2,3 -11,22 -12,26 1,1 3,3 5,4l23 -17c-1,2 -14,18 -17,23 1,1 5,3 6,4l22 -30c-1,-2 -6,-6 -8,-7 -7,5 -15,11 -21,16 1,-4 9,-17 11,-24 -3,-2 -6,-4 -8,-6 -2,1 -5,4 -6,6l-16 18c-2,1 -3,2 -4,4z"/>
   <path class="fil0" d="M189 676c2,3 11,8 15,12l-6 18c6,-3 11,-8 16,-11 5,3 12,9 16,11l-5 -18c2,-2 5,-5 7,-6 3,-2 6,-4 8,-6l-19 -1 -7 -17c-1,2 -2,6 -3,9 -1,2 -2,5 -3,8l-19 1z"/>
   <path class="fil0" d="M800 676c3,3 12,8 15,12l-5 18c5,-3 10,-8 16,-11 5,3 10,8 16,11l-6 -18c3,-4 13,-9 15,-12l-19 -1 -7 -17 -6 17 -19 1z"/>
   <path class="fil0" d="M501 291l7 1 1 -27c3,5 9,24 12,27l8 1 2 -38 -7 0 -1 25c-2,-4 -4,-9 -6,-13l-5 -12c-1,-2 -7,-1 -10,-1 0,5 -2,34 -1,37z"/>
   <path class="fil0" d="M203 458l-28 -1 -4 9 34 17c1,-1 2,-4 3,-6l-18 -9c-1,-1 -2,-1 -3,-2l-3 -1 30 1 4 -8 -33 -18 -4 7c3,1 9,4 11,6 2,1 4,2 6,3l5 2z"/>
   <path class="fil0" d="M772 396c3,-2 6,-5 10,-7 2,1 5,5 5,9 0,10 -19,18 -24,6l9 -8zm-19 6c1,4 11,16 21,16 9,0 19,-8 21,-16 2,-9 -9,-21 -13,-23 -3,1 -5,3 -8,5 -2,2 -4,4 -7,6 -2,2 -4,3 -7,6 -2,2 -5,3 -7,6z"/>
   <path class="fil0" d="M622 292c-4,17 -21,13 -17,-3 5,-17 21,-13 17,3zm-10 -21c-22,5 -21,44 4,39 9,-2 15,-12 15,-22 0,-10 -8,-19 -19,-17z"/>
   <path class="fil0" d="M552 265c13,-5 13,21 3,24 -12,4 -13,-20 -3,-24zm-1 -7c-20,4 -20,43 6,38 9,-2 14,-12 14,-22 -1,-11 -9,-19 -20,-16z"/>
   <path class="fil0" d="M677 306c14,-4 9,20 -2,23 -13,3 -10,-20 2,-23zm-3 -7c-5,1 -8,4 -11,7 -12,16 -1,33 15,30 8,-2 16,-12 16,-21 1,-11 -9,-19 -20,-16z"/>
   <path class="fil0" d="M817 456c1,-1 7,-5 9,-5 2,4 5,8 0,10 -5,2 -8,-2 -9,-5zm-6 3c3,3 2,6 -1,9 -4,4 -2,2 -7,7l4 7c1,-2 2,-2 4,-4 4,-4 7,-6 8,-11 4,2 7,3 11,1 13,-7 1,-24 -3,-27l-33 18 4 7 13 -7z"/>
   <path class="fil0" d="M250 365c3,-2 5,-7 10,-2 4,4 -1,8 -3,10 -4,-3 -7,-8 -7,-8zm-10 2l20 19c1,2 5,5 7,7 1,-1 5,-4 5,-5 -1,-3 -6,-6 -10,-11 3,-2 4,-5 9,-2 2,2 6,4 9,5 2,-1 4,-3 5,-5 -2,-2 -5,-4 -8,-5 -3,-2 -5,-3 -9,-3 1,-11 -8,-15 -13,-13 -6,1 -12,9 -15,13z"/>
   <path class="fil0" d="M438 264c4,0 9,-1 9,4 1,5 -3,6 -7,7 -2,-2 -2,-8 -2,-11zm-9 -4l6 37 7 -1 -2 -15c10,-2 8,7 13,13l7 -1c1,-1 1,0 -1,-4 -2,-6 -4,-11 -8,-13 1,-1 4,-3 4,-8 0,-15 -18,-10 -26,-8z"/>
   <path class="fil0" d="M174 500c-5,-2 -11,-6 -16,-7l-3 7c6,3 14,7 21,9 10,4 17,2 20,-6 4,-10 -2,-16 -8,-19 -7,-3 -15,-7 -22,-10 -1,2 -2,5 -3,7 7,6 30,9 27,18 -3,8 -12,2 -16,1z"/>
   <path class="fil0" d="M471 254l-8 1c0,3 1,21 1,24 2,9 5,14 15,13 19,0 13,-22 13,-39l-8 1c-1,13 5,31 -5,31 -10,1 -6,-18 -8,-31z"/>
   <path class="fil0" d="M822 433c0,-3 -2,-5 -4,-7 -9,4 -24,20 -30,12 -6,-9 16,-16 23,-23 -1,-1 -1,-2 -2,-3l-2 -3 -19 12c-7,4 -12,12 -6,21 5,7 12,8 21,3 5,-3 16,-11 19,-12z"/>
   <path class="fil0" d="M343 313l-4 -15 6 6c1,2 3,4 4,5l-6 4zm-11 -19c0,4 7,36 8,38 3,0 6,-2 7,-4l-2 -9 9 -4c2,2 4,5 7,7l7 -4c-1,-2 -5,-6 -6,-7l-21 -21 -9 4z"/>
   <path class="fil0" d="M831 494l-3 -6 14 -3c-1,2 -4,3 -5,5 -2,1 -4,3 -6,4zm-20 -3l10 -2c1,3 4,7 4,10 -2,1 -6,4 -7,6l3 7c1,0 0,0 2,-1l14 -12c1,-1 2,-1 3,-3 1,-1 2,-1 3,-1l8 -8 -4 -9c-4,0 -37,5 -39,6l3 7z"/>
   <path class="fil0" d="M752 378c-2,-1 -4,-4 -5,-5 1,-1 11,-7 12,-7 -1,4 -5,7 -7,12zm-25 -2l6 6 8 -5c2,1 6,5 7,7l-5 8 4 5c1,1 1,0 2,1l2 -2c0,-1 0,-1 1,-2l12 -21c1,-3 4,-6 5,-9 -1,-2 -6,-6 -8,-7 0,0 -32,17 -34,19 0,0 0,0 0,0z"/>
   <path class="fil0" d="M220 390l14 12c3,2 13,11 15,12 3,-3 5,-5 7,-8l7 -9c-1,-1 -3,-3 -5,-4 -2,1 -1,1 -2,2l-7 8c-2,0 -6,-4 -7,-5l2 -3c1,-2 5,-5 6,-7 -1,-1 -4,-4 -5,-4l-5 4c-1,2 -2,3 -4,5 -2,-1 -3,-3 -5,-4 0,-3 6,-8 8,-11 -1,-1 -4,-3 -5,-4l-11 12c-1,1 -2,3 -3,4z"/>
   <path class="fil0" d="M211 402c1,3 16,18 19,22l-28 -10 -3 3c0,1 -1,3 -2,4l38 13c1,-2 4,-6 5,-8 -4,-6 -22,-27 -24,-31 -2,1 -4,5 -5,7z"/>
   <path class="fil0" d="M370 308l1 7c13,1 26,-10 17,-21 -5,-6 -10,-2 -17,-4 -3,-1 -6,-8 9,-9l-1 -7c-13,-2 -25,13 -14,22 5,4 14,1 17,4 4,6 -5,8 -12,8z"/>
   <path class="fil0" d="M283 365l3 6c8,-1 18,-10 14,-19 -1,-4 -5,-8 -11,-7 -6,0 -9,4 -14,0 -1,-5 4,-7 8,-8l-3 -7c-12,2 -19,21 -6,25 7,2 15,-4 18,-1 5,4 -4,9 -9,11z"/>
   <path class="fil0" d="M635 318l7 3c5,-8 2,-11 10,-17 2,-2 13,-11 15,-13l-7 -3 -13 12 1 -18 -8 -3c0,7 0,15 1,22 0,6 -5,12 -6,17z"/>
   <path class="fil0" d="M395 267c0,3 1,6 2,7l8 -2 8 30 8 -2c0,-6 -7,-26 -7,-30l8 -2 -1 -7 -26 6z"/>
   <path class="fil0" d="M299 315l4 6c2,-1 5,-4 8,-5l16 25c2,0 3,-1 4,-2 1,0 1,-1 2,-1 0,0 0,0 0,0 1,-1 1,-1 1,-1 -5,-8 -13,-19 -17,-26l8 -5c-1,-2 -3,-4 -4,-6l-22 15z"/>
   <path class="fil0" d="M140 424l21 14 2 -5 -11 -6c-1,-1 -2,-2 -3,-3l17 5 2 -4c-4,-4 -10,-10 -13,-13l17 8 2 -5 -22 -10c-2,1 -3,4 -4,6 3,1 5,5 6,6l6 6 -16 -4 -4 5z"/>
   <path class="fil0" d="M572 292c-1,2 -2,4 -2,7 10,3 17,3 20,-8 1,-5 5,-20 6,-25l-8 -2c-2,6 -3,12 -4,19 -3,11 -4,11 -12,9z"/>
   <path class="fil0" d="M788 349c0,2 1,4 3,4l13 -11c-2,6 -6,13 -7,18l3 4c3,-1 11,-9 14,-11 1,-1 2,-2 3,-3 1,0 1,0 2,-2l-3 -3c-3,2 -4,3 -7,5 -2,2 -3,4 -6,6l7 -17c-1,-3 -2,-3 -4,-5 -2,1 -7,6 -9,8l-9 7z"/>
   <polygon class="fil0" points="678,269 683,272 691,256 691,276 696,278 707,257 703,254 695,269 696,250 690,248 "/>
   <path class="fil0" d="M258 284l11 12 -17 -7c-2,1 -4,2 -5,4 2,3 14,17 15,19 2,-1 2,-2 4,-3 -1,-3 -4,-5 -5,-7 -2,-2 -4,-4 -6,-7l18 8c2,-1 3,-2 4,-3 0,-2 -14,-18 -15,-19 -2,1 -2,1 -4,3z"/>
   <path class="fil0" d="M623 230l0 0 0 0 3 19 6 2 7 -24 -5 -1 -4 16c-1,-7 -2,-12 -4,-18l-6 -3 -7 24 5 1 5 -16z"/>
   <path class="fil0" d="M824 396l3 3 14 -9c-1,3 -8,13 -9,17l3 5c3,-2 7,-5 10,-7 3,-2 7,-4 10,-7l-2 -4c-3,2 -12,8 -14,10 1,-4 8,-13 9,-17l-3 -5 -16 10c-2,1 -4,2 -5,4z"/>
   <path class="fil0" d="M175 371c1,1 11,8 13,9 -5,0 -12,-2 -19,-2 -1,1 -2,4 -3,5l20 14c1,-2 2,-2 3,-4l-15 -10 20 3c1,-2 3,-3 3,-5 -1,-2 -18,-13 -20,-14l-2 4z"/>
   <path class="fil0" d="M440 208l3 16c-3,-5 -10,-13 -11,-15 -2,0 -4,0 -6,1l3 24 5 -1 -3 -17 12 16c2,0 4,0 6,-1l-4 -24c-2,0 -3,0 -5,1z"/>
   <path class="fil0" d="M576 216c6,0 10,4 8,10 -1,6 -4,7 -11,6l3 -16zm-9 19c3,1 20,6 23,-8 3,-12 -8,-15 -18,-16 -1,2 -5,21 -5,24z"/>
   <path class="fil0" d="M706 280l9 -14c12,3 3,22 -9,14zm-6 0c2,3 7,6 12,7 11,2 19,-12 12,-20 -2,-2 -8,-6 -12,-7l-12 20z"/>
   <path class="fil0" d="M735 299c1,-4 8,-10 10,-13 5,1 7,7 3,12 -4,5 -7,3 -13,1zm-6 0c5,3 14,13 24,2 8,-10 -3,-19 -10,-22 -1,2 -14,19 -14,20z"/>
   <path class="fil0" d="M460 210c8,-3 11,13 4,16 -8,3 -11,-13 -4,-16zm-1 -4c-14,3 -10,28 6,24 14,-4 10,-28 -6,-24z"/>
   <path class="fil0" d="M510 221c-2,9 -13,4 -10,-7 2,-10 14,-5 10,7zm-7 -16c-14,3 -12,28 5,24 13,-2 11,-27 -5,-24z"/>
   <path class="fil0" d="M192 434c5,3 28,18 30,19 1,-3 3,-4 4,-7 -2,-1 -5,-3 -8,-5l-24 -15c-2,2 -3,4 -4,7l2 1z"/>
   <path class="fil0" d="M848 426c-1,-3 -3,-5 -2,-9 1,-3 8,-8 13,-3 3,3 2,5 4,7l4 -1c-1,-10 -11,-17 -21,-11 -12,7 -3,20 2,23 3,-2 8,-5 11,-7l-4 -7 -4 2 1 3 -4 3z"/>
   <path class="fil0" d="M213 331c1,-2 2,-3 5,-3 5,2 2,5 0,8l-5 -5zm14 1l-2 -1 0 -3c-4,-10 -14,-4 -19,4l9 9c3,2 7,6 10,8l3 -4c-2,-2 -6,-5 -7,-7 3,-5 7,1 12,2 1,-2 2,-2 3,-4 0,0 0,0 0,0l-2 -1c-1,-1 -1,-1 -2,-1 -2,-1 -2,-2 -5,-2z"/>
   <path class="fil0" d="M539 230l1 -13 -9 0 0 4 4 0 -1 5c-6,1 -10,-3 -9,-9 2,-7 8,-7 14,-5l1 -4c-8,-2 -19,-3 -21,9 -1,12 9,16 20,13z"/>
   <path class="fil0" d="M280 273c6,-6 11,2 3,6l-3 -6zm-7 0l14 20 4 -3 -5 -8c2,-1 3,-2 6,0 2,1 1,1 5,4l4 -3c-1,-2 -6,-6 -10,-7 1,-3 2,-4 0,-7 -1,-2 -3,-3 -6,-3 -4,0 -10,5 -12,7z"/>
   <path class="fil0" d="M287 324c4,5 8,10 11,15l12 15c2,-2 4,-3 6,-5l-23 -30c-2,1 -5,4 -6,5z"/>
   <path class="fil0" d="M522 628c10,-6 21,-6 31,1 9,5 13,11 28,12 2,-7 4,-5 4,-6 0,0 0,0 1,0 -7,1 -13,0 -19,-3 -11,-4 -13,-12 -28,-13 -8,0 -11,2 -17,5l0 4z"/>
   <path class="fil0" d="M438 635c1,1 0,0 1,1 5,1 2,1 4,5 22,0 23,-17 43,-17 9,-1 10,2 16,4l-1 -4c-10,-8 -22,-6 -32,1 -8,5 -18,12 -31,10z"/>
   <path class="fil0" d="M859 446c-8,-12 12,-20 15,-3l4 -1c0,-10 -9,-18 -20,-12 -10,5 -6,17 1,23l10 -5 -3 -9 -3 2 1 3 -5 2z"/>
   <path class="fil0" d="M755 319c1,1 1,1 2,2 1,1 1,1 2,2 2,-2 3,-3 4,-4 2,-2 1,-2 5,-3l-3 12c3,2 2,3 5,4l3 -14c0,-1 0,-1 0,-2l13 -2c-1,-1 -1,-2 -2,-2 -1,-1 -2,-2 -3,-2l-12 3c2,-4 5,-5 7,-8 -2,-2 -3,-3 -4,-4l-12 14c-2,1 -3,2 -5,4z"/>
   <path class="fil0" d="M411 223l-3 -10 -5 1 5 24 5 -1c0,-5 -2,-6 0,-10 3,2 5,6 8,8l6 -1 -11 -12 6 -11c-8,0 -7,1 -8,4 -1,3 -2,6 -3,8z"/>
   <path class="fil0" d="M122 464l22 9 2 -5c-2,0 -3,-1 -5,-2 -2,-1 -3,-1 -3,-4l12 -1 2 -5 -16 1 -7 -10 -2 5c0,3 5,8 6,11l-9 -4 -2 5z"/>
   <path class="fil0" d="M604 222l1 10 -5 -1 4 -9zm-14 17l5 1 3 -5 6 1 1 7 5 1 -1 -25 -3 -1c-1,0 -2,-1 -4,-1 -1,2 -12,21 -12,22z"/>
   <path class="fil0" d="M787 334l-3 -3 8 -5 -5 8zm-16 -1c1,2 2,2 3,3l6 -3 5 5 -3 6c0,1 0,1 1,2l2 2 13 -23 -5 -4c-2,0 -22,11 -22,12z"/>
   <path class="fil0" d="M243 315l-5 -8c3,1 6,3 8,5 -1,2 -2,2 -3,3zm-10 -10c1,4 9,18 11,23 2,-1 3,-2 4,-4l-3 -5 5 -5 6 3c2,-1 3,-2 4,-3l-22 -13c-1,1 -4,3 -5,4z"/>
   <path class="fil0" d="M155 399c2,1 4,2 5,3 4,3 14,10 16,10 2,-3 7,-10 8,-13l-3 -1c-1,0 -5,6 -6,7l-5 -3c1,-2 4,-4 5,-7 -2,-1 -3,-2 -4,-2l-4 7c-2,-1 -3,-2 -5,-3 1,-3 4,-5 5,-8l-4 -2c-1,1 -7,10 -8,12z"/>
   <path class="fil0" d="M661 262l14 6 2 -4 -8 -4 2 -5 8 3 2 -4 -8 -4 2 -4 8 4 2 -4c-2,-2 -11,-6 -13,-6l-11 22z"/>
   <path class="fil0" d="M141 432l-4 -2 -6 13c1,1 20,10 22,11l6 -13 -4 -2 -4 8 -5 -3 4 -7 -4 -2c-1,1 -2,2 -2,4 -1,1 -1,1 -1,2l-2 1 -4 -2 4 -8z"/>
   <path class="fil0" d="M193 347c3,3 9,7 12,10l7 5c2,-1 9,-9 10,-11 -2,-1 -2,-2 -3,-2 -3,2 -4,4 -7,6 -2,-1 -3,-2 -4,-3 1,-1 5,-6 5,-7l-3 -2c-3,2 -4,4 -6,6 -1,-1 -3,-2 -4,-3 2,-3 5,-5 6,-7 -1,-2 -2,-2 -3,-3 -2,1 -3,4 -5,5 -2,2 -3,3 -5,6z"/>
   <path class="fil0" d="M318 246l11 21c1,0 12,-5 13,-6l-2 -4 -8 4 -2 -3c0,0 -1,-1 -1,-2l8 -4 -2 -4 -8 4 -2 -5 8 -4c-1,-1 -1,-2 -2,-4l-13 7z"/>
   <path class="fil0" d="M653 244l2 -6c8,1 6,9 -2,6zm-10 10l5 2 3 -8c6,3 14,2 14,-6 1,-6 -7,-9 -14,-10l-8 22z"/>
   <path class="fil0" d="M384 220l6 23 15 -4 -1 -4 -10 2 -1 -6 8 -2 -1 -4 -8 2c-1,-1 -1,-3 -2,-5 3,0 7,-1 9,-2l-1 -4 -14 4z"/>
   <path class="fil0" d="M310 272l1 4c13,1 18,-18 2,-17 -1,0 -2,1 -3,1 -1,0 -1,0 -1,-1 -1,0 -1,0 -1,0 -2,-4 3,-5 6,-6l-1 -4c-8,0 -15,10 -8,15 4,2 10,-1 12,1 4,4 -5,6 -7,7z"/>
   <path class="fil0" d="M334 237l2 5 6 -3 8 18 4 -1 -7 -19 5 -2 -1 -4c-4,0 -12,5 -17,6z"/>
   <path class="fil0" d="M180 364c1,1 1,2 3,3 2,-2 3,-3 4,-5 2,1 2,1 4,3l12 9c1,-1 2,-3 3,-4 -3,-3 -13,-10 -15,-12 1,-3 2,-3 3,-6l-3 -2 -11 14z"/>
   <path class="fil0" d="M822 359c1,3 2,2 3,5 -3,2 -12,10 -15,11 0,3 1,3 2,5 3,-1 6,-4 9,-6 2,-2 5,-4 8,-6 1,2 2,3 4,5 1,-1 2,-1 3,-3l-11 -14c-1,1 -2,1 -3,3z"/>
   <polygon class="fil0" points="363,226 364,230 370,228 377,247 382,246 375,227 381,225 380,220 "/>
   <path class="fil0" d="M478 229c3,1 11,0 15,0l0 -4 -10 -1 0 -19 -5 0 0 24z"/>
   <path class="fil0" d="M720 293l5 3c1,-2 13,-18 13,-20l-3 -3c-3,2 -14,19 -15,20z"/>
   <path class="fil0" d="M291 261c1,2 11,18 13,20l4 -2c0,-2 -11,-19 -13,-21l-4 3z"/>
   <path class="fil0" d="M884 451l-2 -4c-4,1 -8,3 -12,5 -3,1 -8,3 -11,5l3 5 22 -11z"/>
   <path class="fil0" d="M221 316l17 18 4 -4c-1,-2 -6,-7 -8,-9 -3,-2 -6,-6 -9,-8l-4 3z"/>
   <path class="fil0" d="M543 231c1,1 1,0 1,1l2 0c0,0 2,0 2,0l4 -24 -6 0 -3 23z"/>
   <path class="fil0" d="M818 388c1,1 2,2 3,4 3,-2 8,-5 10,-7 4,-3 7,-5 10,-7 0,-2 -1,-3 -3,-4l-20 14z"/>
   <path class="fil0" d="M748 313c2,2 2,2 4,3l16 -19c-2,0 -3,-2 -4,-2 -2,1 -3,2 -4,4l-12 14z"/>
   <path class="fil0" d="M359 248l1 10 3 -2 1 -10c-3,0 -5,1 -5,2z"/>
   <path class="fil0" d="M318 571c1,-1 -1,1 1,-1 0,0 0,0 0,-1 0,0 0,0 0,0l1 -4c-1,-1 -1,0 -1,-3l1 -1c0,-1 0,0 0,-1 -1,-2 0,0 0,-1 0,-1 0,-1 0,-2 -1,-1 0,0 -1,-1 0,-1 -1,-1 -1,-1 0,-1 0,-1 0,-1l0 17z"/>
   <path class="fil0" d="M520 373l-1 -1 1 0 4 1 4 -1c1,-1 2,0 3,-1 -3,0 -8,-1 -12,-1 0,1 0,2 0,2 0,2 -1,0 1,1z"/>
   <path class="fil0" d="M502 478c0,0 -1,0 0,-1 1,0 1,0 1,0 0,-2 1,-5 0,-5l0 5 -4 0 0 -1 1 -4 -2 0c0,3 -1,3 0,6l4 0z"/>
   <path class="fil0" d="M524 755c3,1 4,-1 7,0 -1,-1 0,0 -1,-1 -1,0 -1,1 -1,0 0,0 -1,0 -1,0 -1,0 -3,0 -4,-1 0,1 0,0 0,2z"/>
   <path class="fil0" d="M652 434l1 -1c0,1 0,1 1,2 0,0 1,1 2,1 0,-1 -1,-1 1,-1l-4 -4c-1,2 0,0 -1,3z"/>
   <path class="fil0" d="M494 368l3 0 0 -1c-2,0 -4,-1 -5,0 3,0 1,0 2,1z"/>
   <path class="fil0" d="M540 369l-1 0c0,0 -1,0 1,1 2,0 1,0 2,0 0,-2 1,-1 0,-2l-2 1z"/>
   <path class="fil0" d="M519 368l3 0 -1 -1 -2 -1 1 -1c-1,0 0,-1 -1,0l0 3z"/>
   <path class="fil0" d="M491 469c0,-2 1,0 1,-2 -1,-3 1,1 -1,-1 -2,5 -1,1 0,3z"/>
   <path class="fil0" d="M315 583c1,-1 0,0 1,-1 0,-1 1,0 0,-1 0,-1 0,-1 0,-1l-1 0 0 3z"/>
   <path class="fil0" d="M540 753l1 0 0 -1c0,0 -1,0 -1,0 0,0 0,1 0,1 -1,-1 -1,0 -1,0l1 0z"/>
   <path class="fil0" d="M379 417c1,0 2,0 2,-1 1,-1 1,0 1,-1 0,0 -1,1 -1,1 0,0 -1,0 -1,0 0,1 0,1 -1,1z"/>
   <path class="fil0" d="M643 416c0,1 0,1 1,1l2 2c-1,-1 0,-1 -1,-2 0,0 -1,0 -1,0 0,0 -1,0 -1,-1z"/>
   <path class="fil0" d="M353 680c0,-2 1,0 0,-1 -1,-2 -1,-1 -1,-1 0,1 -1,0 0,1 1,1 1,0 1,1z"/>
   <polygon class="fil0" points="521,367 520,365 519,366 "/>
   <path class="fil0" d="M358 686c0,-1 0,-1 0,-1 -1,-1 -1,-1 -1,-1 0,1 -1,0 0,1 1,1 1,1 1,1z"/>
   <path class="fil0" d="M507 729c0,0 -1,-1 -1,-2 -1,1 0,2 1,2z"/>
   <path class="fil0" d="M389 415l2 -2c0,0 -1,0 -1,1 -2,1 -1,0 -1,1z"/>
   <polygon class="fil0" points="520,373 520,372 519,372 "/>
   <path class="fil0" d="M656 430c1,1 -1,0 2,1l-2 -1z"/>
   <polygon class="fil0" points="623,230 623,230 623,230 "/>
   <polygon class="fil0" points="227,332 225,331 225,328 225,331 "/>
   <path class="fil0" d="M503 759c3,0 6,1 9,1 3,0 5,-1 9,-1 -1,4 -4,5 -9,4 -2,0 -4,0 -5,0 -4,-1 -3,-1 -4,-4zm21 0c4,0 6,0 10,0 3,-1 5,-2 8,-2 -1,4 -4,5 -8,5 -5,1 -9,1 -10,-3zm-42 -2c3,0 4,1 8,2 4,0 6,0 9,0 -1,6 -16,4 -17,-2zm10 -2c2,-1 7,0 11,0 2,0 11,0 7,3 -1,1 -8,0 -10,0 -3,0 -9,1 -8,-3zm-21 -3c3,-1 16,1 18,2 1,4 0,3 -3,3 -2,0 -4,-1 -6,-1 -6,-1 -10,0 -9,-4zm-10 1c4,0 7,3 13,3 5,0 3,0 4,1 -3,3 -4,3 -10,2 -4,-1 -7,-2 -7,-6zm84 4c3,-1 6,-1 10,-2 2,-1 6,-2 8,-2 -1,4 -3,5 -8,6 -4,1 -7,1 -10,-2zm-17 -3c0,0 1,0 1,0 0,1 0,0 1,0 1,1 0,0 1,1 1,1 1,-1 1,1 0,3 -3,2 -9,2 -3,1 -8,1 -10,0 0,-1 -1,-1 1,-2 0,-1 0,-1 1,-1 0,0 0,0 0,0 0,0 0,0 0,0l-12 0c1,-4 4,-4 9,-4 5,0 7,0 9,3l3 1c0,-2 0,-1 0,-2 1,-3 4,-3 9,-3 5,-1 6,-1 8,2l0 1c4,0 8,-2 11,-1l1 2c-2,2 -16,3 -17,3 -3,0 -3,-4 4,-4l-1 0 -11 1zm-28 0l-18 -2c2,-3 5,-3 9,-2 5,0 7,0 9,4zm-52 -5l9 3c0,1 -1,2 -3,2 -2,0 -2,0 -3,0 -3,-1 -2,-2 -3,-5zm127 4c-3,1 -7,2 -9,-1l10 -3 -1 4zm-20 -1c1,-2 10,-4 14,-5 2,-1 3,-2 4,0 -1,3 -4,3 -9,5 -6,2 -9,4 -9,0zm-105 -3c-1,-5 7,-2 9,-1 2,1 9,2 10,3 1,5 -18,-2 -19,-2zm95 3c1,-4 3,-5 7,-6 3,0 8,-2 10,2l-17 4zm-66 0c-1,0 -15,-3 -17,-4 2,-3 5,-3 9,-2 4,1 7,2 8,6zm-31 -7c1,1 1,1 0,2 0,0 -1,1 -1,-1 0,-1 0,-1 1,-1zm128 3c-1,-2 -1,-2 0,-3 1,1 1,-2 0,1 0,1 0,1 0,2zm-11 -1c0,-2 2,-4 4,-5 1,-1 5,-2 7,-2l1 3 -12 4zm-117 -7c2,0 4,1 6,2 3,1 4,2 5,5 -5,0 -8,-3 -12,-4l1 -3zm151 -1l4 -2 -1 4c-2,0 -2,0 -3,-2zm-178 -2c1,1 3,1 4,2 -1,1 -2,2 -3,2 -1,-1 -1,-2 -1,-4zm172 -1c-2,-6 4,-5 8,-3 -1,1 -2,1 -4,2 -1,0 -3,1 -4,1zm-170 -3c3,-2 6,-2 8,0 0,2 1,4 -5,1 -2,0 -2,0 -3,-1zm186 0c-4,1 -7,5 -11,6l-3 -2c2,-2 5,-3 8,-4 2,-1 9,-6 9,-2 0,2 -1,1 -3,2zm-190 -2l10 6 -3 2c-3,-1 -5,-3 -8,-4 -3,-1 -7,-3 -6,-6 1,0 0,0 2,0 1,0 3,2 5,2zm-14 -3c2,3 9,6 13,7 -3,4 -7,1 -10,0 -3,-2 -6,-4 -6,-9 2,1 2,1 3,2zm204 5c3,0 10,-4 11,-6l2 0c-1,5 -2,5 -6,8 -5,2 -5,3 -10,1 2,-3 1,0 3,-3zm-162 26l-11 -4c-3,4 -8,13 -11,16l4 -19 -11 -5c2,-2 14,-9 15,-10 2,-4 2,-16 5,-20l4 14 13 -7 -9 15c-3,5 0,9 1,20zm122 -35l13 7c0,0 0,1 0,-1 1,-3 3,-11 4,-13 6,22 1,17 12,25 2,1 5,4 8,5l-11 5 4 19c-1,0 -2,-2 -3,-4l-8 -11c-3,0 -8,2 -12,3 1,-3 2,-7 2,-11 1,-5 2,-5 0,-9 -2,-3 -3,-5 -5,-8 -1,-2 -3,-5 -4,-7zm49 -1c-4,2 -12,8 -15,8 1,-4 3,-5 6,-7 2,-1 6,-4 9,-2 1,1 0,0 0,1zm-199 8l-1 0c0,0 0,0 0,-1 -3,-2 -7,-4 -11,-6 0,0 0,0 0,0l-2 -2c5,-1 6,0 10,2 3,2 5,3 6,7l-2 0zm-12 -7c3,3 3,1 3,4 -2,2 -2,1 -5,0l-1 -1c-5,-4 -11,-6 -9,-9 3,-1 8,5 12,6zm-18 -8c1,4 9,6 11,9 -4,2 -7,-1 -10,-2 -3,-3 -5,-4 -5,-9l4 2zm116 7l0 -245 2 0c1,6 0,198 0,221 0,6 -1,26 2,30 -1,-2 -1,-2 -1,-5 17,-1 14,4 15,-36l43 7 13 31c-3,-1 -6,-3 -9,-5 -2,-1 -6,-3 -8,-4 2,3 4,6 6,10 2,3 5,8 6,11 -2,1 -5,2 -7,3 -1,0 -2,1 -2,2 -1,1 -1,0 -1,1l-1 2c-4,-3 -6,-3 -11,-2 -8,2 -6,3 -9,6 -5,-4 -16,-4 -20,2 0,0 0,0 0,0l-1 0c-3,-3 -4,-3 -10,-3 -7,0 -7,0 -10,3 0,0 0,0 -1,0 -3,-3 -3,-3 -9,-4 -8,-1 -7,0 -11,2 -2,-4 -4,-4 -9,-5 -7,-2 -6,-2 -11,1 -3,-8 -7,-5 -12,-8l13 -21c-6,2 -11,7 -17,9 1,-2 12,-30 13,-31l43 -7c3,14 -3,32 4,35zm-116 -13c5,-2 5,0 9,2 3,2 5,4 5,8 -4,0 -5,-4 -11,-7 -3,-2 -3,-2 -3,-3zm254 -1c-1,1 -6,4 -7,6l3 -1c0,5 -3,6 -5,9 -1,0 -3,2 -4,2 -2,1 -4,1 -6,0 0,0 0,-1 1,-1l2 -2 -6 4c-1,1 0,0 -1,1 -2,1 -4,2 -4,3 -2,0 -4,-2 -1,-4l3 -2c1,-1 0,0 0,-1l6 -4 -3 2c0,-7 8,-12 12,-12 2,0 2,0 2,2 2,-1 1,0 3,-2 0,-1 0,-1 1,-1 1,-1 0,0 1,-1 2,-1 3,-4 5,-2 0,0 1,0 0,2 0,1 -1,0 -2,2zm-259 -2c0,0 0,0 0,0 0,2 8,5 9,9 -2,2 -2,1 -4,0 0,0 0,0 0,0 -1,0 -1,-1 -1,-1 0,0 0,0 -1,0l-7 -7c-2,-1 -3,-1 -2,-3 2,-1 4,1 6,2zm259 2c5,-2 9,-9 11,-10 1,5 -1,7 -3,9 -2,2 -5,6 -10,4 1,-1 0,-1 1,-2l1 -1zm-3 -2l-2 1c-1,-5 1,-6 3,-8 1,-1 6,-6 9,-4l1 1c1,-2 3,-4 4,-5 2,-2 3,-4 6,-1 -1,2 -5,5 -6,7 -2,1 -5,6 -8,5 -2,-3 0,-2 1,-4 -3,1 -2,1 -4,3 -1,1 -2,1 -2,2l-2 3zm27 -24l1 0c2,5 -1,7 -3,10 -2,3 -3,5 -9,4 2,-2 4,-4 6,-6 1,-1 5,-6 5,-8zm-15 10c-1,-4 2,-7 4,-9 2,-2 3,-4 8,-4 0,1 -1,2 -2,3 -8,7 -7,11 -10,10zm-284 -2c0,-2 -2,-4 -4,-6 -2,-2 -4,-2 -4,-5 5,-1 6,1 8,4 3,4 4,3 3,9 -2,-1 -1,-1 -3,-2zm-23 -24c0,2 2,4 3,6 1,2 2,3 4,5 -1,-3 -2,-3 -1,-5 1,-2 2,0 4,2 1,1 2,3 3,4 1,2 5,6 5,9 -3,1 -3,0 -5,-2 1,3 6,8 9,9 -2,-2 -4,-3 -4,-5 1,-1 2,-1 3,-1 1,1 0,0 1,1 1,1 0,1 1,1l6 7c0,-1 0,0 0,-1 0,0 -1,-1 -1,-2 6,0 6,2 9,4 2,2 5,4 4,9 -1,0 -1,0 -2,-1l-1 -1c-2,-4 -5,-6 -9,-8 2,2 3,2 3,5l-2 1c0,0 0,0 0,0l6 6c2,1 1,1 1,2 -4,2 -6,-2 -8,-4 -3,-2 -5,-3 -5,-8 3,0 1,1 5,3l-6 -7c0,0 -1,0 -1,0 0,0 0,1 0,1 -4,2 -7,-2 -8,-4 -2,-2 -5,-4 -4,-9 1,0 1,0 2,0l-4 -4c0,2 1,0 0,1 -3,1 -13,-8 -10,-15 1,0 1,0 1,0 0,0 0,1 0,1l1 0zm4 -1l-1 -3c5,0 6,2 7,5 3,4 4,4 3,10 -4,-2 -3,-6 -8,-11l-1 -1zm330 1c0,0 0,0 0,0l1 -1c3,3 0,7 -1,9 -2,3 -3,6 -8,6l-1 -1c-1,0 0,0 -1,0 0,0 -1,1 -1,1 0,1 0,2 -1,2 -2,3 -3,7 -6,5 0,-1 -2,0 1,-4l7 -10c-2,2 -1,2 -3,3 -2,-4 0,-5 2,-9 2,-3 3,-5 7,-5l1 1c3,-3 3,-9 8,-9 1,2 -1,4 -2,6 -1,2 -3,4 -3,6zm-330 -1l1 3c0,1 0,5 -4,0 0,-1 0,-1 0,-1 -1,-1 -1,0 -1,-1l-3 -5c-1,-3 -4,-4 -3,-7 3,-1 3,0 4,1l6 10zm-13 -15c0,3 3,7 5,10l1 1c0,2 0,0 -1,1 -3,0 -4,-1 -6,-4 -1,-1 -2,-4 -3,-6l2 -3 2 1zm352 -1c1,0 1,0 1,-1l3 4c-3,6 -5,10 -10,10 1,-4 6,-7 6,-13zm-2 -4c0,0 0,0 1,0 1,2 1,1 1,4l-1 3c-6,0 -2,-4 -1,-7zm-350 5l-1 -2c0,-1 0,-1 1,-2l1 -1c1,2 5,6 1,7l-2 -2c0,0 0,0 0,0zm350 -5c0,0 -1,0 -1,0 0,1 0,1 0,1l-1 2c-2,3 -3,5 -4,8l-3 2c-2,-3 0,-5 2,-8 1,-4 2,-5 6,-6 1,0 1,0 1,1zm-348 -1c4,0 5,2 7,6 2,3 4,7 1,9 -3,-2 -4,-8 -6,-11 -3,-3 -1,-3 -2,-4zm318 -9c3,2 15,4 20,5l6 2c0,0 0,0 0,0 -1,2 -2,2 -3,4 -6,9 -4,10 -4,14 -5,0 -6,3 -8,6 -4,4 -4,4 -3,11 -7,0 -7,2 -10,5 -2,3 -4,5 -4,10 -6,0 -7,2 -10,5 -3,2 -5,3 -5,10 -6,-1 -7,0 -10,3 -3,2 -6,3 -6,9 -6,-1 -6,-1 -11,2 -4,2 -6,3 -7,9 -5,-2 -4,-1 -9,-1l-6 -23 -5 19c-2,-5 -5,-11 -7,-16 -1,-3 -6,-12 -6,-16l32 -44 38 -27c2,-2 4,-3 6,-4l31 12c-2,2 -15,5 -19,5zm-308 -5l26 -10c5,-2 5,-3 8,0l29 20c17,12 11,6 24,25 4,4 7,9 10,14l11 14c-1,4 -7,18 -9,23 -1,2 -1,3 -2,4 -1,3 -1,3 -2,4l-5 -18 -6 24c-5,-1 -4,-2 -10,0 0,-5 -2,-7 -6,-9 -4,-2 -5,-3 -11,-2 0,-7 -9,-14 -17,-12 0,-6 -2,-8 -4,-10 -4,-3 -4,-5 -11,-5 1,-6 -1,-6 -3,-10 -3,-3 -5,-5 -10,-5 1,-6 0,-7 -3,-11 -2,-3 -3,-6 -9,-6 2,-6 2,-6 -1,-10 -2,-4 -2,-5 -5,-8 3,-2 20,-4 25,-6 -3,-1 -6,-2 -9,-3l-8 -2c-2,-1 -1,0 -2,-1zm345 -3l-2 -1c0,-1 -1,0 1,-1 0,0 1,0 2,0l-1 2zm-20 -8c26,13 9,12 36,7l-4 11 16 11c0,0 0,0 0,0l-19 -4 -5 11c-3,-2 -8,-13 -11,-14 -4,-2 -15,-3 -20,-6 4,0 12,-2 15,-3l-8 -13zm-330 13l14 3c-4,3 -14,3 -19,6 -2,0 -9,12 -11,14l-6 -10c-3,0 -6,1 -9,1 -2,1 -3,1 -4,1 -3,1 -4,2 -5,1 3,-1 12,-8 16,-10l-4 -12c8,1 15,5 19,2 3,-2 5,-3 8,-5 3,-1 6,-3 8,-4l-7 13zm351 -5c1,-3 4,-15 7,-11 0,2 -1,4 -2,7 -1,3 -1,3 -5,4zm10 -19l1 -2c3,3 2,5 1,10 -1,4 -2,6 -6,7 0,-3 1,-4 2,-7 1,-3 1,-5 2,-8zm-385 -2c0,1 0,-1 1,4 1,3 2,10 4,12 0,-3 -2,-4 -1,-7 3,0 3,1 4,4 1,2 1,4 2,6 2,-1 2,-1 4,1l-2 1c-2,-1 0,0 -1,-2l0 1c-1,0 0,0 -1,0 0,0 -3,0 -3,0l-1 -3c-4,1 -6,-3 -7,-6 -1,-5 -2,-7 1,-11zm5 -1c4,1 5,3 6,7 1,5 2,6 -1,10 -2,-2 -2,-5 -2,-9 -2,-4 -3,-4 -3,-8zm380 3c-1,2 -1,3 -2,5 -3,0 -3,-2 -3,-4 -3,2 -2,9 -4,13 -4,-3 -2,-6 -1,-10 1,-4 1,-6 6,-7l0 2c2,-7 0,-13 5,-12 1,3 -1,9 -1,13zm1 -5c0,-4 1,-5 2,-9 1,-3 1,-6 1,-9 4,2 4,5 3,10 -1,5 -2,7 -6,8zm-386 -1l-1 1c-4,-2 -4,-4 -5,-8 -1,-5 -1,-8 3,-10 0,5 1,13 3,17zm381 0c-3,-3 -3,-5 -2,-10 1,-4 1,-7 5,-8 0,4 -1,5 -1,9 -1,3 -1,7 -2,9zm-381 0c0,-3 -1,-5 -1,-7 5,-2 3,2 5,5 -1,-3 -1,-5 -1,-8 -1,-5 -1,-1 -2,-8 4,1 5,3 6,8 0,4 1,7 -2,9l-1 -1c0,0 0,0 0,0 0,4 2,9 1,12l-2 1c-3,-3 -2,-8 -3,-11zm387 -10l-2 0c-1,-3 0,-16 1,-18 5,-2 3,5 3,7 -1,4 -1,8 -2,11zm2 -10c0,-4 1,-5 1,-8 1,-4 0,-7 0,-10 4,1 4,4 4,9 0,5 0,7 -5,9zm-3 -29c5,-2 3,5 4,12l0 5c-1,2 -1,0 -1,1l-2 0c-1,-2 -1,-15 -1,-18zm-390 26l1 0c-1,-4 -2,-6 2,-5 1,2 2,13 2,16 0,5 -5,3 -4,-9 -1,1 0,0 -1,1 -4,-3 -4,-3 -4,-9 -1,-5 -1,-8 3,-9 0,2 0,5 0,7 0,2 1,6 1,8zm389 2c-4,-2 -4,-4 -4,-9 1,-4 1,-7 5,-8l-1 17zm0 -38l1 17c-4,-1 -4,-3 -5,-8 0,-4 0,-8 4,-9zm-384 17l-1 1c0,3 0,2 1,3 3,1 3,4 3,8 1,5 0,8 -3,9l-1 -13c0,0 0,0 0,0 0,1 0,1 0,1 -2,2 0,0 -1,1 0,1 0,0 -1,1 -3,0 -2,-4 -2,-8 0,-3 0,-7 0,-10 2,-1 2,-1 3,0 0,0 0,0 0,1 0,0 1,0 1,1 1,1 0,0 1,1l0 -13c6,2 4,14 0,17zm-6 0c-3,-1 -4,-4 -3,-8 0,-5 0,-8 4,-9 0,3 0,5 -1,9 0,3 1,5 0,8zm394 -18c4,2 5,5 5,9 0,2 1,4 0,6 -1,2 -2,3 -4,3 0,-5 0,-3 1,-5 0,-3 -2,-9 -2,-13zm-4 -10c3,-1 3,2 3,8 1,3 2,7 1,10l-2 0c-2,-2 -3,-15 -2,-18zm-388 18c-1,-3 1,-16 2,-18 4,-1 3,4 1,16 0,2 -1,3 -3,2zm385 -28l2 18c-4,-2 -4,-4 -5,-8 -1,-5 -1,-7 3,-10zm-381 18c0,-5 2,-8 3,-13 0,-1 -1,-1 0,-3 0,0 0,0 0,0 1,-2 0,-1 1,-2 3,3 2,5 2,10 -1,4 -2,7 -6,8zm385 -19c5,2 5,3 6,9 1,4 1,8 -3,9 -1,-3 0,-6 -1,-9 -1,-3 -2,-5 -2,-9zm-389 18c-4,0 -4,-5 -3,-9 1,-4 1,-8 6,-8 -2,6 -3,10 -3,17zm267 90c-16,0 -19,-6 -29,-12 -10,-6 -21,-6 -31,0l0 -117c6,-3 9,-6 20,-5 19,3 27,19 58,19 1,3 -16,102 -18,115zm-161 -115c19,-1 26,-4 40,-12 9,-5 20,-9 31,-6 3,1 7,3 9,5l0 116c-6,-3 -9,-5 -16,-4 -21,0 -25,17 -45,16l-19 -115zm282 2c0,4 3,10 1,13l-2 1c-1,-2 -4,-16 -3,-19 3,-1 2,3 4,5zm-386 13c0,-3 2,-11 3,-15 1,-3 0,-3 3,-3 1,3 -1,13 -2,16 -1,3 -1,3 -4,2zm6 -10c0,-5 3,-7 3,-13 1,-2 1,-2 2,-4 3,4 2,6 1,10 -1,5 -2,6 -6,7zm380 -3c-1,-7 -3,-10 -4,-15 4,1 5,3 6,7 1,5 2,7 -1,10l-1 -2zm-385 2c-3,-2 -3,-5 -1,-10 1,-3 2,-7 6,-7 -1,2 -2,5 -3,8 -1,3 -1,6 -2,9zm375 -20l4 0c1,4 4,7 3,11l-2 0c-2,-2 -1,-2 -3,-4 0,6 3,10 4,14 -4,-1 -5,-3 -6,-7 -1,-2 -3,-6 0,-9 1,-1 0,0 1,-1l-1 -4zm-3 0c2,-2 2,-1 3,1l-3 -1zm-361 1c0,-1 0,-2 1,-2 1,0 2,1 2,1 -3,3 -3,1 -3,1zm-7 10c-1,-3 2,-8 3,-11l4 0c-1,2 -2,4 -3,6 -1,3 -1,6 -4,5zm343 3c3,-1 8,-4 11,-6 4,-2 8,-5 11,-7l5 2c-3,6 -3,5 -1,12 3,8 4,6 6,9 -3,3 -3,5 -2,10 2,9 3,7 5,10 -3,3 -3,4 -3,10 1,2 1,4 1,6l3 3c0,1 0,1 0,1 0,0 1,0 1,0 -4,4 -5,5 -5,14 0,3 2,5 4,6 -1,1 0,0 -1,1 -4,4 -4,3 -5,9 -1,6 0,7 2,11 -4,3 -4,2 -6,8 -1,4 -2,8 1,11 -1,1 -3,2 -5,3l-22 -13c1,2 9,14 10,17l-31 -13c-1,-9 -3,-18 -5,-27 -1,-6 -4,-21 -4,-27 0,-3 9,-52 9,-53 2,-2 31,-13 31,-13l-10 16zm-319 -16l32 12c1,4 5,32 7,40 0,4 2,11 2,14 0,4 -4,21 -4,26 -2,10 -4,19 -5,28l-31 13c0,-2 3,-7 4,-9 2,-3 4,-6 6,-8 -8,3 -15,9 -22,13l-5 -3c3,-4 2,-6 1,-11 -2,-5 -2,-6 -6,-8 2,-5 3,-3 1,-12 -1,-6 -1,-6 -5,-8 3,-4 4,-4 3,-11 0,-6 -1,-8 -4,-10 3,-4 4,-3 4,-10 1,-6 1,-6 -3,-10 0,-1 1,-1 1,-1 0,1 -1,0 1,-1 3,-2 3,-3 3,-8 2,-5 1,-8 -1,-11 4,-2 4,-3 6,-8 1,-6 1,-7 -1,-12l5 -2 21 13 -10 -16zm358 -10l4 12 -17 -3 -18 10c1,-4 5,-8 7,-13l-15 -3c6,-2 15,-3 20,-6 3,-1 7,-10 10,-13 1,-1 1,-1 1,-1l5 11 20 -4c-1,0 -6,4 -8,5 -3,1 -6,4 -9,5zm-403 -10l19 4 4 -8c0,-1 1,-2 1,-2 1,-1 0,0 1,-1 1,1 9,14 10,14 3,2 16,4 21,6l-15 3 7 13c-6,-3 -12,-7 -18,-10l-17 3 4 -12 -17 -10zm36 3c-2,0 -1,1 -2,-1 -1,-1 -1,-2 0,-5 1,-1 1,-2 4,-1 0,3 -2,5 -2,7zm347 -1c0,-3 -1,-3 -1,-5 3,-3 5,3 5,4l-2 2 -2 -1zm0 0l1 2c-5,0 -5,-2 -7,-6 -2,-3 -4,-5 -2,-9 4,2 3,7 8,13zm-347 1l1 -2c3,-4 4,-6 5,-10 0,0 0,-1 1,-1l1 -1c2,4 1,6 -1,9 -2,4 -2,6 -7,6l0 -1zm344 -17c7,0 10,10 10,10 0,0 -2,3 -3,4 -1,-4 -2,-5 -3,-8 -2,-2 -3,-4 -4,-6zm-340 0c0,1 0,1 0,1 0,0 0,0 0,0 -1,0 -1,0 -1,0 -2,3 -4,7 -6,11l0 0c0,1 0,1 -1,1l-2 -3c1,-3 5,-12 10,-10zm332 -8c2,-2 6,5 6,7 2,2 5,6 4,9 -2,1 -3,-1 -4,-3 -2,-3 -8,-11 -6,-13zm-6 -5c2,6 6,8 8,13 -5,0 -6,-2 -8,-5 -2,-4 -3,-4 -2,-10 1,1 1,1 2,2l0 0zm5 -1c-1,-2 -1,-1 -3,-4 5,0 7,3 9,6 1,2 5,6 1,9 -2,-2 -4,-9 -7,-11zm0 0c1,2 1,2 0,4 -1,0 -2,0 -3,-1l-2 -2 -6 -8c-1,-1 -1,-1 -1,-2 -1,-2 0,-1 0,-2 3,-2 8,9 12,11zm-316 0c0,0 0,0 0,0 0,0 1,0 1,0 0,0 0,0 0,0 3,2 -3,14 -10,14l1 -2 -3 3c-1,2 -1,2 -2,4l0 0c-2,3 -1,4 -5,3 -1,-3 2,-4 3,-8l1 0c0,0 0,0 0,0l2 -4 -2 1c-2,-6 -1,-5 2,-10 2,-2 3,-5 8,-5 0,2 0,1 -1,3l7 -8c1,-2 1,-2 3,-2 3,3 -2,5 -5,11zm165 179l0 -4c6,-3 9,-5 17,-5 15,1 17,9 28,13 6,3 12,4 19,3l19 -121c-35,0 -40,-15 -61,-19 -10,-1 -13,1 -21,4l0 -27 7 -1 0 -6 21 0c-1,-1 -17,-16 -19,-27l35 -5c1,2 2,4 4,6 3,5 25,36 27,39l45 31c-1,10 -5,28 -7,40 -3,18 -3,10 0,28l7 40 -45 32 -8 11c-3,4 -5,7 -8,11 -2,4 -5,7 -8,11 -2,3 -6,8 -8,11l-43 -7 -1 -58zm-163 -182c1,-1 2,-3 3,-4 7,-5 5,-8 9,-10 2,7 -5,15 -12,14zm233 -51c4,1 5,2 9,0 1,5 3,7 7,9 5,2 4,3 11,2 0,6 3,7 6,9 4,3 4,4 10,3 0,7 2,7 5,10 4,3 4,5 10,5 0,7 1,6 4,10 3,3 4,5 10,5 -2,6 0,7 3,11 2,3 3,5 8,6 -1,5 -1,6 1,10 6,9 3,5 7,8l-27 7 19 5 -31 12 -22 -15c-4,-3 -8,-5 -11,-8l-11 -8 -24 -33c-3,-4 -6,-8 -8,-12l13 -30c0,0 0,0 1,2l1 7c1,3 2,6 3,9l6 -24zm-187 11c5,1 7,0 11,-2 7,-4 4,-3 7,-9 5,2 4,2 9,0l1 3c0,1 0,2 0,3 1,2 1,4 2,6 1,4 1,8 3,11 0,0 0,0 1,-1 1,-2 3,-13 4,-16 1,1 12,28 13,30l-32 45 -39 28c-2,1 -4,3 -6,3 -1,0 -22,-9 -27,-11l-4 -2 19 -5 -26 -6c5,-3 10,-11 8,-17 2,-2 2,-1 5,-3 4,-4 8,-8 6,-15 7,0 6,-2 9,-5 3,-3 5,-5 4,-10 8,0 16,-7 15,-15 6,1 8,0 11,-3 4,-3 5,-3 6,-9zm251 24l1 -1c2,0 4,0 5,1 5,4 8,7 6,13 -2,-2 -2,-3 -4,-5 -2,-3 -2,-4 -4,-5 2,4 -2,5 -3,2 -2,0 -1,0 -1,1 3,5 6,6 8,10 -5,0 -6,-2 -8,-4 -2,-3 -4,-3 -4,-8 1,-3 0,-1 1,-3 -2,-1 -1,-1 -2,-2 -1,0 -1,-1 -1,-1 -2,-1 -1,0 -2,-1 -1,-2 -1,-2 -1,-2 -1,-2 0,-2 0,-3 4,0 5,4 8,7 1,1 1,0 1,1zm-8 -3c2,2 2,1 3,3 -5,1 -7,0 -9,-3 -3,-3 -5,-4 -4,-9 3,1 2,3 5,5 1,1 3,4 5,4zm-265 -7c2,-1 2,-2 3,-2 1,5 -1,7 -4,9 -2,2 -4,5 -9,3 3,-3 9,-6 10,-10zm253 -9c1,1 5,5 7,5l-2 -2c7,-1 6,1 9,4 3,2 6,4 4,8 -1,0 0,0 -1,0l-6 -7c0,0 0,0 -1,0 0,0 0,1 0,1l-1 2c-4,-1 -9,-7 -13,-9 0,0 -4,-3 0,-4 1,0 3,1 4,2zm-4 2c0,0 0,0 1,1 1,1 1,0 2,2 -5,2 -6,0 -9,-2 -3,-2 -5,-3 -5,-9 4,2 7,7 11,8zm-243 2l-6 5c-2,1 -3,2 -5,1 0,-2 -1,-1 0,-2l1 -2c-1,1 -3,3 -4,4l-4 5c2,-2 4,-5 6,-3 0,3 -4,6 -6,8 -3,3 -6,8 -8,4l0 -2c0,1 -6,8 -7,10 -1,-1 -1,-1 -1,-2 -1,-5 6,-11 8,-12 0,0 2,0 2,0 2,0 2,1 2,1 0,0 1,0 1,0l2 -3 0 -1c-2,-3 1,-6 3,-8 2,-2 5,-5 9,-4l0 1c3,-1 7,-7 10,-6 2,2 1,2 -1,4 2,0 5,-2 6,-4 3,-1 2,-3 6,-4 0,6 -2,7 -6,9 -1,1 -3,2 -4,3 -2,0 -5,0 -4,-2zm247 -4c-1,-1 0,-1 -1,-2 -2,-2 -6,-4 -8,-6 -2,-1 -2,0 -3,-2 5,-1 7,0 10,3 3,2 5,3 5,8l-3 -1zm-251 1c0,-6 2,-6 5,-8 3,-3 5,-5 9,-3 0,1 -6,5 -7,6 -4,3 -4,4 -7,5zm228 -15c2,-1 8,3 10,4 5,4 7,4 6,7 0,0 0,0 0,0 -2,0 -1,1 -3,0 -1,-1 -1,-1 -2,-2 -3,-2 -13,-7 -11,-9zm-208 6c-2,1 -5,4 -8,5 -2,1 -2,-1 -2,-1 -2,-2 5,-5 9,-8 0,0 1,0 1,-1l1 0c2,-1 2,-2 4,-1 1,4 -2,3 -5,6zm203 -6c2,3 8,4 10,7 -3,2 -14,-2 -15,-9 3,0 3,0 5,2zm-203 6c2,-1 6,-3 8,-4 5,-3 4,-4 8,-5 -1,6 -3,6 -6,8 -3,2 -6,4 -10,2l0 -1zm189 -13c2,1 5,2 6,3 -3,2 -4,2 -7,0 0,-1 0,-1 1,-3zm-171 3c1,-1 2,-1 3,-2 2,0 3,-1 5,-1l0 4c-3,0 -5,1 -8,-1zm191 2c-2,-2 -6,-3 -8,-5 3,-3 8,0 10,2 4,2 6,2 6,7 -4,0 -2,-1 -8,-4zm-208 3l-4 1c0,-4 2,-6 5,-7 4,-2 5,-4 11,-2 -1,1 1,0 -4,2 -2,1 -7,4 -8,6zm192 -11c2,1 6,3 8,4 3,2 7,2 5,6 -2,0 -15,-6 -16,-8l3 -2zm-170 2c-1,2 -14,9 -16,7 -2,-2 5,-4 6,-5 5,-3 7,-5 9,-3 0,0 0,0 1,0l0 1zm33 -9c4,3 6,3 12,1 5,-1 6,-1 8,-5 5,4 9,3 16,2 1,12 4,19 -2,30 -2,4 -4,6 -6,12 -2,6 -1,10 0,16l-31 -5 -13 -31 17 9 -13 -21c7,-2 9,-2 12,-8zm142 9c-1,0 -1,-1 -2,-1 -2,-1 -1,0 -2,-2l3 -1 1 4zm-181 -4c2,0 1,0 2,1 -1,2 -2,2 -3,3l1 -4zm154 -7c0,1 0,1 1,2 0,3 0,1 -1,2 -1,-2 -1,-2 0,-4zm-117 1c-1,5 -6,6 -11,7l-1 -3 12 -4zm-12 1c0,-1 1,-1 1,-1 1,1 1,1 0,2 -1,0 -1,2 -1,-1zm83 57c-1,-7 -3,-10 -3,-18 0,-7 2,-11 2,-18 0,-11 -8,-17 -9,-25 1,-1 1,-1 2,-2 3,2 1,3 9,4 8,1 7,1 12,-2 2,3 1,4 8,5 7,2 7,2 12,-1 2,3 1,4 4,6 3,1 6,1 8,2l-13 21c2,0 7,-3 9,-5 3,-1 5,-3 8,-4l-13 30c-2,2 -31,6 -36,7zm15 -63c0,0 15,3 17,4 -4,4 -6,3 -10,2 -4,-1 -7,-2 -7,-6zm-83 4c3,-1 5,-1 9,-2 3,-1 5,-2 8,-2 -1,4 -3,5 -8,6 -4,1 -7,1 -9,-2zm20 -4c1,0 0,-1 4,-1 1,0 2,0 4,0 2,0 5,-1 7,-1l0 3c-2,1 -6,2 -8,2 -4,0 -5,-1 -7,-3zm-29 2c5,-1 11,-4 15,-4 1,3 1,3 -2,4 -4,1 -13,4 -15,3l0 -2 2 -1zm114 2c-3,0 -10,-1 -12,-3 0,-5 8,0 16,0l-4 -1c0,-1 0,-1 2,-2 6,-2 6,3 7,5l-5 -1c0,0 1,0 1,0l0 0c1,1 1,0 1,1 1,1 0,2 0,2 -2,1 -3,0 -6,0l5 2c2,1 4,1 5,2l-1 3c-6,-1 -10,-2 -11,-7l2 -1zm-114 -2l-5 1c0,-3 0,-4 3,-5 3,0 5,0 6,2l-4 2zm75 -4c4,1 9,1 13,1 -1,4 -4,4 -9,3 -4,0 -6,0 -8,-3l-4 -1 0 1c-2,-1 -1,1 -1,-1 0,0 0,-1 0,-2l0 -2 0 -3c1,-1 0,0 1,0l1 2 1 1c3,-1 8,-1 9,0 1,2 1,1 0,3 -1,1 -2,0 -3,1zm22 -5c2,-1 4,0 6,0 4,1 7,2 7,6 -4,0 -4,-1 -8,-2l-9 -2c1,-1 0,-1 2,-2 1,0 1,0 2,0zm-89 6c1,-4 3,-5 8,-6 4,-1 7,-1 9,2 0,0 0,0 0,0l-3 1c9,0 15,-4 15,1 -3,1 -16,4 -19,3 0,-4 1,-2 4,-4 -6,0 -9,2 -14,3zm81 -5c1,1 0,0 0,2 3,0 5,0 7,0 4,1 4,1 3,4 -1,0 -17,-1 -18,-3 -1,-3 2,-2 5,-2l1 0c-1,0 -4,-1 -7,-2 -3,0 -6,0 -9,0 2,-4 5,-4 9,-3 5,0 8,0 9,4zm-45 0l0 3c-3,1 -5,1 -5,-2l2 -1c-1,-1 1,-1 -2,-1l-10 2c2,-7 13,-6 15,-5 0,2 1,2 0,3l0 1zm-79 11l11 -6 -4 -18 11 16 11 -4c-1,10 -4,15 -1,20l9 15c-4,-1 -10,-6 -13,-7l-4 14c-2,-3 -3,-15 -5,-20 -1,-2 -14,-9 -14,-10 0,0 -1,0 -1,0zm170 -8c1,-2 9,-15 11,-16l-4 19 10 5c-2,2 -13,8 -14,10 -1,2 -5,18 -5,20 0,0 0,0 -1,-1l-3 -13c-4,1 -9,6 -13,7l11 -18 -4 -17 12 4zm-90 101l2 0 3 0c1,0 0,3 0,5 0,0 0,0 -1,0 -1,1 0,1 0,1l0 21c-8,-3 -13,-5 -23,-4 -21,3 -20,17 -61,19l20 121c13,2 23,-5 31,-10 10,-7 22,-9 32,-1l1 4 -1 58 -43 7c-6,-6 -30,-42 -32,-44 -2,-2 -4,-3 -6,-4 -2,-2 -4,-3 -5,-4l-34 -23c0,-9 9,-50 9,-55 0,-8 -9,-46 -9,-54 4,-4 27,-19 34,-24 15,-11 8,-3 19,-19l24 -33 31 5c1,7 1,13 -2,18 -2,3 -6,9 -10,9 5,1 10,0 15,1 1,-2 2,-4 3,-7 2,-9 0,-17 0,-26 0,-13 6,-17 7,-29 1,-12 -2,-24 0,-35 2,-5 4,-9 6,-13 2,-5 2,-10 4,-14 0,10 -6,19 -7,30 -1,12 2,24 0,36 -1,6 -3,10 -4,15 -3,17 5,35 -6,48 -2,0 -6,1 -7,0 0,0 0,-1 0,-1 0,0 0,0 0,0 -1,1 -1,1 -2,2l12 0zm-154 -23c-3,4 -5,6 -3,12 -3,1 -5,1 -7,3 -1,2 -2,5 -3,7l-2 -2c-1,-1 -1,-3 -3,-4l-6 13 -30 -6c3,3 9,6 13,8 2,1 4,3 6,4 2,1 5,3 7,4l-5 14 12 -2c-5,0 -6,5 -7,9 -2,6 -2,7 1,11 -4,4 -4,2 -6,10 -1,6 -1,8 3,11 -2,2 -3,2 -4,5 -1,2 -1,3 -1,6 -1,8 0,6 3,11 -3,3 -4,6 -3,12 0,5 1,7 5,9 -4,4 -4,5 -3,12 1,5 2,7 6,9 0,1 0,1 -1,2 -2,3 -1,6 0,10 2,6 1,6 6,9l-11 -2 5 14c-2,1 -5,3 -7,4l-19 13 30 -7 7 13 4 -6c3,5 2,10 10,10 -1,7 0,8 3,12 2,4 4,5 9,6 -1,6 1,8 4,11 3,3 4,5 10,5 0,7 2,8 5,11 4,3 4,5 11,4 0,6 3,8 6,10 7,5 4,3 11,3 0,6 3,7 7,9 5,3 6,4 12,2 0,2 1,3 1,5 -2,1 -5,3 -6,4 2,3 9,5 12,7l-6 30c3,-5 14,-22 17,-26l13 5 -1 -7c6,1 6,0 10,-2 2,5 2,5 9,7 7,1 6,1 12,-2 1,4 5,5 10,5 5,1 9,0 11,-3l2 2c2,2 6,2 9,2 6,1 8,0 11,-4 4,3 4,4 11,3 7,-1 7,-1 10,-5 4,3 6,3 12,1 8,-1 5,-2 9,-6 3,2 5,3 10,2l-2 7 14 -5 17 26 -7 -30 13 -7c-1,0 -6,-3 -6,-4 0,-1 1,-4 1,-5 5,2 8,1 12,-2 4,-2 6,-3 7,-9 6,1 7,0 11,-3 3,-3 6,-4 6,-10 8,1 16,-7 15,-15 6,1 8,-1 11,-5 2,-4 5,-4 3,-11 7,0 8,-3 10,-7 3,-4 4,-5 3,-11 6,-1 6,-4 9,-9 1,-1 1,0 1,-1 1,2 3,4 4,6l7 -13c5,1 28,7 30,6 -9,-5 -17,-11 -26,-16l5 -14 -11 2c0,0 1,0 1,0 3,-4 4,-4 5,-10 2,-6 1,-6 -2,-11 5,-2 6,-3 7,-9 1,-10 0,-6 -3,-12 4,-1 5,-5 5,-10 1,-7 0,-8 -4,-11 3,-4 5,-2 4,-11 0,-2 0,-5 -1,-7 -1,-1 -2,-2 -3,-3 -1,0 -1,0 -1,-1 4,-3 4,-6 3,-11 -1,-3 -1,-5 -2,-6 -2,-3 -3,-2 -4,-4 1,-1 2,-3 2,-5 0,-4 -3,-14 -8,-15l12 2 -5 -14c8,-6 17,-10 25,-15l-29 5 -6 -13c-2,1 -3,4 -5,6 -4,-5 -3,-9 -10,-10 1,-6 0,-7 -3,-12 -2,-3 -4,-6 -10,-6 1,-5 0,-8 -3,-11 -3,-3 -4,-6 -11,-5 1,-7 -1,-8 -4,-11 -4,-3 -4,-5 -11,-4 0,-6 -2,-7 -6,-10 -5,-4 -4,-4 -11,-3 -1,-6 -3,-7 -7,-9 -5,-3 -6,-4 -12,-2l-1 -5c2,-2 5,-3 6,-5l-13 -6 7 -30c-5,5 -13,20 -17,26l-14 -5 1 7c-5,-1 -5,0 -9,2 -3,-5 -2,-5 -8,-6 -6,-2 -10,-2 -13,1 -4,-4 -2,-4 -10,-5 -6,-1 -6,-1 -10,2 -1,1 0,0 -1,1l-3 -3c1,-10 2,-14 0,-25 -1,-4 -4,-18 -7,-19 -5,28 -4,23 -15,44 -4,-1 -7,-1 -11,0 -5,1 -5,2 -7,5 -6,-3 -4,-3 -12,-2 -5,1 -8,3 -9,7 -4,-2 -4,-3 -10,-2l1 -7 -13 5 -17 -26 6 30 -13 7 7 4 -1 5c-7,-2 -7,-1 -12,2 -4,2 -7,4 -7,9 -6,-1 -7,0 -11,3 -4,3 -6,4 -6,10 -8,-1 -16,7 -16,15 -6,0 -7,2 -10,5 -3,4 -5,4 -4,11 -6,1 -7,3 -9,6z"/>
   <path class="fil0" d="M669 674c1,0 1,-1 2,-1 1,-1 2,0 2,0 0,3 -2,4 -3,7l5 -6c2,-3 3,-3 4,-7l-2 3c-1,1 -1,1 -2,1 -4,1 0,-6 1,-7l-1 1c-2,2 -6,7 -6,9z"/>
   <path class="fil0" d="M624 719c2,-1 2,-1 3,-1 2,-1 3,1 2,2l-2 2c0,0 0,0 0,0 3,0 7,-4 9,-6l0 -1c-2,1 -3,4 -5,2 0,-1 -2,-1 1,-4l3 -2 -11 8z"/>
   <path class="fil0" d="M345 459c3,-3 1,-5 5,-4 1,3 -1,3 -1,6 0,-1 0,0 0,-1 0,0 1,-1 1,-1 0,0 1,0 1,-1 3,-3 4,-5 6,-9 -1,0 -1,0 -1,1 -1,0 -3,3 -4,3 -4,1 0,-5 0,-5 -3,2 -6,8 -7,11z"/>
   <path class="fil0" d="M684 793c2,-1 5,-3 8,-5 2,-2 5,-4 7,-6 -5,23 -22,46 -37,60l-10 9c-7,5 -14,11 -23,16 -73,44 -164,43 -238,-2 -17,-11 -31,-23 -44,-39 -9,-11 -20,-31 -22,-44l11 9c2,1 3,2 4,3 0,-2 -3,-6 -4,-9 -10,-23 -19,-56 -18,-81 1,1 0,1 1,2 0,0 1,1 1,2l13 23c13,22 17,24 30,40 4,5 21,21 27,25 28,23 70,45 119,45l6 0c66,0 124,-40 160,-86 7,-10 18,-26 24,-37 1,-4 5,-12 7,-14 0,23 -5,48 -13,70l-9 19zm-361 -82c3,4 5,8 7,11 9,13 23,30 34,41 10,10 20,18 32,26 70,48 158,48 230,1 8,-5 15,-11 22,-16 3,-3 7,-6 10,-9 5,-7 10,-11 18,-19 8,-10 23,-33 24,-33 -4,12 -30,46 -40,58 -6,6 -12,11 -18,17 -16,16 -43,31 -64,40 -65,25 -134,9 -184,-29 -16,-13 -28,-24 -40,-40 -7,-8 -28,-37 -31,-48zm365 77c1,-3 3,-7 5,-10 10,-26 16,-54 14,-82 -1,1 -6,10 -7,12 -9,16 -11,17 -21,30 -4,7 -18,21 -24,26l-22 18c-70,51 -157,55 -231,8 -23,-14 -46,-35 -62,-57 -3,-4 -6,-8 -8,-12 -3,-4 -5,-8 -8,-12 -2,-3 -5,-11 -8,-13 0,25 3,49 11,72l8 20c-2,-2 -5,-4 -7,-5l-6 -6c14,70 102,124 190,124 25,0 46,-4 68,-10 32,-10 71,-32 94,-59 12,-15 25,-34 28,-55 -2,2 -10,9 -14,11z"/>
   <path class="fil0" d="M57 382c2,-1 4,-4 6,-6 7,-8 17,-17 25,-25 1,-1 2,-2 3,-3 3,-3 26,-24 29,-28l11 -9c5,-4 15,-15 19,-18 8,-6 22,-19 31,-26 1,-1 1,-1 2,-1l19 -16c2,-2 4,-3 7,-6 2,-1 4,-3 7,-5 1,-1 2,-2 3,-3 1,-1 3,-2 4,-2 16,-14 33,-25 50,-38 13,-10 31,-21 45,-31 10,-6 20,-12 31,-19 24,-17 71,-42 96,-55 6,-4 64,-33 67,-33 2,0 61,30 67,33 53,29 108,60 157,95 25,17 49,34 73,53 10,8 25,20 34,28 3,2 5,4 7,6l14 12c8,7 16,13 24,20 1,1 2,2 3,3l20 18c1,2 1,2 3,4 1,1 2,2 3,2 7,7 32,32 38,38l24 25c-1,30 -21,126 -27,154 -11,49 -25,95 -40,142 -15,45 -33,88 -51,131 -10,22 -33,70 -44,91 -2,4 -15,28 -16,29 -22,5 -46,8 -68,11 -23,4 -47,6 -71,9 -124,13 -248,9 -372,-8 -22,-4 -44,-8 -67,-12 -1,0 -14,-26 -16,-29 -5,-10 -10,-20 -15,-30 -64,-126 -111,-269 -136,-408 -4,-26 -9,-53 -12,-79l13 -14zm454 -329c-19,7 -78,38 -97,49 -6,3 -12,7 -19,10 -24,14 -49,30 -72,44 -12,8 -24,16 -35,24 -17,12 -34,24 -51,36l-33 26c-5,4 -10,9 -16,13 -12,10 -27,23 -39,33 -10,8 -22,20 -31,28l-15 14c-8,7 -15,14 -22,21 -6,5 -10,10 -15,15 -7,7 -15,16 -22,22 -5,5 -5,6 -4,10 4,34 9,67 16,101 17,90 46,186 79,270 22,53 48,108 75,159 1,3 3,6 5,9 6,12 0,9 30,14 183,32 366,31 549,-3 14,-2 8,2 21,-22 7,-12 14,-25 20,-38 7,-13 13,-27 19,-40 28,-62 44,-101 66,-167 25,-74 44,-156 57,-235 1,-7 8,-46 7,-51 0,-2 -4,-6 -6,-8l-21 -22c-9,-8 -20,-20 -30,-29 -6,-7 -19,-19 -26,-25l-7 -7c-9,-8 -20,-16 -28,-24l-64 -52c-51,-40 -118,-84 -175,-116 -13,-7 -25,-14 -38,-21 -18,-10 -48,-25 -68,-35 -3,-1 -8,-4 -10,-3z"/>
  </g>
 </g>
</svg>
